<mxfile>
    <diagram id="b4RBardiPLoGrMqbeJDh" name="Page-1">
        <mxGraphModel dx="1518" dy="1617" grid="1" gridSize="10" guides="1" tooltips="1" connect="1" arrows="1" fold="1" page="1" pageScale="1" pageWidth="827" pageHeight="1169" math="0" shadow="0">
            <root>
                <mxCell id="0"/>
                <mxCell id="1" parent="0"/>
                <mxCell id="74" value="" style="rounded=1;whiteSpace=wrap;html=1;fillColor=none;dashed=1;strokeColor=#0000CC;strokeWidth=3;" parent="1" vertex="1">
                    <mxGeometry x="150" y="405" width="240" height="220" as="geometry"/>
                </mxCell>
                <mxCell id="66" value="" style="rounded=1;whiteSpace=wrap;html=1;fillColor=none;dashed=1;strokeColor=#0000FF;strokeWidth=3;" parent="1" vertex="1">
                    <mxGeometry x="-100" y="405" width="240" height="220" as="geometry"/>
                </mxCell>
                <mxCell id="57" value="" style="rounded=1;whiteSpace=wrap;html=1;fillColor=none;strokeColor=#FFFFFF;" parent="1" vertex="1">
                    <mxGeometry x="-85" y="420" width="215" height="60" as="geometry"/>
                </mxCell>
                <mxCell id="14" value="" style="rounded=1;whiteSpace=wrap;html=1;" parent="1" vertex="1">
                    <mxGeometry y="-90" width="700" height="300" as="geometry"/>
                </mxCell>
                <mxCell id="4" value="" style="shape=image;verticalLabelPosition=bottom;labelBackgroundColor=#ffffff;verticalAlign=top;aspect=fixed;imageAspect=0;image=data:image/png,iVBORw0KGgoAAAANSUhEUgAAAq4AAABLCAYAAACx6QUeAAAgAElEQVR4Ae1dz48dx3H2n+Z7cpF0SI4EExDwybmRIMI/QYAXizXJgyQDsSDEkp2Y3tVSQG6BYRvwag3RuSgWHMD0MgKcky/SqYOvu6u7qrp6puf9frv1gN3X09M/qr/pb+qbmp553wn+cQQcAUfAEXAEHAFHwBFwBI4Age8cgY1uoiPgCDgCjoAj4Ag4Ao6AIxBcuPokcAQcAUfAEXAEHAFHwBE4CgRcuB7FYXIjHQFHwBFwBBwBR8ARcARcuPoc2AwCV2fh3un1UFs3F0/Co4s3Q2XnCqGtk6u5Ur7fEXAE5hB488sQvvfLuVJj+9HWu1+OlfVSjoAjsE0E3oTzx0/C+c1EH1dnpk8+VF/twnXiWN72XZOT8uYyPBoUohGnBcI1BEkk2HHv/gPj7yxMa9LrcHJ/rsxtP4o+vtuEgBZ8P/9JCD//Sxoh0vHS8MsBgfmXEL73fi6/ACDeH2z57vv239wl6rsr9L3ATC/qCOwcgavTBxNBEvi07MO034RvNP2b5fPsPixffXU6LUZrHeZv4dcfX4aboHxnR7geqq924brz6T/e4TfffBuuf/dF+ORnL8LT5x/EP6SRh32rfTBhbcJMkWs2qjkgXG2BSuS7DieRUDQqRSzKjoQbs3/W5tKmJxyBcQT++m0In/xXCP/470nU/e2PQ/inT1Me9q3zEcL1yxC++2ltjYTr9adVzNa9MsUFKO3picmeQCXB/O5P4L7qp9cO8ntCl+d7JLZi6anNIbAdf1ntS8I1+8/Hl+H8VPqh7l1EUxTa/g0+UvitHECqIpTs0f6S8tl3EalMuHJbsJ8CPzw/hHDovtqFKzvOh5T80+s/h/d/9GH4welz8w/7UGadT0sG1lomDMuJSXtCSwI3AlgIUt0ibWsi2sRGDEkKXKovv2GnOAHI3b7lCKyEwH/+TwgQqlyI8fTfIyrKVd7CXrhwJaEaED39SQgQkNdIZzHLy/JuIGx74rAnOnl9nR4Wrkrg6naw3bPZKut5jsAoAlvzl1HcSf/W+JW5oI0ShWlMtn9r/Fau2/jqbhSXAkHohQQrfYfQRo2vwwkixKaNPfS1D7bHsk1f7cK1d2z2mA8SkmD9+KcvokDF1ST+sA95tH8d8TorQvUtjx4mN5fh5PGTcO/xk3AyuXYVE1yeBOpV6gIyqDYaoZz3NyeYnv2e7wgMIABBykXqd99T2yziuFi8IrrK6mOtKY9g4tY8hOy7n7JyLBpL5k+J1lgmi2CtrXlfsIOvdR0Wrsx+Phad7olqGoN/OwJLENiVv2xFX7Zyi8K19dFYGgchmpfIMWELf6eXDySbSbj2BGYwhOth+2oXrksYsoOyEKcUaf3Vb37b7RH7IF5RFnVW+TRXcbyRTsSVF6F0JMsFHs66rISincPfC4TrQAQXY3PhOgy+F5xBAEsAEE3VIqy3jbKrLBvQwhPbFGVFuty+fz+JWNqG+VHYTj0Qlde9RpsN0duDYFi4esS1B6HnbwmB7fvLVsAhUFIDLkn0ieCJ9k/d6KgM4lAb3G+REOW+mvs22q+/JdwkXGWu2PKIq4DDNxYi8Pn1F1GQIqo696HIK+qs8gEBiCzm90jElQQuXXUuIgC3eoFw9YgrB87TO0Dg49+Pi1YSs6iz9IPIJ0Uko4jFk/45koloK4QqrV9FWYqMoiz12/3mwvLL2s+cjcPC1SOuc1D6/g0jsEt/KSOuEINMeE75StMn2tFPLkrjrfa8BrUIV/K3EUfymTUCSwIWu2Fvz6/zcrEp08bewaJ+ab89lmR/xwblw7lYp1anvj3iOoXOHvaRGB1ZAkC3SEZErjWUQgZz58hbBSphsEaGXofVkKK03169Prq4lieAcpt/ggz6ira0XxPyBFDzPeUIrILA9w1h+M//EcJ//18Ib/4aAtJaMKLOog9bLgCBGm/fZ7EZRSzWrjIhS5HYRX2wwmiT3g5gLRWAQNZjgqhGWarHmotrcPUSBL4faV/jqhHx7XUQ2Lq/7EVLuQ9ivs8ciykKbf8m/BYTqZavLkK6lOtFVq181X9j42H7aheu5kzbX+YPn38QI64jt/9RBssF8MaB4U+PiOoKqLlSM64oC3HQuSCvIsWQcQuu4vhJo9O2OAF0yni2IzCKwN/8Syvi/vevtTYErBZ5eIhryQdCMj6E9WWKqmpxCNFHEdaeeFzS32jZ4Ygrj+h2Gnfh2gHGs1dCYOv+sliVhZzhB6Pve/wkPGI+VC8lENuxTdtH9vxWFK54joS9BYACRbUOCyRlu2O9GBzCQ1uqT/hs8qWNcC0DNxL799UbE66vnr0T3no2c2/s1bPw1tuPwsuvORa/D0/ffic8fcXzdPrr8PLhO+Ehr/j1Z+Eha+vrl4/CWw8/C6Lp0kyqP2tfKb+/xCpERJ3VPpjoxnvjhAi1W4ZoFWTUdXAVSCSzm1C5C8jAThCNwGb7lt5+UAb5piNQEJgTrn8whCvqDH/yQ1PX9OJ+Fn3Vglhss6guRKHYN3XrfkBkku3DwnWqP7aPlkJQ+/7tCKyKwK78JQQgfM3JKb2oP/nO6n8m3icO38j80lxa+i3WD4lm+FYSnOItO61wTXc/kZ/eNiCCTXE5QX4LwbaE6+C45ZjnZ8O4cI1C8Z3w1tvsjwnFeeGaBGoUj1HAPgtJq+Z83i4TpGkIXLjq8s/CS4hWVl8IXDSgBXPcZuOgunPCex7PtUts/dZHsTARoopPOekjUYkopQ4Sul7eqYUrsqN45a/nyFetbDLX/keFqzAmbSwinVHfsxyBGQR6SwUgWBF5XXupQF5zKiKS7NVX0Tz2XleU4w9mYT/yKCI7ORzjzQLWUgFqY1S4UvnyPfJDCaWwJxyB5QjsxF/mIMxJ/gGCm4sz+StUlu9jQ6kRUZapfwAg7xJlo+BN/hP50VcK0arfIiB9eF0ji/zsh1Hf8utFXJO/PmxfPS5cCXMhOnMkk4Sf+q5R1FwuC90ocmNZiNdtR1xT+1HMRvH9LLwSY0gDmxfeBMB2v2mxOX5oYO5DpF38cFYkIiKt7eSsV4NPwskpXnGFX9mgTxKt6eoopWt5vQibE4CuRuWtikLG2LwWrpWEV6dUHwWpHCNjfmFyvWqrdcly/3YE1kFgVw9nCeHKoq60bAAC8+cdgbqucKU+dDtauGLtK8ryNbLAlsrRw2PIE+PJbz6gftY5Hl7XEQAC2/eXyc/Bt9Ro5Ztwfsr8ohauatt+5kP6QjqaQrhSZvZvNciTdzQBG/KNdX9aTiB9JTWLvrj/lu1L+w7NV68pXAkCBDX5rXwlRnWEkwnYhy8/m1wqEJcAcEGMulb0l8qIqCkXzDlS+/BZePUSSxYo4pvGcCjCFetW38s/PPDrgddhoezIethypEAqIUZpT0fsRZFLIpTKGt+KrEaJJDrZ8oF5MqBfTkZOQJ5OvSWBS+Xzi5VtQzzXEViEAF5t9Xf/On4rHmVXeR0WF3rxgaz8eisShdgvfk3rl3UYWnDWPSrVibiSoNTtUN/UCglTnk95KMPT2CaBS+XxdgT/OAKbQGDr/pJFKKtwVZZr3ycEpRSAtaadPyxcdZ+xYfJ92OD+kafr67uEUBU2o76079B89YaEK7+Vj0FDJOq1rBFZ458dtZW3+1nUFC2o9a3UaCM+G4GbbdJC2hS91Oruv+ltAXjwCpHX169vojgFSZFG3iZ+gECODJObRzbl3tktk0i6FsggI7OVPJx0qV48UVxc5h81UOQTxGT9sBNN7yTASnvSERhGQPwAwcSPD2Cd6eIfIMhWFOHaEZdYCgBhGJcE4NVY7L2tUdSytaST613VGtclSwWioMZa3CyatVDV23FobNlDGeMw8l7QEegjsCt/OSpchd9pBCGNQwpDyhV1KVNHXHu+tpff85Ws/faXsw7bV29IuKoIayMsbXHaf5iKI0prVNOa1HrL31ijCgEqIq65nSxgixg+4KUCNHKQkSKvJFL5N/ahzCofEJDfIphNmxFa1XOXNLycJOv0VRxdGfajvahv2e5LBjjmnt4kAhCk1oNaJBIRaV1VtMLOKOryK68oAhrykoGyjdvyWaDyPNRdZ40rtaXboUhpwTHbo9fY0n7UJzz4N38oC+KW+qN6/u0IrIrANv0l2dQVrjE6yX0qBYCmgkHcF3KRaPs76SvJIvKR1Df1y/bHpA766P2pnRpEwn5uXwiy/zbIFN+scN+2Ha1t2ldvRrhqoaq3g47IhlDfAqBEr4FpjKS+jaUIeVnBS/lGAarSRFzjjiyan/0+9QlhewTCFaYjwoo1PFjLiqcn8Yc08hYtDyCA/NsRcATWRgBLALDm9R/+LQk0CFk8vIW8VZYHrG2QN+AIOALuL+/QHNiMcNVCsCNc65P/+U0Aca3rjHBFWw+fhaf8dVix/ZGIqxXpPeyHs+7Q3POhOgKOgCPgCDgCjoAjsAiBDQjXGtEsPUdhyR9+mo+4VlELQVrXxyIy+/RVW5/6sqOseS9by5recJDaefoMD2cZwtdaZkAd+bcj4Ag4Ao6AI+AIOAKOwF4RWF24UlQ1PqGvfkBAR2DZUgG67R+F40jENcLDhCsTo6b47K1z5TA39qW3IpjrY3k9TzsCjoAj4Ag4Ao6AI+AI7A2BhcI1CcgkGOs7WBvB1wjD/FaAh/XXrabWuLZRVCZcOVSxnxqd5btSOkdY45rYvDzhiNa4tuPxHEfAEXAEHAFHwBFwBO4uAuPCNUc6mx8VUO9DBZRVlGZgDYFZy+g1rpZIbfNiffqp2Gxb85YCigp/jT4ehZev8kNdB/we17s7FX3kjoAj4Ag4Ao6AI+AITCMwLlx1O0UU0o4kLun2fRW4+b2r+UcH0jte0/rS9HoqWS/V11FUJlxJpFrrUaNN7JVYKBv7TfWjTVTGWuMa31zwNQ3Ivx0BR8ARcAQcAUfAEXAEDgiB1YXrAQ3CTXEEHAFHwBFwBBwBR8ARuP0IuHC9/cfYR+gIOAKOgCPgCDgCjsCtQMCF6604jD4IR8ARcAQcAUfAEXAEbj8CLlxv/zH2EToCjoAj4Ag4Ao6AI3ArEHDheisO43ENQv7u8Xq2o62Tq/Xa8NqOgCMQQv+32Jejc3Xa/93y5a15DUfAETgOBK7Dyf2zsG2X7ML1OGbDhq18E84f58l1cxkePb4MNxM9dJ0Q6t5/EE6u0N6DcO++9WdNYpSvjg3ic7wuN3Q3JOE9etoRuL0ISD5ByJq8nDlfhIFzyu3F0EfmCNw+BBYFiK7Owr3T6wwCzin2eeTRxZuVgXLhujJ026/4zTffhuvffRE++dmL8PT5B/EPaeRh38ofTKzOZLp3PwtKNvm4cBUiszgwJoSFUTJf1C39k4C9DielPTQinWhttk8EPSaPxFbUPLU5BIiXH370SfjB6fPN8TKkqCefx72TuyUqzbIm14lzCROrrXsUNYEILU4ohK4ozRex3HY7Lfve3FHxlu46AsTLjfvLDKzpvzg3jAPQcEv4OF6h5+9QRvs8KxhEbU21gzJtkKn6Sd0PcVXnSyGa6nfKZHy08MW2eb6iYcx8u3CdAWhfu//0+s/h/R99GB0jnKP+wz6UWf6R0c6uI+oI19If25/IYJFJCtdS10wsEK5d8teGNVHqHk85Aqsj8Iev/hiFquYjba/HywcsUpFshOOrjiULR1z0NRzIjkPnR+GquJnFrGi3B8kS4TrjxNEFvwjuden5jsBSBLbnL2FJh1vlQpMEHrOaLuQ0J5AvOMoFn+JpbC7t5yIvCWhddq4dNg5tEzPbSvY5iz61HVYLIWh/7MLVxumoc0FCcoQf//RFFKi4msQf9iGP9i8Wr9lp2dGQfCUFYjFhak5ctn9cuHJypb4qIRcI1xKtlVd+ekxDjvmoZ4obv0sEOC9fnL8MELGb5eWcE8j86TqeHE3h+yPf23ZjJIjKkZNlvCrcWSJcWX3NxbptOPldHkTv69YhwHm5cX9JEUriioFeFJJcjGY+FQ4ZdVJW4nP0gR2eNm3ntsBf4Tvv5+1OO6gmON+1Se6QAhP2En9VAAzX1M2Sv3rewT6Oh2xX9jmy5RHXEZR2WAaOkCKtv/rNb7s9Yx/EK8qizsqf5gowt8SEaRWu2TEqB/Xo4nrhGlfL2gXClZ8krKYyiThROsU82xEYQmDbvEwn/XqiN42acEqlfHSa5FzgrbAsqG039jfAo3hHhjvt3vkC+bxcMUgm6rlE5vuWI7AKAtvmZeIP45NpZBKg5G9WEYg9nvbaivy1+Nbhe4oaz4wj1pXBIBpTPA9AtF6l51rqGlYTkCYT9pa2sn+uwrspPpvhwnUWot0W+Pz6iyhIceU496HIK+os+SQnKSdojYhkJ4dJnIlhOZvUxgwRlhiF2zHCkeJk0DrccttGiedqfx0XJ8oiU7ywI6AQ2Dovo+DkURRlwHDERDrRpQ6x6VUL0inhOsDJsoa+6cgzHIHlCGybl9HPCb9k2ZgCOkmIKf5Zxa28juCMwtXov2tXp53eecAyhecVraBtYCJ3RICiHe6PsT1Sj9vC0y5cORoHkCYxOrIEgG6RjIhcPjQxiYQjAgGzWMyONAlCLSDfxLVq9x4/mYiyJAKjfp2gNY+EZi9ae3KFsrpfjEILXD6ymhZjrNmecgRWQmAXvEzOBRde1gUhd45TQ1DlDEcGbog+BNfThV/iX70ITHzNERftxGAO2rAiQMpU6yJYFfFNR2AYgW3zshfx1AaWcpFLFn91DbVt8DSWyNysPpTuoljr3Glf6zcj58FbxXXRbjGp9dPkr/k3F6Koms4r/JxxFq6YwC11H1+GKxeuBe1bkfjh8w9ixHXk9j/KYLkA3jiw8gcTuTgiJlynGry6DOcXKSIbHRHdPlARF5rYNzcjr73QgtSF69Qh8H27RWB3vEzCM53kuQNSgrQ7fFWu4zimXn8nmsb5gQtScb5gJXU5tosnXbhyNDy9LgLb5mURpDOGlnLggXnhOdeAvaQn1VJCEv4avC5+m7XdEcBFVIo6qd1WvGpfzNrPSYyX/Hu7t81B/7w8ttt+23q9HI+49pDZU/4qRESd4Y/lyJTgLFdGPL84rzfh/JQ9vHVzGc7F24YHxW9jsCbLhHDldk2kOVGa7jzDEViAwNZ52dhCArZGb4pzbMryjOSMytzvODJeYzKtBemUcJ3gYj2n1PFM9us7HYEBBLbNyyj4hNizjOIXi4p/VnErbyFPo13FJ7MGO+3E8tYdTLN8GkPlLI+i1nQ5x7Due0n0z8tj24VrD60jzN/2rQ8TEj55kRZElYKyTECUs4gTn8LkkSLeY0uIOnllP2kta68d3ma6PVLbUft80xHYAAJ74aVa19p1Pnx8MeLDeMO5zcvxdKxTHRIcVnEyo8KVt5fT5Vxh7PMsR2ATCGydlyP8ya/LSpzJF5ymb5wY8VA/tT4uYk2f12sH+cKv57bM8toX134pZUVc0/mJn0fqeUifC7Bt2k8dzHx7xHUGoF3vpsXmeIny3IdIu/ThLGo3RnAQJVEkK5OymdQ52ooGsI/qxXJ8wsp0naAQrnIyi32CWDVye3Va69Q1rthfozeSGLUujdW/HYF1ENglL7md0RkQz7KDrJzhJZE2nGbDYV0nr09l3Cv8R1EtXMsac3YuEOUkx+XSgHmHaFjnWY5AF4Ht89LglLIm+lHGn7RWvfomVdzeHOEp1dQXp5SP7147sY5hE8pz22NbbYDJir6Wi9vcvxSj8jwg/TMLNt1chpMVfkHLhSs/6AeQxrrV9/IPD/x64HVYKDuyHrYMLU7gJCzTT7VyUUil5skqhCtVi99TorGdzNUJa6eGdkA0nk956IinkwFJ4FL563BSHL4w0DccgcUIbJuXUqBm8zJXhYMg/jZzOzsb7YR6jowjgDZZvVnhiotP1Ck2cF7zNDrJApfKr+iouLmedgQIgW3zMvXT4RZdKBprWiOfxYPJ2WJTKE4IznKhmOtn/le/SUiw9llwiO9tBHZuS5xfYgXyoby2TItzRN61VLgi8NUIWtlNd8uFaxea/e2gtwXgwStEXl+/vikvOkcaeSv/AIEYFonMTExFtDjROyRYXbhORGOZ84SZkRwXdEWmharezgMjB5mfcmxJKQDwDUdgGAHOy19cfBa+Yj9AsBFeRpHJ+WFESLK1iZu8LLu9z0c0KlzV+tTCG8an1Gzm3cVZXk6ghareJoPPyq1BGYXlxnraEViOAOflNv2lxbly19E0u/rVErEsF3uoYOwnHnJfKM4L1jlhsJ3sU4stfEmQsH+iPbLPqEtivbZfg2KNQMV55fFlOBd3U4URkxsuXCfh2d9OkJEiryRS+Tf2ocx6H5qgFhmo5VSmucIDmSIJqQ3pROvkRT5NYJSldHp9Rm3XuMqLhO3b1hIl2VCcbrwirv3RiPzbEVgVAXCOHgjhfKT0Zni5qnUr1stOhN40EC8Y6YHLRrjSa2/6vDIdvIhKGVxf0XSv5ggAgd34y4p1muN9DtSSR5QC15kwTT5c+V8hoqW/hT8W/lz5+uqXgQkugNtliqNouXAdRWoP5XAbBGt4sJYVzhJ/SCNv0fKAPdjuXToCtxUB4uWPP/o43vlwXt7WI+3jOiYEiJe78ZdZePHI6DGBdeS2unA98gPo5jsCjoAj4Ag4Ao7ArhGgu40qKrlrM+5gfy5c7+BB9yE7Ao6AI+AIOAKOgCNwjAi4cD3Go+Y2OwKOgCPgCDgCjoAjcAcRcOF6Bw+6D9kRcAQcAUfAEXAEHIFjRMCF6zEeNbfZEXAEHAFHwBFwBByBO4iAC9c7eNB9yI6AI+AIOAKOgCPgCBwjAi5cj/Gouc2OgCPgCDgCjoAj4AjcQQRcuN7Bg+5DdgQcAUfAEXAEHAFH4BgRcOF6jEfNbXYEHAFHwBFwBBwBR+AOIuDC9Q4edB+yI+AIOAKOgCPgCDgCx4iAC9djPGq31mb8jN66v0JCv2byIMjfRj5c0MRvw69p5tXpuvitaYBXv6MIgHe37Lfb7+iR9GEfOgKb5Np1ODnCn6114Xroc/RO2dcKV4i6e/eNP062qzNWhjvP/HvSTX0l7kR9o6+mPhPFi+uqvuPxlSeioTFb8+LmMjziuFhlPO9IEKgXYJj/Yxdhch6JgWJurCAsby6eDPYdQgAXTq9zt9J+zuFHF2+Eab7hCDgCCxHYENfA72PkowvXhfPl+IsnMScmqym+LIGVRm8JK9FeA5IhIIuD44Ut4WrZoa4Sr85mycejmk1UUpwEmD1w9qadrMxA36x04H1bON4jcaH77onSKEhGxLaFI7fM04eHQObD1ajo7AnXlH9y+qDDEy0yaa7ofDnPkpjulMm80cL3WB3l4c0Nt2j3CCQeXXU6ludz4hAVNnxgDIiMBFrownUzXAMH+YVkN33AQRAXrjSvDvD7m2++Dde/+yJ88rMX4enzD+If0sjDvtU+iUBCaEbhygmUoyc60kMiqRFzRErVBgzMolj0R/nUDrUrIpuJ+Fzo1fFOCVfYou2QeU2bHeHalKsG1FRHuGqHTRWG2kRhYEL40LZ1ItHlqCP1PdyvquebLQLEyw8/+iT84PT5hnip+0mcKpHWyBHtDHUdw7GqenCuDRd1M3m7P2eMfjptaB64cO0A5dlrI0C83Ky/hFlcMGrfksyOopWdn5M45HxNfJ7m3kiZPkyjXNPl7BaVj7UL7S3XheveoJ/u+E+v/xze/9GH0THCOeo/7EOZ5R+DHJZwhebEbfoinhJ5p4gny5No5eSdsxa2yfK281Sk0uLx5jKc8NuRQtyhD3XyYcI1nXBkZElfkRYxgeHovvMQeycHMZ4oKmRfpW1hcxay7MRYkDTa0PambYlrqe+JRQj84as/RqGq+Ujbq/OSmZGPaZkLZVfiYJufOM2PO8pMz2XFgdJHSqBu5Tr6pfnTcrTtp7ateSDbVZ36piOwIgLb85fM73X8ZAwyFH7QADIni/9M25VTVI5/z5fZBNfaNqQPKucRy99wc/eYduG6R/B7XYOE5Ag//umLKFBxNYk/7EMe7V8uXg1ydAgZJ3ievGmyV4dk2h4dLndw49Gd1B5so/opRwi90umUcE0nmnLLPQvw6uzRhxqHEq5TJxfgUNuqwjWKdhExbk8GaNceTxlYTSwRruXkWKvr1HC/uqJvFwQ4L1+cvwwQsZvjJbpJ3Lw34zDSXFNzGNUj/1J+cxFZRkEJJkYj/+V8LXOcOB2XK/ALWWpn+lvzBdtT/Jpuzfc6Ai0CnJeb95esvwE/yUqnC8fCZcPv8sIxPVKmqVQyRrmmy5UGREL5WLFv/xsuXPd/DIQFcIQUaf3Vb34r9vEN7IN4RVnUGf8Y5OgQkjs/nu73lURjdHrk8G76pds9sG1V4Xodzh/D+ab6RE5816gxejQIqYRrueLsCNHi1NFcJ+LaE4q9/AaLJcK1Y6cch8S16c8zJhHYOi8jB5+E8wv+oKEUk/x4nlwxrpHlsY16sZgEbm4DFzeRk9Tm9HyIvMG8Ko43d5L7gC0jApR4SCZie6QelfdvR2AKga3zknce5357wdj1jaK84Xd52zE9UqapVDJGuVa4Pec3NPdLT/tPuHDd/zEQFnx+/UUUpLhynPtQ5BV1xj8GOQTBUktpcpNzM+qYHbJyRptmFZGJ+tV5QyDaQk+KT2kraxA2ZPJxsjaOE+Vy1BLlmv2sSeyfF64JB1EutyHGI4REEhQkSLhIiWIcES/rRKIFLrOVJ0W/fIenhxDYPi97ZkCgts7SKp2E6lk4z3O0HHOaI/Qd70IQt3lLSQzLuUdCt37rec25leqehavI/1on5j++DFcz/OLWeNoRmENgp7zs+DTwzvQZonzyCZJbmtdWGXnxuAmuNT7MBFn6WLPIHjNduO4RfKtrEqMjSwDoFsmIyK19JXIIonWcTA2WGnVqgyzFygnSsiLdJHOaTKAV5yvqbZhULGoKUgtsRL9p3aBw3KwuFY0nl9PruEZYt2WPh2qybyYyYsxGDfUAAAW8SURBVC62GS6lpC5XdsjEcL+ymm9lBLbPyx7Ug8I1zoOzLHKvw0mcf1mc0hyh7ynhas0xZhqctJj/bJ+V1E5yjl9WG57nCPQQ2CkvOz5tTLi2I0gXmvwCkvnPtvhszijXdDm74Q37WLuTlXNduK4M3XYq/vD5BzHiOnL7H2WwXABvHBj/GOToEJK3GUk2u5Yyic/o2OAkmwXrvEWWjv2DwLCNE3ks4oqWQEZ5NauiPey2SON4mfgcaUfUZ3XjiBSWsT2G27CAZCIjtottS1REnPtjrZhIXBn6nhxAYPu87BkxJlzTvJJlk2PMc2NoqUDib50z9rwS879nds7XThLb+mJupgnf7Qh0EdgpL9W5nYzq+sZOeapHa9orHwzfXAvPpka5Fn0S84ddvlv+ZtaK3RRw4bobnId7WYWIqDP+McgxS7AsDOcmshCryQlWUo5YuJ5w1Q5VExkW4CQzUo6snXW0TLimE4K+/ZPWwdJSBCFcDdFZbMM+Jnjj+sQ5/LPR1rhpPP69GgLb52W2K3LRFozcwZR5Equ9Ceenl+EmvrbHmH/DQ56PsvT4w23jD0bquTjLp2FbvaAjEMLOeAmwO34ynveNc3Mvnx83KXoN38wLmwGayvfVuYZ+azuqy4PcdOF6YIdl+7c+DHJ0CCmhmROiqV0SaKgbiTu4Pi/1hTZkZFAIvWJQ62BTX/MOHw5WOn0jqqvEaBLfrW3RnFg2PRg2JdLppCLGA3HKTnhCFGjhWh4qI5GSwSjldLSN49jiVaD0xBAC2+dlzwx5XHulUn5bFvNOzsu2TG0T++Y5pPkj+5Dt07wvfRC39CvrSgFPOALjCOyUlz0/aeYbfrYZli6jt5sK0adWPq/GtcJJ2F2CI8pHEE9bEw4ix4XrQRyGagQtNsdLlOc+RNptPJxl9g2RBMdWJjuVIofXXrXFK0pDLII8bTutOKT6MqIjF6zDikJGMqmTJ8RhLIs+q93aLmzXE0U6sQjHvZDgawlXXAQUoQrj+YmLp7EvC1wq70KBzYzlye3zsmeTPq69cshXZTNf6/xNPOHbsjXlvOTOuNXyR7cpbWh4mZ1lk2/05VmOwBwCO+WlKVBhYfIL9CAwcqIf4UEbcJEFKUodXia30+fnBrjGxSpPR6PT+8+JmzcXZ+G8Pugydyh2ut+F607hnu8M61bfyz888OuB12Gh7Mh62NpzIpkgR5eQtVZNZZKqyIxorxZOqexAufi0y6NtHik0oqGxxdbBphPFfLSoibiSsMvLCLRdaFfnCecdsRvrN42fjc/ApYhiZlcCMWNzcZYjxlIgNKKFjgET1kI0037/HkJg+7zsmaGPc68c8nnZyqXIDThNzKn8ZD+9Nk62hvrzc7nM0Vy55Z68EBTlsw3np7WMtMG3HIFxBLbPywlOmEKU+GPMb+0rmgCQ7VvhN8gHrcU1LVT1doa9+onWz44fme2WdOG6XXxXap3eFoAHrxB5ff36przoHGnkrf4DBCuZ1KmUiSYI3Ck6mc0Iq9qqJOINtIQCoYWD5MVZWojOTlS2Xg3jJMSEJmunJJkwLHkTCTGe7MTpolbY1ghX4ype9YP6/OKgEcpluYGq6JtDCHBe/uLis/AV+wGCtXmJ4z0gGuXx1XOThGsVrWVgsX3uTBmHzL5V29rpsrso4B45Vime05yVvMxcb5x2sdQTjsAiBDgvD9tfLhqWWXizXOuIcu6DF/o30+gtZLpw3QKom2gSZKTIK4lU/o19KLP/T5787oj2fyjcgq0jAM7RAyGcj5Q+HF5uHQrvwBE4GASOx18eDGRHbYgL1wM+fLgNgjU8WMsKZ4k/pJG3bHnAlgdZIjY8orPlPr15R2BPCBAvf/zRx/HOx8Hyck/4eLeOwD4QIF4evL/cBzi3rE8XrrfsgPpwHAFHwBFwBBwBR8ARuK0IuHC9rUfWx+UIOAKOgCPgCDgCjsAtQ+D/AZCYWaWcGrqZAAAAAElFTkSuQmCC;" parent="1" vertex="1">
                    <mxGeometry x="30" y="-40" width="457.33" height="50" as="geometry"/>
                </mxCell>
                <mxCell id="11" style="edgeStyle=orthogonalEdgeStyle;rounded=0;orthogonalLoop=1;jettySize=auto;html=1;entryX=1.009;entryY=0.208;entryDx=0;entryDy=0;entryPerimeter=0;" parent="1" source="7" edge="1">
                    <mxGeometry relative="1" as="geometry">
                        <mxPoint x="489.95264999999995" y="53.27999999999997" as="targetPoint"/>
                    </mxGeometry>
                </mxCell>
                <mxCell id="7" value="dyn_view" style="text;html=1;align=center;verticalAlign=middle;resizable=0;points=[];autosize=1;" parent="1" vertex="1">
                    <mxGeometry x="534" y="43" width="70" height="20" as="geometry"/>
                </mxCell>
                <mxCell id="13" value="&lt;ul&gt;&lt;li&gt;DataDisplay&lt;/li&gt;&lt;li&gt;Dyn_Query&lt;/li&gt;&lt;li&gt;Dyn_BindingFun&lt;/li&gt;&lt;/ul&gt;" style="text;strokeColor=none;fillColor=none;html=1;whiteSpace=wrap;verticalAlign=middle;overflow=hidden;" parent="1" vertex="1">
                    <mxGeometry x="510" y="63" width="190" height="80" as="geometry"/>
                </mxCell>
                <UserObject label="OperationData.cshtml" link="OperationData.cshtml" id="15">
                    <mxCell style="text;whiteSpace=wrap;html=1;" parent="1" vertex="1">
                        <mxGeometry x="40" y="-81" width="140" height="30" as="geometry"/>
                    </mxCell>
                </UserObject>
                <mxCell id="17" style="edgeStyle=orthogonalEdgeStyle;rounded=0;orthogonalLoop=1;jettySize=auto;html=1;" parent="1" source="16" target="4" edge="1">
                    <mxGeometry relative="1" as="geometry"/>
                </mxCell>
                <mxCell id="16" value="gt-func-main" style="text;whiteSpace=wrap;html=1;" parent="1" vertex="1">
                    <mxGeometry x="524" y="-30" width="90" height="30" as="geometry"/>
                </mxCell>
                <mxCell id="27" value="工作站" style="text;whiteSpace=wrap;html=1;" parent="1" vertex="1">
                    <mxGeometry x="30" y="-150" width="60" height="30" as="geometry"/>
                </mxCell>
                <mxCell id="35" style="edgeStyle=orthogonalEdgeStyle;rounded=0;orthogonalLoop=1;jettySize=auto;html=1;" parent="1" source="28" target="33" edge="1">
                    <mxGeometry relative="1" as="geometry"/>
                </mxCell>
                <mxCell id="28" value="料號流程工作站" style="text;whiteSpace=wrap;html=1;" parent="1" vertex="1">
                    <mxGeometry x="100" y="-150" width="110" height="30" as="geometry"/>
                </mxCell>
                <mxCell id="36" style="edgeStyle=orthogonalEdgeStyle;rounded=0;orthogonalLoop=1;jettySize=auto;html=1;entryX=0.5;entryY=1;entryDx=0;entryDy=0;" parent="1" source="30" target="34" edge="1">
                    <mxGeometry relative="1" as="geometry"/>
                </mxCell>
                <mxCell id="29" value="流程版本工作站" style="text;whiteSpace=wrap;html=1;" parent="1" vertex="1">
                    <mxGeometry x="240" y="-150" width="110" height="30" as="geometry"/>
                </mxCell>
                <mxCell id="31" value="工單流程版本工作站" style="text;whiteSpace=wrap;html=1;" parent="1" vertex="1">
                    <mxGeometry x="510" y="-150" width="130" height="30" as="geometry"/>
                </mxCell>
                <mxCell id="33" value="" style="shape=image;verticalLabelPosition=bottom;labelBackgroundColor=#ffffff;verticalAlign=top;aspect=fixed;imageAspect=0;image=data:image/png,iVBORw0KGgoAAAANSUhEUgAAAUMAAADcCAYAAADqdMMlAAAgAElEQVR4Ae2dT48sx3Ht+QX1PfQJvNLa3mjFpfAALwUYoBfaWBsB9krXC1kEZFGQiEdBvM8PJE3LkmxZVyB92/j1+HSfPjezO6pmptlTHQnUzczIiBN/KjMqa8jOeu9H//e/d106Ah2BjsC9R+C9Tob3PgXa/45AR4AIdDLsedAR6Ah0BDoZ9hzoCHQEOgIPEeidYc+EjkBHoCPQO8OeAx2BjkBH4CECvTPsmdAR6Ah0BK65M3z16u0urw9evd198Or14Xr/g9c7XX13OgIdgY7ANSNQ3hm+fv169+c//3m1bSTCD1//affq9dvTa58QSYrHi4S4tPzFX/5w9/Gvv9yLeXspjvjfe++9na5vf/vbuw8//FBDB7rGDwODhnioEwf27373u/srRVPu888/f0ev89D+1re+lTB7mR/96EcHOjjf+c539nT4f/CDHxzGZg3Xgw9geLmEibzbgKxojn2pjRw2f//733f1ex/ke2KI0ekjH8TndcUv4ea9FV21cNWnrtjxu9/9bvfjH/94zysM1cwdcKhVREu666Xd5d0IlJPhz372s90nn3yy+8Mf/vAuSoHiu8Jj4nvYFWo36HUB8oTFE6C3T5gWdJgwWsDU9JUEfOwSpPMmDhOdcS7aXlzue9/73juLwceRoz9KFM6H/Z4A0UliBP9ccYy0pYLp8tJToY14SIQkES/0lSBHMvA6PX1wLLWX+pX31vUJc40d+PbLX/5yb7/joE/3Dd/1UPPE6Pwze5zn3tulZPj3n/7HjmT49ddf7z799NPdF198sThur16/3r19+3Z4ffXVV7s3b97sr9d/fLt7//0PFuN7AvT2YqD/FcjJ431vX8JPXu8zoZnsXLS9JB99Lz4OnT4LgmSnpC26sEeJRAvNZVxPYoDltlQw09bElL7kyz58aa8eKNBnuElPH/aC8c8av9xebzu00yt2SBY5LyQ93TNqHmqU5JOM6xWt69MIlJLhX/3Tv+6ToURJhiRFkmO1KBnyuq2L5EibHSfjJETalWT4pzdf7f7h1a93SnyqsYf2R7/6/DBO28s//vT1nuev/+Ynu3/5bLzTzclDn9cVSo45draT13GUBElitL24HBM/n/g+jpz62Oi8osNDolRiTF3yzelqO0baUsF0+RHmjDaSgxedspfaYzeTcXr6IP1er/ELHbLL9Tmu0yt2SBY5L7M+dC5iomSJHLTRvXfMe2+vSoYE7be//e0+cVUDqGSYu8PcFVaTIQntb//u53v1JLRMhj/8+1/tx37z//59P/bvv/uvfd/lNPYf//nmHTd88jDB6etVlrZf7wgbYYajHQ6YTFr4tLtB3PH11DfY/bhPbtcDv7Cc7u1zWD52yZYK5oinQoPHL9nFrk2viNR6RUxbkVVxnFE8xacafo/viO481Tmy1A7XqzY1OF6yT0zyoei6XbbbDxFYlQz/+Mc/7j7++OP9Tq4aSCVD7QqpSYTQdfGKTLuyM/Tkhw3e9/aSMffFJw5PWSUXeBgbLRSXV3uGw4L2RYkOaCrSwX+4oa1EnOOj/m9+85vDbkk48HlbcqL7fyDyMY3j78iWCuaIp0Ib8WCPHiSyrbIDEtbIh/RXuKN7DI5iRVtXdY4stUO2IeflUl8+SEZ61e/63QiUkuH/+effHl6Tv/zyy/2OcMkrMmqVDLUzzB0hiXCfDF89TzJkF0g5lyg9POcmz7kxx6A944U+uiTvcjzhPVGOcJ2fcXZM2q1oUUPzBAyfEksmW9mRutKWCiavnL57E6aSinSlD9kXHzWYxIQk5GUm4/T0weXVrvjlmJJTPRtzesUOx1ObmvuohwB13ld40KXiekXr+jQCpWSICP8Bhd3cZ599dopQ7H300Uf7/3iSfyPc7wpfvd69evV6UTLkNVivyXrd9f+1hr8nUjSmV+HRazJ/f6SA98W//ee+fW7ynBvbC9s/I14lKWPb7/zgZYzicuz06HvC8vHkpw8vicL59Dqu5CieTFR7A+wfx0hbKpiZtPCRZJbF9TCWfecHk/G0fSbj9PTBcdWu+OWYklM9G3N6xQ7HU5uae6gHJLXfU8aJCwldxfWK1vVpBMrJ8Be/+MXu97///an0gp6SIQuQix0m/yGG5Mj/f6iLpFh5TSa5kbz0H0F8x0f7pz///yfjbqr+wwvy/h9QrpUMeYr7RJVt7BT0hM/JyxiXSo5nHz4WSNJZgOiAPtqxCd/rxEhbKphKXmChn2STJfXQ98v5lawSx/lpq9BWwoCWPojP60t+JabLPqUd4Lov0oMP0H1e6AHoNMm7TcLo+hiBcjI8iqxr/eQnP90nORJd5VqnpaU6Ah2BjsC6CFwtGa4z7+VI+VNX7Zdj/YOlstvrl+bDUnvdV7WXYjwFv3R7/RS4jVGPQCfDeqyasyPQEdhwBDoZbvjmtmsdgY5APQKdDOuxas6OQEdgwxHoZLjhm9uudQQ6AvUIdDKsx6o5OwIdgQ1HoJPhhm9uu9YR6AjUI9DJsB6r5uwIdAQ2HIFOhhu+ue1aR6AjUI/A1ZKhn3Stdn8DpX6jmrMj0BF43giUkyG/Ie5voDzcDP+VAO1zxXn53Wie1DL7jWzK6be4Ts925fADcNb8Nlm68CF/D3wJE1n/XTDxEk24lRo5nVbjMedQAvmeOOJz+sgH8Xld8Uu4eW9FVy1c9akrdvA7fg62gDfL6LfJooHvv092vbQrZTY3K7IvkaecDPsbKP0NFCY4B0z4wiRh+IEPLF6SrR9EweKbJUNfNMmXfXg58MH1Q6OvE1xGMvA4PX1wG9Re6pcOxUAu9Qkz6RU78E3HrDkO+hRjfNfpPZ4And/9d/qszX1Ehov2PZRSMuxvoJwupiUTK3m9z4RmsnOdSxZaaD4hHQc6fe2QtCBFF/YokWihuYzrSYy0pYKZtiam9CVf9uFLe7Vooc9wk54+7AXjnzV+ub3edminV+yQLHJeSHq6Z9Q8gCjJJxnXK9q5Gttmc/Oc3EseKyXD/gbKwyQbnTV46ebnJKQvHCVBkhhtLy43el3xceTUB9t3B6LDww6OSZ4FHtmUY/QdI22pYLq88Cu0EQ/y6JS91B67mYzT0wfZ5PUav9Ahu1yf4zq9YodkkfMy60PnIiZKlshBG917x/T2ubnpfFtqr0qGBKC/gXI8a+/chPBJyEKhz25GOxzaTFro2t2AR1+XnvquhzGf3N6HX1hO9/Y5LB+7ZEsFc8RTocHjl+xi16ZXRGq9IqatyKo4ziie4lMNv8d3RHcev7fwuj7aKk6v2OFyalM75qhPTPKh6LodK9uX5mbyb6W/Khn2N1DGC2U0KXwC8rRVkmJB+2JgDJoKcizG2Tc7NJ789DmUFDyK83lbcuLJ/7CT4zNbKpgjngptxINdWqyyvbIDEtYsnu6vcGfJULECU5ff20vys1imDd5Hj5dLfXidh/bIH8dU+9LcFN/W6lIy7G+gnN72JRNrxgt9dEmTy/GE90QJj4+P+uyYtFvRIoDmCRg5JZZzfyR3XWlLBZNXTt+9yV4lFfoU1zPqP3A9/AsmMVHS11hijOjpg3i8rvg10wXObMzpFTtkE3JeuI96CFDnfZUNknG9os1qeEfXjH8r9FIyxNn+Bsrxli+dWEpGQlCSUp9a/yGAMYrrYKdH3xOWjye/8EgUzqfXcdkDHjyZqPYG2D+OkbZUMDNp4SPJLIvrYSz7zg8m42n7TMbp6YPjql3xyzElp3o25vSKHY6nNjX3UA9Iar+njBMXErqK6xVtVFfm5khuC7RyMuxvoBxvd3ViITHi5SnuE1XI7BT0hE85xrhUcjz78LFAks4CRAf00Y5N+F4nRtpSwVTyAgv9JJssqYe+X86vZJU4zk9bhbYSBrT0QXxeX/IrMV32Ke0A132RHnyA7vNCD0CnSd5tEkbWlbmZMlvpl5PhYx3ub6A8NoIt3xHoCDxnBK6WDJ/TiVvA9qeu2rdg1xIbZLfXS+RfIq/7qvY34Yd0e/3cdrgutZ9b5y3jdzK85bvTtnUEOgJXi0Anw6uFuhV1BDoCtxyBToa3fHfato5AR+BqEehkeLVQt6KOQEfgliPQyfCW707b1hHoCFwtAp0MrxbqVtQR6AjccgQ6Gd7y3WnbOgIdgatFoJPh1ULdijoCHYFbjsDVkqG+e+J1fwPllqdG29YRuK8IlJNhfwPlw8PM0P+tr/owMGiIh5rfjeZJLbPfyKacfovr9GxXDj8AZ81vk6ULH/L3wJcwkfXfBRMm0YRbqZHTaTUeag4lkO+JIz6nj3wQn9cVv4Sb91Z01cJVn7piB4dpcHgCvFlGv00+x8/cAwfdOhAkMb0/m5vOs6V2ORn2N1D6GyhMfA6Y8IVJwvADH1iM+WN/Ft8sGfpiSr7sw8uBD64fGn2d4DKSgcfp6YPboPZSv3QoBnKpT5hJr9iBbzpmzXH8pBra8n/Gr0MnuD+VAh8x46rKVHBvmaeUDPsbKKeLyRfWpZubvN5nATF5uc4lCy001+U40Olrh6QFKbqwWTDo8qKF5jI+nhhpSwUzbU1M6Uu+7MOX9mrRQp/hJj192AvGP2v8cnu97dBOr9ghWeS8eJ8Y5H31ceTwRzFynFkb22Zzcybz0umlZNjfQHlINnq18Al9aQIkL33hKAmSxEaTmQlJGb2ujHDhBxt+FedjBydMjVO7TU5X2zHSlgqmy48wZ7SRHLzoVAypPXYzGaenD9Lv9Rq/0CG7XJ/jOr1ih2SR87K0r7mGHO1zDz/0iH80N92OLbVXJUMC0N9AOZ61d25C+ORnodDnSa4dDm0mJnR/ctPXxWtnFsY8sXkffmE53duON6OLh3FdactM1unedky3H3ry0fdLsuxydB4kNQtWxflpqzg9fRCP1/CnfYw73dt+b8XnOoXttIodLqc2NYlU9lGD62XUJ24UbEV+Vi7NzZncS6evSob9DZTxQhlNBp/8PG2VpJiYvhgY02QFBzkmOX/0pk3S9KJx0bzP34fAozjd25ITT/6HnRyf2VLBHPFUaCMe7NJile2+y5nJiD6Lp/srXCUbHwNHsaKty+/tJflZLF1PttHjBZ/RCR08drJekv9S32UvzU3n3VK7lAz7Gyint1wT8JQ67s14oY8uobgcT3FPlPD4+KjPjkm7FS1qaJ6AkVNiyWQrOxI7balgslB99yZMJRXpuuST+KjBJCZK+hpLjBE9fRCP1xW/ZrrAmY05vWKHbEJuVnj4Ya+X5CdOfo9zPGUZz8t5ttguJUMc72+gHG8/k0QJ5kgdt0a8SlIuwUSFlzGKyzHZ6edkdhucH3l4fecATa/jkhNPJqq9AfaPY6ctFcxMWviYOxnUuZ5R30zaJ0L40/bEkIzT0wfxeF3xyzFdlvZszOkVO4SL3KhwD3nAgeUl+bnneqB622VoV+ZmymylX06G/Q2U4y33CX2kjlsjXiZvPsmRZqegnVvKMcalkuPZh49Jn3QWDTqgj3Zswvc6MdKWCiYLERwu9JNssqQe8at2fiWrxBGvasnQ10MAWvogPq8v+ZWYLiv9qjWWMhU7kEXOi5IW9zB32CN+aOgCh3pWKnNzJvvS6eVk+FhH+xsoj41gy3cEOgLPGYGrJcPndOIWsLUD8PoW7Fpig9uu9hL5l8grP73+Jvxw/Wo/tx3S4/Vz67xl/E6Gt3x32raOQEfgahHoZHi1ULeijkBH4JYj0Mnwlu9O29YR6AhcLQKdDK8W6lbUEegI3HIEOhne8t1p2zoCHYGrRaCT4dVC3Yo6Ah2BW45AJ8NbvjttW0egI3C1CHQyvFqoW1FHoCNwyxG4WjL0b5+o3d9AueWp0bZ1BO4rAuVk2N9A6W+g8EsFDn/I3wPTP/d7Z+T8d8EsMdH81w+X2sjptBpfphzWoIMfEkN8Th/5ID6vK34JF0z/jbDoqoWrPnXVDmTP/YaZk4fAEqbbgSz0jL/s6foYgXIy7G+g9DdQmDYcMMHCUyFh+IEPOkXFD6IYLcYKbcSTJ+BgB/boRJaRDDxOTx/ki9dL/dKhGMilPsddageyxBQ5LtpeZKdOraHmfqgPr+t02W6fRqCUDPsbKKcTasnkSl7vs4BYyFz55E4++l58HDp97ZC0IEUX9iiR6DxDl3E9iaFFL54KZtqamMJKvuzDl/YqUUCf4SY9fdgLxj9r/HJ7ve3QTq/YgSx8s3lCYtexb9LDzvDSw0i8XR8jUEqG/Q2Uh2SjSecT+hjKcSt56QtHSZAkRtuLy41ekXwcOfXB9iOaRIeHHQMLKws8sinH6DtG2lLBdHnhV2gjHuTRKXupPXYzGaenD7LJ6zV+oUN2uT7HdXrFDmTPzRPszN0iMuhRcZ2idf1uBFYlQ2D6GyjHk4DfDeuR4hORhUKfyasdDm12ZdC1u0Gavi7+HpeFMU9s3odfWE73tuPN6OJhXFfaMpN1urcd0+2Hnnz0/ZIsuzbtfKj9gFfnp63i9PRBPF7Dn/Yx7nRv+70Vn+sUttMqdlTmibC9Ro+K2yla1+9GYFUy7G+gjBfKu+E9TWo84ZWkWNC+GBiDpqIJzCsP7Xz6azz56fP3Iu2WnM/bkqOGnn90z3ESw8iWCuaIp0Ib8WCXEoRs91f8mYzoIx/cV7XFr75q6IoVbV1+b+E9Jz+LpXR4XZknOTekXzgzWzTe9UMESsmwv4FyOl2WTK4ZL/TRJU0ux+uUJ0p4fHzU19+SnA+aJ2DklFhGC6piSwWTVznfvcleJZWRHvGMdmeMgUlMlPRnGCP6KJ7iU13xy2MrOdWzMadX7IB/dEkPdmYc6UNXcZ2idf1uBErJELH+BsoxeEsm14hXr1RHxON/MRz9zYmdHjiesBI3+/CSKJyu13ElGPFkonK7aDtG2lLBzKSFjySzLK4n9SYvmPCn7YkhOaenD+LxuuKXY7os7dmY0y/ZUZknYBBLakr2z9myF+h/DhEoJ8P+BsohZtOJfuQ4tnzyi8ruzJ/corNT0M4t5RjjUsnx7MNH0ks6iwUd0Ec7NuF7nRhpSwVTyQss9PurrXSlHvp+iY9aySpxnJ+2Cm09BKClD+Lz+pJfiemyT2FHZZ6gk929HnzcU9r54HR73M5uHyNQToZHkXWt/gbKuri1VEdgaQS0887X56U498Z/tWS49cD6k1ftl+az7Pb6pfmw1F73Ve2lGE/BL91ePwVuY9Qj0MmwHqvm7Ah0BDYcgU6GG7657VpHoCNQj0Anw3qsmrMj0BHYcAQ6GW745rZrHYGOQD0CnQzrsWrOjkBHYMMR6GS44ZvbrnUEOgL1CHQyrMeqOTsCHYENR6CT4YZvbrvWEegI1CNwtWSo75543d9Aqd+o5uwIdASeNwLlZNjfQOlvoPDrCH73mr8Hpn/u987I+e+CmdKi+S8uLrWR47e3/M7ZC4c1QKckhvicPvJBfF5X/BIumP7zN9FVC1d96qodyOZvqR1nTXuJbtm+9bqcDPsbKP0NFBYDB0ywkFRIGH7gAwcE5AEDLNZZMhQOdfJlH548AQca9ihBjmQSO31gPMtSv3QoBnKUp7IDLGIKHpcfwCCbK7rSpkoMhH8vdSkZ9jdQTif3bPKNJk3yep8FxELmOpcstNAc33Gg09cOSQtSdGGPEonOM3QZ15MYaUsFM21NTOlLvuzDl/YqUUCf4SY9fdgLxj9r/HJ7ve3QTq/YgSx8s3nCuGPOdCVfVbfjbb1dSob9DZSHCTc6a/DSBMmJSl84SoIkMdpeXC5fkeDzce+DDb+K87GDYxFkcZtyjL5jpC0VTJcXfoU24kEenYohtcduJuP09EE2eb3GL3TILtfnuE6v2IHsuXnCuGPOdCVfVbfjbb29KhkSlP4GyvGsvXOTxCcqC4U+uxntcGizK4Ou3Q149HXx2pmFMU9s3odfWE73tuPN6OJhXFfaMpN1urcd0+2Hnnz0/ZIsuzadB0ntB7w6P20Vp6cP4vEa/rSPcad72++t+FynsJ1WsePSPJGuS7aKT/orumXzvdSrkmF/A2W8UEaTRpOPmie8khQL2ickY9BU4GeC80d52vm3Io0nP30OJdVuyfm8LTlq6P7Hfx/T+MyWCuaIp0Ib8WCPEoRs81f8mYzos3jOfB7RFSswdfm9lV3nElTVjkvzpKJLPiyNgeTupS4lw/4Gyul00KQ6pY57M14toqyF4nK80niihMfHR312TNqtaFFC8wSMnBJLJlvZkdhpSwWTV07fvQlTSUW6LvkkPmowiYmSvsYSY0RPH8TjdcWvmS5wZmNOr9gB/+hyWx3zHN35Krod6x7apWRIIPobKMfp4JPqSB23RrxKUi5BMoKXMYrLsdOj7wnLx5OfPrwkCufT67iSo3gyUe0NsH8cI22pYGbSwkeSWRbXw1j2nR9MxtP2mYzT0wfHVbvil2NKTvVszOmX7KjME/Q5pvSP6M53Sbfj3Eu7nAz7GyjHKeGT6kgdt0a87M7YeWThaa2dW8oxxqWS49mHj6SXdBYBOqCPdmzC9zox0pYKppIXWOj3V1vpSj30/RIftZJV4jg/bRXaeghASx/E5/UlvxLTZZ/Cjso8QefMjqRnvxID92nr7XIyfGwg+hsoj41gy3cEOgLPGYGrJcPndOIWsHMnQP+llS34sDTmt+LzrdixNH5b4u9kuKW72b50BDoCqyPQyXB16FqwI9AR2FIEOhlu6W62Lx2BjsDqCHQyXB26FuwIdAS2FIFOhlu6m+1LR6AjsDoCnQxXh64FOwIdgS1FoJPhlu5m+9IR6AisjkAnw9Wha8GOQEdgSxG4WjL0b5+o3d9A2dJUal86Ai87AuVk2N9A6W+g8CsJDn/I3wPTP/d7Z+T8d8EsGdFGv7yY0ZDTaTW+7DisQQc/pKz4nD7yQXxeV/wSLph+Co/oqoWrPnXVDmSJH/yS01FwjFXsVHxkBzVYui9pl+jOv/V2ORn2N1D6GygsBg6YYFGqsBD9wAdOwskDBnzRSa5CG/HkCTjgYQ90ykgm6enDXjD+WeoXyQPdyKU+h3b7KnYgSzy5ODiCQoyVrKp2jh4ibou3dUCFHwziPmy1XUqG/Q2U00XmE+fSxEhe7zOhWchcmtzCSz76XnwcOn3tkLQgRRf2KJHoPEOXcT2JAZbbUsFMWxNT+pIv+/ClvSQG+LRTGsmkvvRB+r1e45fr9rbjOr1iBzyjXZ0wq3ZemhtuF9gZZ+nbcl1Khv0NlIdkMzpr8NLkyElGXzhKgkxU2l5cbnTUko8jpz7Y/kQXHR4WFYsrCzyyKcfoO0baUsF0eeFXaCMe5NEpe6k9djMZp6cPssnrNX6hQ3a5Psd1esUOfGN+zMoSO7FtNjfcLulyf0Tbcr0qGRKQ/gbK8ay9cxPEJxmTkT67GT15abMrg67dDXj0dfGKlIUxT2zeh19YTve2483o4mFcV9oyk3W6tx3T7YeefPT9kiy7IZ0HSe3Jwvlpqzg9fRCP1/CnfYw73dt+b8XnOoXttMfY4XhL7FwyN9w/6dtyvSoZ9jdQxgtlNFF88vOUV5JiQftiYAyaiibi7FsZGk9++vzNR7sl5/O25Kih+x//fUzjLLiRLRXMEU+FNuLBHj1IZJu/4s9kRB/5kP4Kd5ZkFCswdfm9vSQ/i+XIDnZ+nuyTR36N6G6nfFkyN8AWRuJvsV9Khv0NlNNbP5uAp1wPvRkv9NElDJfj1cYTJTw+PuqzY9JuRQsBmidg5JRY2KHOiutKWyqYowUNZi401zPyye0Dk5go6WssMUb09EE8Xlf8mukCZzbm9Kod6eNj7RzNDbcLfO4NtHPzwu3YQruUDHG0v4FyvN05cY4j77ZGvEpSzs2kg5cxisvxNKfvE9PHk58+vCwi59PruJKjeM7tPBI7balgZtLCR5JZFrc19SYvmPCn7YkhOaenD+LxuuKXY7os7dmY0yt2cI+IFYlT959a93CNnbrvbou3sQud0pG+bbVfTob9DZTjFPCJc6SOWyNedmc8nbMw4bVzSznGuFRyPPvwMZmTzkRHB3QmfCYT4XudGGlLBVPJCyz0s4izpB76fjm/kkDiOD9tFdq+uNMH8Xl9ya/EdNmntAMfmS/CxHb3e42dOTeETc390Z9z3Kett8vJ8LGB6G+gPDaCLd8R6Ag8ZwSulgyf04lbwPYnq9q3YNcSG2S310vkXyKv+6r2N+GHdHv9Tdhxzzo7Gd7z3W/fOwIdgUMEOhkeQtGNjkBH4J4j0Mnwnu9++94R6AgcItDJ8BCKbnQEOgL3HIFOhvd899v3jkBH4BCBToaHUHSjI9ARuOcIdDK857vfvncEOgKHCHQyPISiGx2BjsA9R+BqyVDfPfG6v4Fyz1Ovfe8I3FYEysmwv4HS30Dh1xEc/uC/i2U60z/3e2fk/HfByIjmv7i41EaO31PzO2cv/L4aOiUxxOf0kQ/i87ril3DB9FN4RFctXPWpK3Yk/yiOzjPSw7iK8zpd4+BjF2PUOtUo5dRPe4TzEutyMuxvoFz+vsVoAjBpNGGo6SuZcHqIJpVOJBGGy/EjfSamFx+HTn+UKJwPvX44AzpJYqNDI2a60pYKptsg3AptxJMn4IBHbJQgRzKKj+5D+iCbvF7qV97bp7LDcXQgw7kDO+SDy4lGPaMzxlzgQg+F+aGY7QkX5MXzUutSMuxvoJxOonMTKidC8nqficZC5jo36bTQHNtxoNPXDknJVnRhjxKJnvwu43oSI22pYKatiSl9yZd9+NJePVB0yspIJvWlD9Lv9Rq/XLe3HdfpFTucH5z0P8elaykdW7S7FsaonuGOeF8arZQM+xsoD8lmdNbgpRuek4e+cJQESWK0vbjc6LgpH0dOfbBnOwcmO5M+i9uUY45NO22pYMo2x67QRjxgoFMxpPbYzWScnj64XWqv8Qsdssv1CZPa6RU7nF84S/VILvU7nRiuOc7NMV56e1UyxOn+BsrxrL1zk8AnMwuFPrsZPeFpsyuDrt0NePR18eqShQt7TeEAABTVSURBVDFPbN6HX1hO97bjzejiYVxX2jKTdbq3HdPth5589P2SLLs2vdpT+yJ2ftoqTk8fxOM1/Gkf4073tt9b8blOYTttrR2u1/Foq6yhj/wVnmrXLdpW6lXJsL+BMl4oo0nhk5Knr5IUC9oXA2PQVDTpZsevazz56fM3H+2WnM/bkqOG7n/89zGNs1BGtlQwRzwV2ogHe/QgkW3+ij+TEX3kQ/or3FFyAEexoq3L7+0l+Vksq3akDTM7l9DZCftDZWTLOb9m/C+JXkqG/Q2U01vKZBxNtFOuh96MV4soa2G4HK9Tnijh8fFRnx2TdiuyFZonYOSUWNihzorrSlsqmKOFBqaSivS6HmjZFx81mMRESV9jMxmnpw+S9bril2O6LO3ZmNMrdjg/uJnMc1x2LKXjb8ZSWF7PcJ3npbZLyRDn+hsox1u8ZEKMeJWkjogP/+UOXsYoLsdOj74nLB9PfvrwMrmdT6/jSo7iubQjcIy0pYKZSQsfSWZZXM/IJ+cHE/60PTEk4/T0QTxeV/xyTJelPRtzesWO5Cduun9VPW6b4zmduQA2CVrzjNp1ndPnWC+1XU6G/Q2U4y2eTagjx7E14mV3xpM4CxNRO7eUY4xLJcezDx8TOeksQHRAZ/JnMhG+14mRtlQwlbzAQr+/2kpX6qHvl/iolawSx/lpq9D2hZ0+iM/rS34lpss+lR2OQ9z0Zxbp8nHaKrTdX6e7jOjUxJJ5qXFiNIrvCNdxXmq7nAwf62B/A+WxEWz5jkBH4DkjcLVk+JxO3AK2nqZe34JdS2xw29VeIv8SeeWn19+EH65f7W/CjnvW2cnwnu9++94R6AgcItDJ8BCKbnQEOgL3HIFOhvd899v3jkBH4BCBToaHUHSjI9ARuOcIdDK857vfvncEOgKHCHQyPISiGx2BjsA9R6CT4T3f/fa9I9AROESgk+EhFN3oCHQE7jkCV0uG/u0TtfsbKPc89dr3jsBtRaCcDPsbKP0NFH4ZweEP+XtV+ud+74xc/p5VNP3aolKzdPg9Nb9z9sLvq6FTEkd8Th/5ID6vK34JF0w/hUd01cJVn7pih/PTVnE6OBlf8UFnXPryt83i63q3KyfD/gbK8dslTKzZ5MtJ5bzI0Fcy4VQQ+lw6KUTyLjc6XsnHkaE/ShTOh14/nAGdJLHRoRGyQ9jyN22pYLoNwq3QRjx5Ag54LHYlyJHMJR9kk9dL/cp7+1R2VHB0oIQf5IEv3FsuximjU2jc53tvl5JhfwPl9Eim2QQdTabk9T4LiIU8erInH30vPg6dvnZISraiK5GNEonOM3QZ15MYWvTiqWCmrYkprOTLPnxprx4o2vGMZFJf+iD9Xq/xy3V723GdXrHD+Wc40DMuYGu37HLdnkeglAz7GygPyWZ01uA8tA8jOZnpC0dJkCRG24vLjY6b8nHk1Afbdwiiw8PiYJFkgUc25Rh9x0hbKpguL/wKbcSDPDplL7XHbibj9PRBNnm9xi90yC7X57hOr9jh/DMc0V0/MakczybZrouvyZkMCVx/A+V41t65ieSTmYVCn92MnuS02ZVB1+4GPPq6eNXJwpgnNu/DLyyne9vxZnTxMK4rbZnJOt3bjun2Q08++n5Jll2bXu2pfdE7P20Vp6cP4vEa/rSPcad72++t+FynsJ1WtcNlHCftc3u8LZmuz0dg1c6wv4EyXiijUPtE5mmtJMWC9sXAGDQVTeY85j3HR33+RqTdknDg87bkRPc//vuYxll4I1sqmCOeCm3Egz16kMg2f8WfyYg+8iH9FW4mG9EVKzB1+b0V30x+FsuldiQ+tsg2drb+kBhhN+00AqVk2N9AiaBNdg2nXA89LcIc0yLKWnwux+uUJ0p4fHzUZ8ek3YoWDTRPwMgpsbBDnRXXlbZUMEcLE0wtXOl1PdCyLz5qMImJkr7GZjJOTx8k63XFL8d0WdqzMadX7HB+15H0TPLYn7Fx+W6/G4FSMkSsv4FyDF5OxOPIu60Rr5KUc+s/BDBGcTl2evQ9Yfl48tOHl8XgfHodV3IUz6UdhGOkLRXMTFr4SDLL4npGPjk/mPCn7YkhGaenD+LxuuKXY7os7dmY0yt2OL/rcDo4xFP3FT7uLTQSruYNtfM4XreLfzMkUP0NlON08Yl4pI5bI152Zzy5szBxtXNLOca4VHI8+/Ax8ZPOwkEHdBZLJhPhe50YaUsFU8kLLPT7q610pR76fomPWskqcZyftgptTwTpg/i8vuRXYrrsU9lxDkdjxFN/fnEbiA3zTHz4nPFy/ntvl3eGjw1UfwPlsRFs+Y5AR+A5I3C1ZPicTtwCtp6+Xt+CXUtscNvVXiL/Ennlp9ffhB+uX+1vwo571tnJ8J7vfvveEegIHCLQyfAQim50BDoC9xyBTob3fPfb945AR+AQgU6Gh1B0oyPQEbjnCHQyvOe73753BDoChwh0MjyEohsdgY7APUegk+E93/32vSPQEThEoJPhIRTd6Ah0BO45AldLhvruidf9DZR7nnrte0fgtiJQTob9DZT+Bgq/jODwh/x9K/1zv3dGzn8XzBIQTb+2qNTI8Xtqfufshd9XQ6ckjvicPvJBfF5X/BIumH4Kj+iqhas+dcUO56fthd8jgyEs1w8f9Fncc9z1pC+uc8vtcjLsb6Acv10ymmSzSeK8OjhByYRTRDQJdbKIcFxudByTjyNDf5QonA+9fjgDOklio0MjZIewtajSlgqm2yDcCm3EkyfggMfiVYIcyVzyQTZ5vdSvvLdPZccMR/ZxmASFmnurPrSRrNNm7fTF47LldikZ9jdQTieWT6JLkyN5vc+kYyFzKdkIL/noe/Fx6PS1Q2KhqDjfKJHoPEOXkaxqx9BC0VgF0+UlV6GNeNJePVB0astIBp1OTx9kk9dr/HId3nZcp1fscH7H4aGk495EZ2foD7aRrNNmbfB8TPhbr0vJMI/9/+KLL3affvrp7uuvvy7H59Xr17u3b9/ueN3Wpf4nn3yyY/zNmzc72u+//8FF3D+9+Wr3D69+vfuLv/zh7uNff3moEYT20a8+P4zT9vKPP3295/nrv/nJ7l8++4MPHdo5Gehr8uXYQWjQSF7HURIkidH24nKj46Z8HDn1sRF+FdHps3PIpCtZ+SY5rx0jbalgurxwK7QRD/LolL3UHruZjNPTB9nk9Rq/0CG7XJ/jOr1ih/M7Dvbl2wTj8KuMZJ02awtHvghv6/WqZEhQ+hsox7P2zk0Sn3BMLvpMYu1waLMrg67dDXj0dfEqm4UxT2ze9/PtnO5tx5vRxcO4rrRlJut0bzum2w89+ej7JVl2bdoBUfuZjM5PW8Xp6YN4vIY/7WPc6d72eys+1ylsp1XtcBnHUdtreFVopw9Om7XTF+FtvV6VDPsbKO9OstlEYcLpYgejhMeC9sXAGDQVTdQ8zj3HR33+bqTdknDg87bkRM8/vuc4i2pkSwVzxFOhjXiwSw8S2e6v+DMZ0Uc+uK9qi1991dAVK9q6/N7Ce05+Fkvp8PoczlPvDGe+uD1bbpeSYX8D5XQKzCboKddDb8ariZe1MFyO1ylPlPD4+Kivvyk5HzRPwMgpsYwWVsWWCiavdL57k71KKiM94smdjXjBJCZK+qK7v6Il1iiezku74tdMV+pzbJep2OH8joN9GT/60FUuxd2xvS35e6tLyZCg9DdQjlNjycQZ8eo15Ij48M0KeBmjuBw7PfqesHw8+enDS6JwPr2OK8GIJxPV3gD7xzHSlgpmJi18ZKFmcT2MZd/5wWQ8bZ/JOD19cFy1K345puRUz8acXrHD+YVNjSwxpB71oV2Ku2N7ew94h/+Uk2F/A+U4O5ZMnBEvuzN/gguZnYJ2binHGJdKjmcfPpJe0lk86IA+2jkI3+vESFsqmEpeYKHfX22lK/XQ90t81EpWieP8tFVo6yEALX0Qn9eX/EpMl30qO2Y46GJXrwce95K2PzDhORd3t9/b7sc9tcvJ8LFB6W+gPDaCLd8ROB8B7bjz9fm8VI8qAldLhlK41Tqf4PRfWtmCD0tjfis+34odS+O3Jf5Ohlu6m+1LR6AjsDoCnQxXh64FOwIdgS1FoJPhlu5m+9IR6AisjkAnw9Wha8GOQEdgSxHoZLilu9m+dAQ6Aqsj0MlwdehasCPQEdhSBDoZbuluti8dgY7A6gh0MlwduhbsCHQEthSBqyVD//aJ2v0NlC1NpfalI/CyI1BOhv0NlP4GCr+S4Pev+Xtg+ud+74yc/y6YJSPa6JcXMxpy/AaX39t64bAG6JSUFZ/TRz6Iz+uKX8IF038GJ7pq4apPXbHD+Wmr0F4b05kc2K4v7fMxt0U2vfS6nAz7Gyj9DRQmOwdMsEhUSBh+4AMHBZAY/SCKcwtXONTJl3148iQWaNijBDmSSez0gfEsS/0iwaAbOcpT2VHBke0j3qRlP2318YyTj0nnlupSMuxvoJxO7iWTInm9zwJiIXOde1profnEcxxNaO2QtCBFF/Yokeg8Q5dxPYmRtlQw09bElL7kyz58aS/JFz7oM9ykpw97wfhnjV9ur7cd2ukVO5x/hiP6iDdp2UfWad5O+3xMOrdUl5JhfwPlYcKMzhq8NBlyAtEXjpIgSYy2F5cbHTfl48ipD/bsqC92cEzwLG5Tjjk27bSlginbHLtCG/GAgU7FkNpjN5Nxevrgdqm9xi90yC7XJ0xqp1fscP4Zjugj3qRlP23y8bTPx6RzS/WqZEgA+hsox7P2zk0In0AsFPrsZrTDoc2uDLp2N+DR18VrZxbGPLF5H35hOd3bjjeji4dxXWnLTNbp3nZMtx968tH3S7Ls2vQaTu0HvDo/bRWnpw/i8Rr+tI9xp3vb7634XKewnVa1w2UcJ+1ze2Z8l3hcV9rnY7S3VlYlw/4GynihjCaHTyB2MEpSLGifbIxBU0GOyc4f5WmTNL1oXDTvcyipdktO97bkqKH7H/99TOMzWyqYI54KbcSDPXqQyDZ/xZ/JiD6L58znEV2xAlOX31vZlcnK6U9hR+LLR7c5adl3m7w9sm8k67peeruUDPsbKKe3ecmkmPFCH13S5HK8rniihMfHR312TNqtaNFA8wSMnBJLJlvZkdhpSwWTV07fvQlTSUW6LvkkPmowiYmSvsYSY0RPH8TjdcWvmS5wZmNOr9jh/G7f2pheknN9aZ+PuS1baZeSIc72N1COt3zJpBjxKkkdEfsbKMQiY5V9jxeJkPFRklXyd37HYudM/9wDQH+6EBa8JF7X55iua+SLxl2mYofzC4M6HwTMKRJdlpS/JOf8aZ+PpZ4t9MvJsL+BcrzdSybFiJfdGTuPLDyJtXNLOca4VHI8+/CxkJPOBEcH9NEuQfheJ0baUsFU8gIL/f5qK12ph75f4qNWskoc56etQluJDVr6ID6vL/mVmC77VHac07Empth4Ti71eZxmPrnfL7ldToaPdbK/gfLYCLZ8R6Aj8JwRuFoyfE4nbgE7n5r0X1rZgg9LY34rPt+KHUvjtyX+ToZbupvtS0egI7A6Ap0MV4euBTsCHYEtRaCT4ZbuZvvSEegIrI5AJ8PVoWvBjkBHYEsR6GS4pbvZvnQEOgKrI9DJcHXoWrAj0BHYUgQ6GW7pbrYvHYGOwOoIdDJcHboW7Ah0BLYUgaslQ333xOv+BsqWplL70hF42REoJ8P+Bkp/A4VfSXBYQf4emP653zsj578LZsmINvrlxYyGHL+n5re1Xjg8QYcUpKz4nD7yQXxeV/wSLph+Co/oqoWrPnXFDvgUu5R1feBzAhGYws5x2QCe8+lYOY3fa11Ohv0NlMvftxhNIp/MTEL6SiachKIJnieouByHOjB5vfg4dPqjROF86PXDGdBJEhsdGjHTlbZUMN0G4VZoIx4SYcaCvhLkSEbxUVJJH2ST10v9ynv7VHY4jrdTn+zlcAkKNfdaffnG/eYSnTmguIjnXutSMuxvoBx3MkwUn5SXJk7yep9JyELmygmZfPS9+Lhs0g6JhaHifKNEovMMXUayqh1Di1BjFUyXl1yFNuJJe/VA0e5mJINOp6cPssnrNX65Dm87rtMrdji/t9MnEjzHeHlhZ+gPOvRpB+183X6IQCkZ9jdQHhaTJltOynOTKXnpC0dJkCRG24vL+TFK4vFxaOqDDb+K6PRZCCyILPDIphyj7xhpSwXT5YVfoY14kEen7KX22M1knJ4+yCav1/iFDtnl+hzX6RU7nN/bYNKXPuzNtwvxSD9x8vMYRe/6IQKrkiGi/Q2U41l75yaTT2AmLn0mrXY4tNmVQdfuBjz6unitycKYJzbvwy8sp3vb8WZ08TCuK22ZyTrd247p9kNPPvp+SZZdm3Y81L7AnZ+2itPTB/F4DX/ax7jTve33VnyuU9hOW2rHJX3S4TUyKi4vWtfHCKxKhv0NlPFCOYb12PLJz5NZSYoF7YuBMWgqmri86tDOp77Gk58+fw/Sbsn5vC05auizP7ZrnMQwsqWCOeKp0EY82KMHiWzzV/yZjOgjH8DJIv4RXbGCR5ffW2TOyc9imboSR7qoR/pyjkheuOwe/cEhetcPESglw/4Gyul0mU30U67/DfCZHYZPbrWF4Tp4nfJECY+Pj/r6G5LzQfMEjJwSy2ghVWypYI4WIXYpqYz0jHwSHzWYxERJX2Pur2jUTh/F03lpV/xyzJSfjTm9Yofzezv1YW/Gkz50FdoZL411vduVkiGB6m+gHKfLuUl55HpojXj1SuW8JCN49Tcgl2OnR98Tlo+Dk314mfhO1+u4Xv/Ec2m34BhpSwUzkxY+ksyyuJ6RT84PJvxpe2JIxunpg3i8rvjlmC5Lezbm9Iodzu/t1AcWMaWmZB8a9xsekrDmErXmQ2LeW7+cDPsbKMepcW5SHrkeWiNedmf+xJYMk1Q7t5RjjEslx7MPH5M86SwSdEBnYWQyEb7XiZG2VDCVvMBCv7/aSlfqoe+X+KiVrBLH+Wmr0PZFnz6Iz+tLfiWmyz6VHa7D265LbXb5egByb2kr6YmHeDH3ZB9xyBiK997qcjJ8bGD6GyiPjWDLdwSWRUA78Hx9XoZyP9xXS4ZbD6metF6/NJ/ddrVfmg9L7ZWfXi/FeAp+16/2U+A2Rj0CnQzrsWrOjkBHYMMR+B/lGzntzgwiNQAAAABJRU5ErkJggg==;" parent="1" vertex="1">
                    <mxGeometry x="7" y="-442.5" width="323" height="220" as="geometry"/>
                </mxCell>
                <mxCell id="34" value="" style="shape=image;verticalLabelPosition=bottom;labelBackgroundColor=#ffffff;verticalAlign=top;aspect=fixed;imageAspect=0;image=data:image/png,iVBORw0KGgoAAAANSUhEUgAAASoAAAEJCAYAAAAjAmq3AAAgAElEQVR4Ae2cT68sx3Hl+QX1PfQJtNJa3mjFpTCAlwIMcBbajDYC7JWeFxoRkE1BIkBCfOMBSdOyRFsjCiReD3738VSdiptZndW3eG9X90mgmJGRkSf+ZGZ01uWrfOeUkggkAonAlUfgnSu3L+YlAolAInBKosoiSAQSgauPQBLV1U9RDEwEEoEkqqyBRCARuPoI7JqoXr16c6rPe6/enN579Xp63n3v9UnP1UcnBiYCicBVRGCRqF6/fn3629/+drFhJKn3X//19Or1m+XzkKxIWPNDstpafvCjn58+/PiLh2FOb8WR/DvvvHPS8/3vf//0/vvvq2viq3/qaBCSoQbns88+W0jR/uEPf/iA+b3vfe/0s5/9bNHPuF/84hdNnmOfoxcA1kDnT3/6U+OcHmyAT6m4EnR+yy/JeT3iq3BHYy556hE7/vSnP51++ctfPsi6bdA//vGPH/ylVhEPfOe7XuiUl4vAIvq/+c1vTh999NHpyy+/vMgiP03NSentaUqnKK+3KvHk5PRWHMmz+JQgqGkryXif5Hu1y/7kJz9ZbBDwPDmxiUhayKn4+C281jiN95okxQb3QlvJq4fj/OqXY4ne6utozLfagW+/+93vHuZTtlGjT3HHd/1geHJyedfr/NDPH4EpUf3jJ/91IlF98803p08++eT0+eefb7bm1evXpzdv3jSfr7/++vTVV189PK//8ub07rvvbcb35OT0ZqBvB9SF6G2nz+G7rDafxrSShDbRWlJ0TGFVXm1LrtZVH8mSsfApPRznV7+qDtqX+Oo6nHZ854/YobGM80JCUsyp+cGgVDmNcb3ipX6ZCEwz+Xf/+98fEpXMIFGRsEhco0WJildIPSQuaE5q9JOsoEcS1V+/+vr0T68+PikpqcYe6A9+/9nUD+3ln3/9+kHm7//hV6d/+7R9QqwLkTavDJTa59iVdlk2g/9Cc5pic9VyTpdjamzl1bbkWjV2yLf6WtTDcX71q6djq6/okF2uz/GdP2KHxjLOS68Nn6e+VsJr+eOYoZ8nAtNM1kSF+j/+8Y8PSWXUFCWqeqqqp6nRREWy+Z//618f1JNsaqL6+T/+/qHvD//nPx/6/vNP/++h7ePU91///dUjN3whslloc9qgQPvzaLAxXE6/0uqmr7XYne/02rgqR9sfjW3VnHb02kOt1x5kHQNaxfnVL8l4jfwWX0djvtUO2eS+wDvXJib+I+N661jpSP08EZhWZU1Uf/nLX04ffvjhwwlo1BQlKp2mqElS8PXw2gc9cqLyxIQN3nZ6S5/74gtRf9dQP32tTad+ryXLH+OhleyQUZ/Li68/3rdkRngtmapHbb3+SbdegdRu+Sr8ll/C9VryzhO++4ocz2jMhTtqh/Qzzsu5tmzVGOlVO/XLRWCayf/xL3+cXv2++OKLh5PUltc+XFCi0omqnqRIUg+J6tV3k6g4PVHWkpiHem0hrvU5BrTL8ovM6UWF00s9jShpKKH5H9s1Dkxtbud5QnG9klmr0dP6O1IPx/nVr5aeEV8ds2L0+pw/YodwGeeFeVCC9r9RuYyPcb0uE/r5I7CYSf6Yzino008/vciSDz744OEP6fVvUg+nqVevT69evd6UqHi106ufXuH8nyfw9yuK+vR613r14+9dFPA+/4//fqDXFuJa38Ng+4/L/uEPf1icqtgQ3k9y4iThr141efBKRFKpxXHoq+0qX9voYYzrXsNx/OpXxaY94qtjVoxen/NH7BAu47yQ5PUjQq2krx8M4qLXY8a5XscJ/fwRWMzkb3/729Of//zni61QomLieTiZ8Ud5Ehf/vkoPCWvk1Y/EQ2LRH8T9pAT963/9v4t+N1x/hGe8/zH9u05U2MCvPo8Km4tfcxZ+6/SEnJIIMv7LLwzqunFo++OyLVqJhNqLY0CrQGszw6t+Sc7rc75WTB+7px3gui/Sgw/wfX744ag8jXebhJH6+SMwr8oddP/qV79+SEAkoZFnB5WBSAQSgTuIwK6J6tbj5b+uoq/NZ9nl9d42OrbovXWM4Em31yPjInO8CCRRHW/OYnEicHcRSKK6uymPw4nA8SKQRHW8OYvFicDdRSCJ6u6mPA4nAseLQBLV8eYsFicCdxeBJKq7m/I4nAgcLwJJVMebs1icCNxdBJKo7m7K43AicLwI7Jqo/IZP0bkz/XiLIhYnAtcWgUWi4pu83Jn+dor8XztDrxWX5bux+i0d7bVv/Rjv39ShSzzHPkf3bNStCd7PB7j68LniSs75Lb8k5/WIr8IF02+IEF+1cNWmHrGD70z5sBvZWlrf+okHvn8D6HqhRwrjHWNkTGTOR2AR/dyZnjvTfcmwOZVAuVWgtfFdniTlH12TMEjQvRsJwEaHErvrc1znj9iBnbpKx3HQJ1v4CFy3SPQSi+t1nB6Nv4zhgU7ZLwJTosqd6fMphvBuWaQuq82nKWJD1A2uTbS2QR1TWJVX25KrddWnDQWf0sNxfvWr6qB9ia+uw2nHd/6IHRrLOC8kJMWcmiRKqXIa43rFW6uxjbnmgU7ZLwLTTNYbPnNn+nyaOBduX9D16M8Jo7VoGcPrCcXHS9cIryWj8bXGDumrr0U9HOdXvyo+7Ut8RYfscn2O7/wROzSWcV56bfg8JBglMsbBa82dYzqtBMVJDTplvwhMM1kTFSpyZ/p839NayLXQqfUrLfneYne+02vjqhxtfzS2VXPa0WsPtV57kHUMaBXnV78k4zXyrY3tfKdJULT1mgTtj7CdN2KHjxNNDY6X2iYmJEIV11tlJaNap1Z8IdkhrxOrZFJfHoFp5mqiyp3p7U3XCjWLkg3autNbfXUcfP0huSUzwmvJVD1qayPRZtzIyUH4Lb+E67XknSd97ityPJw6fDOvje/Ft+ryNnhezrWRdZmePY4pmh8CT6L4Bi9lnwhMM5k705cB3bJIXZZfZF+gnF58AaNFSUMnCf8DtKwAU5vbeX5icb2SWavRg231taSH4/zqV0vPiK+OWTF6fc4fsUO4jPPCPChBU9d5QdbHuF7HadHItp6WbHjbI7CYydyZPgdw6yJVAql3eus1QP0kJxKFv3rV5MErEUmllmpTbVf52kYPY1w3Mj0c51e/KjbtEV8ds2L0+pw/YodwGeeFOdCPCLXPCXLERa/HtF2v41Rar7DOZ54Zr7+/eV/o7RFYzGTuTJ8DOLpIGVFl+dXnUTl3jzhySiJg+S+/MKirHtr+uGyLViKh9uIY0CrQ2szwql+S8/qcrxXTx+5pB7jui/TgA3yfH344Kk/j3SZh1Jr58gSnfnS0Tm3qTz0egXlVjo/pSubO9G5o0pEIJAJPiMCuieoJdhxiqP+6ir42w2WX13vb6Nii99YxgifdXo+Me4qM6xL9FLyMHYtAEtVYnCKVCCQCLxiBJKoXDH5UJwKJwFgEkqjG4hSpRCAReMEIJFG9YPCjOhFIBMYikEQ1FqdIJQKJwAtGIInqBYMf1YlAIjAWgSSqsThFKhFIBF4wAklULxj8qE4EEoGxCOyaqHRPute5M31sIiKVCCQC/QgsElXuTH9/ipT+1bHqqaNBSIaa78bqt3S0+eaL/t5NCf5NHSqQhefY5+iGaQ8s3Zrg/XyAqw+fK67knN/yS3Jej/gqXDD9hgjxVQtXbeoRO/ggmI+Bka2l9a3fmjz2gYPukQ+MwffvCKv+tC+LwCJR5c70+Z4mFmZNHr0Quywfp/oGYeN6cmJT1I9Yfbx0jPBaMhrvNR88u0300dZNAj0c51e/HF/0Vl+ViBlHcX3CrPwRO/BNV+k4jt+YAC3/e/L6wJo5GynI4QPP6JgR3MicTlOiyp3py43S2zStReOy2nySYzPUJKFNtLZBHVNYlVfbkqt11acNBZ/Sw3F+9avqoH2Jr67Dacd3/ogdGss4L94mBnVevJ9x+KMYOU6PxjYweaBT9ovANJP1hs/cmX7Ziaoe/TlNtRYtm0KvEtBVZoTXkuktDeyQvvpa1MNxfvWrpecSX9Ehu1yf4zt/xA6NZZyXrW0lHMZB64fFMZ2WPK/V0Cn7RWCayZqoUJE70+f7ntZCzkLWU+8fgl+TEFjOd1p6RnjI+KOxrZrTge5MovbL8xwDWsX51S/JeI38Fl9JUIzRa5Lrg1Zx/ogdPk40NUlO9lG7DvpbbeJGwVbG94pOrfhCQgNry2mshxv+2whMq6EmqtyZ3t50rYXDomTh84dXaG08ZNVXx8HXH5JbMiO8lkzVo7Y2kmzy00EPR/yWX8L1WvLOkz73FTkeTh2+mdfG9+JbdXkbPC/4jE7p4QTopcqfa/tYEponUfQoyblc6MsiMM1k7kxfBlCLecltt1yWX11foJxefAGDoKShhMaG8RMOMmBqc0ur65GMTgiSWavRg231taTiCsP51S/JeD3iq2P6WOhen/NH7BAu43qFP5TrhCmZKk+cNEfI1H6NUx/99XGZ0JdHYDGTuTN9DiQLbjQJuCwbgLYWuF4DhAWfDeCJqSYPXjPqrz2WuZ5We7a+TaEHDNe9huP6ql8tDSO+OmbF6PU5f8QO4TKuVZgDfjzA8lLlmTP96DjtY6D1Cut8dIBHX8rTI7CYydyZPgfUN8fMbVNVll99HhU2BBsDudbpCTklEWSQ9Vcz4VQ9tP2RXK9WIqnYjgGtAq0EC6/6JTmvz/laMX3snnaA677QVkJhDupptSUPD5/B8fmE74X5qqcz+hlDX8rTIzCvyqdjnXJn+g5BDEQikAg8isCuieoR+o0x6i9+/cW+Bnefw8bn0DESy5ew4yV0jsTi1mWSqG59huNfInADEUiiuoFJjAuJwK1HIInq1mc4/iUCNxCBJKobmMS4kAjcegSSqG59huNfInADEUiiuoFJjAuJwK1HIInq1mc4/iUCNxCBJKobmMS4kAjcegR2TVR+V7ro3Jl+60so/iUC330EFokqd6bnznT+5bWK/ytsPqSu3whKzmtk1r5rrJj+zZ33PdUObFr7NpEbLPAJPdRuB2Ph+3eO7mPo54/AvCpPp1PuTM+d6b4EfbPy0S0beq2QpPyja91S4B/sOiaJgLYSoPe5HueP2MFY3V7AWGgvslO3J1Bjt9rIuk4fG/plIjAlqtyZvlycWxaqy2rzaTrrFS7wdR/V2gZ1TGFVXm1LrtZVnzYxfEoPx/nVr6qD9iW+ug6nHd/5I3YwFjkSKw+0F5JdvX6FE1UvofrY0C8TgSlR1Rs+c2f6+NHfN1J93eCXum4Uppox2iw+XstghNeS0fhaY4f0UfvpqIfj/OpXxad9ia/okF2uz/GdP2IHY5WguHvLfZWd9ZQFHz0qrlO81C8XgWlmaqLCpNyZPt/3tDZFLGo99f6h3oJ3vtPSM8JDxh+NbdWcdnRioPbL8xwDWsX51S/JeI18LymL7zIkKNpKGq4PWsX5I3boBAkup1bG6/QIpmNLR+UjI5tdJvTLRGBaDTVR5c708YWqRc3rA7Q2nhZ/a8Ejpz/garwvgRFeS8YxnNbmlU167VS7ZyP8ll+OLbpnD3z3lTYPJ52aQPawg6TsCQ098FTQ7XPkfKdbtqg/9fNGYEpUuTN9GXgW8+hCdVleTXxTcHrxTYMWJQ1tFl6Z/ISDDJja3LLM9Uhm1Ebk0YNt9VWo4rb0Vb8k4/WIrz1d4PT6nD9iB/KtR7ZiZ40tbfgqrlO81C8XgSlRYULuTJ8nYstCdVn+zxFtJSG9eiihwCdReGKqyYNXIpJKLa6Hvtqu8rWNHsa47jUcx69+VWzaI746ZsXo9Tn/nB16nXRsYg6G/hYGBvGlptQ2PNfpWKFfJgKLRJU70+dJ2LJQq2z9gy8bgVMVcq3TE1qVRJBB1l/NZFXVQ9sfyfVqJZKK7RjQKtBKsPCqX5Lz+pyvFdPH7mEHsfOTkfCx3U+2nGr5wUAncwKtHxfG9GwRXurnjcC8KnfQmzvTdwhiIF4kAjrF1lfCFzEmSh9FYNdE9Qj9xhj1V5b2tZXnsPE5dIzE9VrsGLE1Mk+LwPXttKf5k9GJQCJwgxFIorrBSY1LicCtRSCJ6tZmNP4kAjcYgSSqG5zUuJQI3FoEkqhubUbjTyJwgxFIorrBSY1LicCtRSCJ6tZmNP4kAjcYgSSqG5zUuJQI3FoEdk1Uuifd69yZfmtLJv4kAs8fgUWiyp3puTPd/7W9/8tvvoWr3wi2lisya981Vkz/ZMX7nmoHttVvEyv+1vZoDFpxCe9pEVgkqtyZfv7+7la4WfD6eJcPYlnQKmxc/xCZD1/rh7M+XuNGeC0Zjfe63s5AHzbCp/RwnF/9cnzRW30lZuhQAnR9wqz2jdjBGN2YAKZ/bCzcEV2X6paO1PtFYEpUuTN9uWF7C7kVepfV5pNcK0noPqq1DeqYwqq82pZcras+bWL4lB6O86tfVQftS3x1HU47vvNH7GAsciRjHuhaHNP7Kt/bo7odL/Q+EZgSVb3hM3emz6ekc6H2xVxfNzhN9TaK7kfy8dI1wmvJaHytsUP6qP3U18NxfvWr4tO+xFd0yC7X5/jOH7GDsUpQ3L3lvgrXMcWjrnxvj+p2vND7RKCbqIDPnenzfU9r4WYx6/E7jxjjC90xnO+0ZEZ4yPijsa2a047uaaL2y/McA1rF+dUvyXiNfC8pi+8yJCjaejVzfdAqzh+xQydIcDm1Ml6nR8eUTeJRI+v8rbodK/R+EZhWQz1R5c705YJdC7kWN38YhtbGY4z66nj4+kNyS2aE15KpetTW5pVNeu1U2zenxgi/5ZdkvJa886Dhu6+0eTjpeAJZG499o3aQlD2hoQeel3O6JCu5Ud0al3rfCEyJKnemLwOrBbrktlsuy+uBbwpOL75pQFDSUELzP7ZLA5ja3M7zhOJ6JbNWowfb6qtQD8f51a+WnhFfHbNi9PqcP2IH8q3H9TnmGt/lRnQ7Vuj9IjAlKiBzZ/ocWF+gM7dNuSxX8dJWEtKrhxIMfBKFv3rV5MErEUmlFtdDX21X+dpGD2Nc9xqO41e/KjbtEV8ds2L0+px/zg69Tjo2MQdDfwujzzFdtvK9fU6344TeNwKLRJU70+fg+gKduW2qyvLLy6PCAudUhVzr9ISckggyyPqrmXCqHtr+SK5XK5FUbMeAVoFWgoVX/ZKc1+d8rZg+dg87iJ3+FufY2O4n254dlV/bIzFwvaH3icC8KnfAy53pOwQxEIlAIvAoArsmqkfoN8aov/i0r608h43PoWMkrtdix4itkXlaBK5vpz3Nn4xOBBKBG4xAEtUNTmpcSgRuLQJJVLc2o/EnEbjBCCRR3eCkxqVE4NYikER1azMafxKBG4xAEtUNTmpcSgRuLQJJVLc2o/EnEbjBCCRR3eCkxqVE4NYisGui8rvSRefO9FtbMvEnEXj+CCwSVe5Mz53p/q/t/V9+8yF1/UawtVyRWfuusWL6DRHe91Q7sI3vFLEbLGpdKUPbv2GUH853mn6+8fPvMelvPcKlz78tlA7Z5fgVx2VDv43AIlHlzvTz93e3Fo4vOj6IZVOosHH9Q2S+5K8fzvp4jRvhtWQ03ut6OwN92Aif0sNxfvXL8UVv9ZVNjQ4lQNcnzGrfiB2MIcY8fCRNIe6eREQ/dH77H9fvNLKtpOMyQHgbmkf6XY+Sp2zwcS4Xeo7AlKhyZ/rjhaaFNIerTflCYwxtlVaS0H1UaxvUMYVVebUtuVpXfbr2ZMsJo/pVddC+xFf3wWnHd/6IHci0rskRpuOJR+180SQasDRXPfnWeJIbJzEvnCDhC7+Oc9nQcwSmHVVv+Myd6e3Xgzl0M+WLrl4DwiJn49TCGN2P5OMlN8JryWh8rbFD+qj91NfDcX71q+LTvsRXdMgu1+f4zh+xA9/qnVs9vB4fnWDgk7+e9uThu52iscVPVdgPnvrrOMcPPUegm6gQyZ3p898h5pA9plh0euorgi9IH+l8pyUzwkPGH41t1Zx2dE8TtW9kx4BWcX71SzJeI99LyuK7DAmKNic8iuuDVnH+U+xo4Tk2tNtJkuLpFZdHxtui8VGv2Ho1bskir6en757502qoJ6rcmT4v2nMLRItSv5TaeHVBOg5j9Eut8bVfm0b8KlfbkmvVev2jj3H+KtPDEb/lV0uH5GsffPeVNg+nDb1+yq7qs/NH7SC5eCJu2bOmRzrBIDH2sKq/3nYae1gTJCzp9X6nq61pv43AlKhyZ/pySWxZPC7L0V6/oCByeqmnACUNJbTWxgJTm1uWuR54tS25Xo0ebPPXvjUcx69+tXSM+OqYFaPX5/xRO6qPrsvxenzJkNCh/fVNYyTTansfMSc28DTn3u+0sFIvIzAlKti5M30OzpbF47IsaNpakFro+iWFzybyX+maPHhdIKnU4nroq+0qX9voYYzrXsNx/OpXxaY94qtjVoxen/NH7CDGxI+kpnmg1hw4ntvgfKcvmQ8fj27axF/F+51Wf+plBBaJKnemz8HZsniqLBuER4XNxakKudbpCTklEWSQ9Vcz4VQ9tP2RXK9WIqnYjgGtAq3NDa/6JTmvz/laMX3snnbgo04x4GK7/O7Z4Hyn5Tt4XqqMt51mDGOJjYr3Q/sjmdRzBOZVOfMupnJn+sWhy8BEIBFYicCuiWpFz010+a+e6GtzTHZ5vbeNji16bx0jeNLt9ci4yBwvAklUx5uzWJwI3F0EkqjubsrjcCJwvAgkUR1vzmJxInB3EUiiurspj8OJwPEikER1vDmLxYnA3UUgierupjwOJwLHi0AS1fHmLBYnAncXgSSqu5vyOJwIHC8CuyYq3ZPude5MP96iiMWJwLVFYJGocmd67kznX3mr+L/45kNqfSun/laNzNp3jRXTb4jwvqfagW18p4jdYFH7lTIjdp77MNztBd+/i2zFJrzLIzCvym9vT/joo49OX3755UWIj09Sb07vvXr98Lz73utTfbYq+cGPfn768OMvHoY5vRVH8iw0LS5q2tqM3if5Xu2yfHzKolUBzz9E5kt6NrJ/4OrjNW6E15LReK/r7Qz0YaO+5u/hOL/65fiit/o6GvOtdmAPMebRh8B+e8KoncybYiQf3Ran9TG2f4yuMamfHoEpUeXO9OW1Kb4Iz4XZZbX5NKaVJHQf1VpSdExhVV5tS67WVZ+uHdEJo4fj/OpX1UH7El9dh9OO7/wRO5BpnYaEOWon1+GAo3livNviNH01ztKX+ukRmBJVveEzd6bPp61zYfYFW69CYaGzcWphDPccUXy85EZ4LRmNrzV2SB+1n/p6OM6vflV82pf4ig7Z5foc3/kjduBbvXPL8bbYiW1+SnJbnBY+PPkjXuqnR6CbqIDOnenzPUFroWZx6uF1w0trMdPvfKc1doSHjD8a26o5Reh1k9o3smNAqzi/+iUZr5HvJWXxXYYNTZsTHsX1Qas4/yl2OJ7sEY8aPeI7jc7W6dNlhNPiqS/15RGYVkM9UeXO9HnRnguvFmfrTm/1VQz4+kNyS2aE15KpetTWawltxvVeZyQvOTZuyy+XE92zB777SpuHk48SgOsTnmrhjtrBickTsXBUC09t1fDdTiUt/v6kE6iPdbqFIV7qp0dgSlS5M30ZzNYiXErMLZflNYHTiwqnl3oKUNLQSaK1scDUphGW64FX25Lr1ehp/X2mh+P86ldLx4ivjlkxen3OH7VDiaXqoH2JnYzRCVAJzO0CdzSRtmwKbz0CU6JCLHemz8Gqi3DueUy5LL++tJWEOLl4P/z6N5SaPNgQJJVaHIe+2q7ytY0extTTRg/H+dWvik17xFfHrBi9PueP2EGMiR9JTfNArQRziZ2aN7fFaexCp3RU39J+WgQWiSp3ps/B9EU4c9tUlWWD8KiwiDlVIcdirokCOSURZJD1VzPhVD20/ZFcr9YGrdiOAa0C7Ruv+iU5r8/5WjF97J524COnIGFiu/t9iZ3Ewu0XNrX/Hct9Cr1PBOZVuQNe7kzfIYiBSAQSgUcR2DVRPUK/MYb/goq+Nhdll9d72+jYovfWMYIn3V6PjIvM8SKQRHW8OYvFicDdRSCJ6u6mPA4nAseLQBLV8eYsFicCdxeBJKq7m/I4nAgcLwJJVMebs1icCNxdBJKo7m7K43AicLwIJFEdb85icSJwdxFIorq7KY/DicDxIrBrovIbPkXnzvTjLYpYnAhcWwQWiSp3pufOdP6Vt4r/i28+pPZv5SRTa2TWvmusmH5DhPc9xQ7HwW7/XhF7vb+nZ4Qv38FHD2OodTtG1aN2tUc4qfsRmFdl7kx/WGjajCyq0QXlsnwIy2JVAc8/ROYrfDYycio+fguvNU7jva63M9CHjfApPRznV78cX/RWX4kvOs7FfKsdLq+Pj/0jce+X7aNxcHlo5pIHPRS/pUGyPX3qT30+AlOiyp3pyw27ZXG5rDafQt9KEvrFXdugjimsyqttydW66mMzMRY+pYfj/OpX1UH7El9dh9OO7/wRO1wenOp/7ZeurXxs4UfoXOnhnhuX/jkCU6KqN3zmzvTLTlT1KpTeHUUsXt2t3VrII7yWzDy1Swo7pI/aT309HOdXv5bob1uX+IoO2eX6HN/5I3a4vHC26tE46hYefGLYurLHx66Nr3Jp9yPQTVQMyZ3p831P/RC+XcgsZh5eA7z0FrnzndbYER4y/mhsq+a0o9dNat9gjgGt4vzql2S8Rp5TRi3Od5oERZsTHgXaH+E471I7wJBtjgetcglfmMJo1a671R/e+QhMs1RPVLkzfV7Y58Kohdi6ilZ9FQO+/pDckhnhtWSqHrX1+kObcXrtVLu14YTf8ku4XkveecJ3X5Hj4USi10/JfVd2oM9tWNPTsr8lzwnSE34dp3YvLupPfT4CU6LKnenLYG1ZXC7Lq4n+SA0ip5d6ClDS0EmiteB9Y8ky1wOvtiXXq9HT+jtSD8f51a+WjhFfHbNi9PqcP2KHy6OjJtraLzu28vHXX6GFU+sebpVLux+BKVEhkjvT50BtWVwuy8cOcm0AABV8SURBVP/9oa0kxMnF++HXv23U5MErEUmlFsehr7arfG2jhzH1FNDDcX71q2LTHvHVMStGr8/5I3ZUeWLpJyLvdxu28plLsEmemm9q1wV+D9d1h16PwCJR5c70OVhbFleVZeHyqLC5OFUhx8KuiQI5JRFkkPVXM+FUPbT9kVyvViKp2I4BrQLtm676JTmvz/laMX3sXnY4DrH010v0eT+0CrT763wfIz41seRkpX5i1IpvC9dxQq9HYJ6ldbmh3tyZPhSmCCUCicDGCOyaqDbqPpy4fjW9vjYn3DbRe9soXK/31jGC5/pFj4yLzPEikER1vDmLxYnA3UUgierupjwOJwLHi0AS1fHmLBYnAncXgSSqu5vyOJwIHC8CSVTHm7NYnAjcXQSSqO5uyuNwInC8CCRRHW/OYnEicHcRSKK6uymPw4nA8SKwa6LSPele58704y2KWJwIXFsEFokqd6bnznT+hbeK/rU3NR9S12/YJOc1MmvfNVZMXb0ChvdBqzh/xA6XX8PpfX8HHz2Mpa7fCsqu1M8XgXk15M70h4Wpzcgi7S3kOj0uW6/+AM8/RObrejYycio+fguvNU7jva63M9DHBoRP6eE4v/rl+KK3+kp80XEu5lvtcHnZVv3Ux9P+8TgyzA0P/ZTWbQgPHfnPs0ZgSlS5M325YXuLvTU7LqvNJ7lWktB9VGsb1DGFVXm1LblaV31sPsbqpNDDcX71q+qgfYmvrsNpx3f+iB0u38OBX+MCNj8qKdcXgSlR1Rs+c2f6ZSeqehUKC58NUAubae2u8NZmq7zarjq8jR3SR82JSqWH4/zql8Z6fYmv6JBdrs9xnT9ih8v3cMR3/cSkdQWPZFO/XAS6iQqTcmf6fN/T2hSx2PXw2uBlZNO0ZEZ40qna9Vaa045eN6l9Q2q8ao1Vm7r6JRmvkeslZfFdhgRFmxMeBdofYTtv1A4f4ziyo8VjTO2XXOqXjUA3UeXO9PFFqwVer7xlatVXpxm+/pDckhnhtWSqHrX1miOb9NqpdmuDCr/ll3C9lrzzhO++IsdT/1C9Nh779rCj+olO2caJ0BN49SPtl4vAlKhyZ/pyEnqbZin1tuWyvJroj9T0cnqppwAlDZ0kWhvEN5B0uh54tS25Xo2e1t+RejjOr361dIz46pgVo9fn/BE7XN51VH5NfNjvr8Q+NvTLRmBKVJiRO9PnyaiLeu55TLks/7eItpIQJxfvh1//FlKTB69EJJVaHIe+2q7ytY0extRTQw/H+dWvik17xFfHrBi9PueP2OHyrsP54BBjP2ExN/BIhpo/apdxvNDPF4FFosqd6XPgfVHP3DZVZVnoPCpsCk5VyLERaqJATkkEGWT91Uw4VQ9tfyTXq5VIKrZjQKtA+yatfknO63O+Vkwfu5cdazjqI8b6v55uA7HhZCU5fK7xcvnQzxOBeVXuoC93pu8QxEAkAonAowjsmqgeod8YQ7+yXl+bi26b6L1tFK7Xe+sYwXP9okfGReZ4EUiiOt6cxeJE4O4ikER1d1MehxOB40Ugiep4cxaLE4G7i0AS1d1NeRxOBI4XgSSq481ZLE4E7i4CSVR3N+VxOBE4XgSSqI43Z7E4Ebi7CCRR3d2Ux+FE4HgR2DVR+V3ponNn+vEWRSxOBK4tAotElTvTc2c6/8JbRf/am5oPqUe+eUNm7bvGiqkrVtDpfdAqzh+xw+UdBzy+7wMDPrXrlw3+fWPlMU79rqdi0UccWoXxPRz4KtBrH6fT33tko7COXs9RyZ3pD5OuzcgCGJ1sl61XhYDnHyLzNT4LGDkVH7+F1xqn8V7X2xnoY2PBp/RwnF/9cnzRW33Vhj0X8612uLxso5Z9fDhN0Q0KasNrjXVej275gqxjPyj9NvY9HMnIFtaO5kl9PnaNp75bqKdElTvTl4u0tRh6E+6yWrCSbSUJ3Ue1tkEdU1iVV9uSq3XVR7JkrG4P6OE4v/pVddC+xFfX4bTjO3/EDpd3HJKtrj0WnxPVlh8Nx3YaPG9D84Pkt2gggz6dOPGljntgfPsfMLhpg2SltdKTd92OcSv0lKhyZ/rbhaaFvGXiXbZehcIi04L0RcOYNV2OqXGVV9uSa9XYIX3UnKhUejjOr35prNeX+IoO2eX6HNf5I3a4vONgn+6Zcj7yKq2xzuvRjKev+kKc/VSF/SSrNZxqC5iMU/Gxazz13UI9zVBNVDiXO9PnvwGsTTYLR0/9u0RrUYHlfKelZ4SHjD8a26o57ejkQO13YjkGtIrzq1+S8Rr5XlIW32XYgLSVPFwftIrzR+3wMY4j2uuqS7ZKhn7xenTLF8bA16ubXj3BrTi09bT04vfaCdjxNP6W6mk11ESVO9PnxXluwrVI9Eupjcc49VUM+Mj3ZFrjKq+2qw5v6/VP+s69SkiOzdbyy7FF9+yB777S5uG0oc3n+oSnWrh72OFz4/hOKym1eLKFPvlxzhed5EhYwq444kun8MXnVKZTsI+VfIunvluop0SVO9OX07ll4l2WI7p+QUHk9FJPAUoa2jQsZD/hMA5MbW5Z5noko4UsmbUaPdimBS/ZitviV78k4/WIrz1d4PT6nD9ih8tX+2pMaeukiey5uXBsp11P9YWYowN5zbmPddpxKh8MndzqvFdZx7kFekpUOJM70+cp3TLxLssvH20tSE4u3g+fROGJqSYPFiMbphbHoa+2q3xto4cxrnsNx/GrXxWb9oivjlkxen3OH7HD5V0HY4krNaW24Z2bC8d22vVAex9zThtsFe93Wv0Vg7bWTku+xXOso9OLRJU70+fp3DLxVZZffR4VNgSnKuRav9jIKYkgg6y/mgmn6qHtj+R6tRJJxXYMaBVo/+WufknO63O+Vkwfu5cdPRx0cZrlhwIZ5gJaPyqyZW0u3H6nNVZ17eM0pASJjPdD+9PDgM98+Ng1WfXdQj2vyh28yZ3pOwQxEM8aAZ1e6yvhsxoRZWcjsGuiOqvt4AL+qyf62lySXV7vbaNji95bxwiedHs9Mi4yx4tAEtXx5iwWJwJ3F4Ekqrub8jicCBwvAklUx5uzWJwI3F0EkqjubsrjcCJwvAgkUR1vzmJxInB3EUiiurspj8OJwPEikER1vDmLxYnA3UUgierupjwOJwLHi8CuiUr3pHudO9OPtyhicSJwbRFYJKrcmZ470/lX3ir+L775Jq5+Iyg5r5FZ+66xYvqnK973FDvWcPzbRexGVt/P1XHe7o0ThmRrnMRX7bGqNDJVj/CdPxJjl5ce2UCNnS0ZyV5bPa/K3Jn+sGi1GXuLpjWBLsvHpywCFfD8Q2Q+gGUjI6fi47fwWuM03ut6IwB92Kiv+Xs4zq9+Ob7orb6yUdBxLuZb7XB52Ubd4o/wzsl4f42T97ktLbon6/ytMXY9jqOPx/3jeZe9NnpKVLkzfbmQfVLPTZrLavNpTCtJ6D6qtQ3qmMKqvNqWXK2rPl07Ap/Sw3F+9avqoH2Jr67Dacd3/ogdLt/DEb8lW3m1zVjnOV3t8z7p7NU9WedfEmPpcxx4dV1I7hrrKVHVGz4///zz0yeffHL65ptvhu1+9fr16c2bNydeIfWo/dFHH53o/+qrr07Q77773lncv3719emfXn18+sGPfn768OMvppqB8D74/WdTP7SXf/716weZv/+HX53+7dMvvWui68TR5mt6Su2bBjUIl61XoXCaYvHWck6XY2ps5dW25Fo1dsg3aj/19XCcX/3q6djqKzpkl+tzfOeP2OHyPRzxW7KVV9uMdZ7T1T7vk85e3ZN1/qXrqdosG8BW/MW7xrqbqDA2d6bP9wStTR6TrYfXOi++yHr8lswITzpVO36l+SXW6ya1X56n8ao1Vm3q6pdkvEaul6jEdxk2CG3dBwXtj7CdN2qHj3Ec2bGFB9baONdV7fM+6LVSZb0t/fBEO5bzne7JiN+TVf+11FPk6okqd6a3F0Rr4jTZ/GEYWhsPWfXVcfD1h+SWzAivJVP1qK1jvmzSa6faa4u/5Zdwve7ZA999pc3DqU6vn89lR/WzZXPl1Xa1Vf2tOKnP49Sje7LOd9px4HuMq5/VZo31ceJdYz0lqtyZvpye3oJYSr1tuSxHf04vKpxe6q+skoYSmv+xXeNaC8j1IFfbGtur0dP6G0cPx/nVr5aOEV8ds2L0+pw/YofLu45L43xunOur9nmf29Kie7LOf0qMHQf9rcTasusaeFOiwpjcmT5PSZ3Uuecx5bL83xTaSkKcXLwfPicJf/WqyYNXIjZHLY5DX21X+dpGD2Nc9xqO41e/KjbtEV8ds2L0+pw/YofLu45L43xunOur9nmf29Kie7LOf0qMHQc7WWOtk1fLtpfmLRJV7kyfp8Mndea2qSrLryqPCouCUxVyrV9n5JREkEHWX82EU/XQ9kdyvVqLvGI7BrQKtC/k6pfkvD7na8X0sXvZsabjkjhj49q4qs/j1PPJ/RZdcXr8kRi7XscRnzXmr92SudZ6XpU7WJg703cIYiASgUTgUQR2TVSP0G+MoV8jr6/NRbdN9N42CtfrvXWM4Ll+0SPjXlpGtnr90jZdu/4kqmufodiXCCQCpySqLIJEIBG4+ggkUV39FMXARCARSKLKGkgEEoGrj0AS1dVPUQxMBBKBJKqsgUQgEbj6CCRRXf0UxcBEIBFIosoaSAQSgauPwK6Jyu9KF507069+DcTARODqI7BIVLkzPXem86+lVfxfTvMhdf1GUHJeI7P2XWPF1NUkYHjfU+xgrL5RdEx8cH3o5Hs3+Mi1+uUbeC53pO/k5MOR63lV5s70h8WqzeiL/dwEuyzXcLCgVcDzD5G5PYGNjJyKj9/Ca43TeK/r1//0YSN8Sg/H+dUvxxe91Vc2PzrOxXyrHS7vdNUne/nIl0LNXKktv5gvHvGZQyVCyaT+biMwJarcmb7csL7Az02By2ozaEwrSeg+qrUN6pjCqrzallytqz42GmN1KujhOL/6VXXQvsRX1+G04zt/xA6XdxpMb5N86zW8nLj8RwR9JK+Ul43AlKjqDZ+5M31+fTg3Rb74/YoPxrHIWey1MEabxMdLboTXktH4WmOH9FH7qa+H4/zqV8WnfYmv6JBdrs/xnT9ih8s7DSZt6cNeknYtyKgQp3p/l/pSP18EphmpiQoTcmf6fN/T2pSwsPXwiuAFfi9Rid+SGeFJp2rXW2lOOzopUPvm03jVGqs2dfVLMl4jJ596fJchYdBWsoD2RxjO22oHY2VTS590eM0YFR8vXurnj8A0IzVR5c70eYGfmxYt5tbVruqrGPD1h92WzAivJVP1qK3XP9qM02un2trMknd+yy+XE92zB777SpuH04peP12f8FQL9xI7pKunT0lSumSH2py6PKmLn/p5IzAlqtyZvgy8NseS2265LK8m+iM10pxe6ilASUObpLUZwNTmllbXA6+2Jder0dP6O1IPx/nVr5aOEV8ds2L0+pw/YofLO131YW+NMW34KtD+mix+6ueNwJSoUJs70+fgry3wWeot5bL8nyHaSkKcXLwffv27R00evKKQVGpxHPpqu8rXNnoYU08IPRznV78qNu0RXx2zYvT6nD9ih8s7XfWBRZypKbUNj/lChgSpOaVunUArftr7RWCRqHJn+hzYtQU+S72lqiyLmkeFDcCpCjkWfU0UyCmJIIOsv5oJp+qh7Y/kerUSScV2DGgVaN+Q1S/JeX3O14rpY/eyw3U47bpEc7rlhwM55gZaCUkyxIuTlewjDjWGkk393URgXpU74OfO9B2CGIgXjYBOs/WV8EWNivLc8LllDegX1est459D1m0Tvbde4Xq9t44RPNcvemRcZI4XgV1PVMdzPxYnAonAESKQRHWEWYqNicCdRyCJ6s4XQNxPBI4QgSSqI8xSbEwE7jwCSVR3vgDifiJwhAgkUR1hlmJjInDnEUiiuvMFEPcTgSNEIInqCLMUGxOBO4/ArolK96R7nTvT73yFxf1EYIcILBJV7kzPnen8C28V/Wtvar6BG/m+DZm17xorpn+q4n3QKs4fsQN5faNYx7o+8P1bP7Brv2wAj37wqP16GsnUeuTbyDom7XYE5tWQO9MfFqE2oy/2duhmrsvWa0HA8w+R+eCVjexXifh4oY7wWjIa73W9nYE+Nht8Sg/H+dUvxxe91Vc2PzrOxXyrHS7vdNUne9duT8A35otHciO3JyCDbp76kbPilXo8AlOiyp3pyw3rC/xcOF1Wm0FjWklC91GtbVDHFFbl1bbkal31aRPpVNDDcX71q+qgfYmvrsNpx3f+iB0u7zSY3ib58hGyF05U/iOCPn5othbG8WPAA53ytAhMiare8Jk70+fXh3Mh9sVfj/ss8tZCZYw2iY+XrhFeS0bja40d0kfNBlLp4Ti/+qWxXl/iKzpkl+tzXOeP2OHyToNJW/qwt3XaQUaFOLWu5VF/r1aCYqzHuicf/noEphmpiYphuTN9vu9pLYwsbD28IniB30tU4rdkRnjSqdr1VprTjk4K1L75NF61xqpNXf2SjNfIyace32VIGLSVLKD9EYbzttrBWNnU0icdXjNGxceLd67WCRa/ODWDodPrubHpb0dgmpGaqHJn+rzA26GbuVrMvDZAa+Mhob5Z+i0FX3+4bcmM8FoyVY/a2jy0GafXTrW1mSXv/JZfLie6Zw9895U2DycN38Br47HvEjukq6fP58r9EM2py5O6+Gs1PwqeUPETXsrlEZgSVe5MXwaxt2mWUm9bLsuriS9KTi++aBmhpKFN0toMYGpzS6frgVfbkuvV6MG2+irSw3F+9aulY8RXx6wYvT7nj9jh8k5XfdhbY0wbvgp0jZf6ejU6W09PPvzzEZgSFaK5M30O2NoCn6XeUi7L/xmirSSko79OLPBZ+P4rXZMHrygklVpcD321XeVrGz2Mcd1rOI5f/arYtEd8dcyK0etz/ogdLu901QcWcaam1DY85gsZEqTmlFrzWTH1eul85LGDvpTLIrBIVLkzfQ7i2gKfpd5SVZZFzaPCBuBUhRyLviYK5JREkEHWX82EU/XQ9kdyvVqJpGI7BrQKtG/I6pfkvD7na8X0sXvZ4Tqcdl2iOd3yw4EccwOthCQZ4sXJSvYRhxpDyTJ3fiITnzH1ZK2+1OcjMK/K87JnJXJn+tkQReDKI6DTbH0lvHKzb968XRPVrUdLv6heX5vPbpvovW0Urtd76xjBc/2iR8btJSOdXu+FHZxlBJKolvFIKxFIBK4wAklUVzgpMSkRSASWEUiiWsYjrUQgEbjCCCRRXeGkxKREIBFYRiCJahmPtBKBROAKI5BEdYWTEpMSgURgGYEkqmU80koEEoErjEAS1RVOSkxKBBKBZQT+P12LdqBbZCYtAAAAAElFTkSuQmCC;" parent="1" vertex="1">
                    <mxGeometry x="370" y="-487.5" width="298" height="265" as="geometry"/>
                </mxCell>
                <mxCell id="30" value="料號類別流程版本工作站" style="text;whiteSpace=wrap;html=1;" parent="1" vertex="1">
                    <mxGeometry x="350" y="-150" width="160" height="30" as="geometry"/>
                </mxCell>
                <mxCell id="37" value="" style="shape=image;verticalLabelPosition=bottom;labelBackgroundColor=#ffffff;verticalAlign=top;aspect=fixed;imageAspect=0;image=data:image/png,iVBORw0KGgoAAAANSUhEUgAABWcAAAHlCAYAAACZGU7cAAAgAElEQVR4Aezd7ZMc12Hfe/9PekUkESlZStVN/OJaih3dOFIYVUzYBPRU17qkGFEqi1U3ur6gI8aiRVlMlcq5lSJfhLZoMpQsCjGxACWKgmByKSpiESG0YgBQwFoiSBAUYeTcOt19ek739Mz0PO3s7Hy2CpjZmX4453u+ffr0b872/Nq5c+eCHwQQQAABBBBAAAEEEEAAAQQQQAABBBBAAIG9JfBrwtm9BW5vCCCAAAIIIIAAAggggAACCCCAAAIIIIBAJCCc5QECCCCAAAIIIIAAAggggAACCCCAAAIIILACAsLZFUC3SwQQQAABBBBAAAEEEEAAAQQQQAABBBBAQDjLAQQQQAABBBBAAAEEEEAAAQQQQAABBBBAYAUEhLMrgG6XCCCAAAIIIIAAAggggAACCCCAAAIIIICAcJYDCCCAAAIIIIAAAggggAACCCCAAAIIIIDACggIZ1cA3S4RQAABBBBAAAEEEEAAAQQQQAABBBBAAAHhLAcQQAABBBBAAAEEEEAAAQQQQAABBBBAAIEVEBDOrgC6XSKAAAIIIIAAAggggAACCCCAAAIIIIAAAsJZDiCAAAIIIIAAAggggAACCCCAAAIIIIAAAisgIJxdAXS7RAABBBBAAAEEEEAAAQQQQAABBBBAAAEEhLMcQAABBBBAAAEEEEAAAQQQQAABBBBAAAEEVkBAOLsC6HaJAAIIIIAAAggggAACCCCAAAIIIIAAAggIZzmAAAIIIIAAAggggAACCCCAAAIIIIAAAgisgIBwdgXQ7RIBBBBAAAEEEEAAAQQQQAABBBBAAAEEEBDOcgABBBBAAAEEEEAAAQQQQAABBBBAAAEEEFgBAeHsCqDbJQIIIIAAAggggAACCCCAAAIIIIAAAgggIJzlAAIIIIAAAggggAACCCCAAAIIIIAAAgggsAICwtkVQLdLBBBAAAEEEEAAAQQQQAABBBBAAAEEEEBAOMsBBBBAAAEEEEAAAQQQQAABBBBAAAEEEEBgBQQWGs5euHounDj/l+HPXrw7/OEP/mX4+KlfD4dPHNrX/2IZY1ljmWPZYx38IIAAAggggAACCCCAAAIIIIAAAggggAACyyawkHD2mde+Fe565oPhyNbN+zqI7RMUxzrEujz7828vm73tI4AAAggggAACCCCAAAIIIIAAAggggMAGE5g7nP1///b3wtGT71n7ULYd3B7duiXc+9zRDVZD1RFAAAEEEEAAAQQQQAABBBBAAAEEEEBgmQRmDmfPXHoq/N6Jf3jgQtl2SPv7J/5ReO7yyWW2gW0jgAACCCCAAAIIIIAAAggggAACCCCAwAYSmCmcPXX+r8LHTr73wAezKaiNdX36wn/dQD1UGQEEEEAAAQQQQAABBBBAAAEEEEAAAQSWRWDqcPb0z4+Hj21tTjCbB7RxtrAfBBBAAAEEEEAAAQQQQAABBBBAAAEEEEBgEQSmCmdv/K8b4fdO/IONmTGbgtn0GG/jEBn4QQABBBBAAAEEEEAAAQQQQAABBBBAAAEE5iUwVTj7f//woxsbzKaA9otn/s28zK2PAAIIIIAAAggggAACCCCAAAIIIIAAAgiE3uHsdy8+EW7funnjw9kjWzeHH/z8O9RBAAEEEEAAAQQQQAABBBBAAAEEEEAAAQTmItA7nP3csx/qFcze++p2uHrj7fDOmH9Xf/VS+P5LH+ixvS+Fn1w/F54+cSg8fTWEq7/4UmOdh39xJVy4eCgcPjFYLs1wbT/G9ctl4/Lz/fv8s//HXNCtjAACCCCAAAIIIIAAAggggAACCCCAAAII9ApnL1w9Fz52st+XgMXA9OrrD4WvXTo/oHvjpfDUi3eHr7303fDLcDmc3T0f3glXwk9enhDQvnw6XL16LlwYbKl4duEXp8PV1mvh6uNjQtfHw4Xrp8PDc4ayKdQ9evI94bW3ftYugd8RQAABBBBAAAEEEEAAAQQQQAABBBBAAIHeBHqFs09feCwc7vlFYEU4G2e4Xjw3KEQdjD4eLoRyJux9F89NDGgHM2O7Z7qm99NjGZ7GfUz7U5Ypha+TH/9B+O7F/zrtTiyPAAIIIIAAAggggAACCCCAAAIIIIAAAgjUBHqFsw/++HNjZqU2g9O+4ezhEx8IX/t5DGjPh+8/19xGGY7GWxWUtyKItySof+qg91AoQ9nJs2IXeUuDFNw++OPP10XyBAEEEEAAAQQQQAABBBBAAAEEEEAAAQQQmJZAr3D2D3/wL+cLZ8OVcDnenuDq5fBONXO2DDmPhDPXRtwLNt7SIHS/1whr6xrH2yR0hLwXzw3dqzYFrPM83nP6I/WePUEAAQQQQAABBBBAAAEEEEAAAQQQQAABBKYl0Cuc/fipX58+nN1+KLzwRgxkW/9+8Ui4L7v366hZrU9fvRIuxH8Xyy8DqyuWzZw9fGJwm4TuoPXxcKG4F205C7feRuPJtLc0KAPgj596X2MrfkEAAQQQQAABBBBAAAEEEEAAAQQQQAABBKYh0Cuc7Q4+O2apnihvNXA13nM2C2DHPe8OZ78UfvKLx6vbFnTvp1cwO2LmbVmeGOyOmG3bs+zTgLYsAggggAACCCCAAAIIIIAAAggggAACCCCQE+gVzs40c/bER8J9L94dvjby36fCPSfKWbFxdmxXgJu+6Cs+1j9x5mx1y4P6tRBaty4oZ9T+5BflzNv2tsvtzTZjNm0rMvGDAAIIIIAAAggggAACCCCAAAIIIIAAAgjMSqBXODv7PWffDu/c6P4Xqlmr3TNny7A2D2fLADeGriGE6+fChetZuNq4r2y8hUH5Xrl+tc5YQtm2es6a/cIP/uXYLXoTAQQQQAABBBBAAAEEEEAAAQQQQAABBBAYR6BXOPtnL362c2ZrmkWaP8ZAtLitwcVzIRT3e+2aFRsD1PKWAlOHs8U9Z4fvIdt1K4UU7ubli89Hvd5ebtzvf/bi3eO4eg8BBBBAAAEEEEAAAQQQQAABBBBAAAEEEBhLoFc4+zf/85F9GM5ms10bM2cHYfCoEHbU6+PC2PZ7W+f/cixYbyKAAAIIIIAAAggggAACCCCAAAIIIIAAAuMI9ApnL1w9F45s3dIroI3B5zJmztaV2AczZ49s3Rx+/tardZE8QQABBBBAAAEEEEAAAQQQQAABBBBAAAEEpiXQK5yNG/233/9nvcLZr126PGUZ3g47rw5mu+YzVNMM1/R4+MTj4UIdzk47cza/92x5S4V8X9M8/+z3f2vKOlocAQQQQAABBBBAAAEEEEAAAQQQQAABBBBoEugdzj594fFw+9bNvQLaaYLOdVv29q13h2de+1aTot8QQAABBBBAAAEEEEAAAQQQQAABBBBAAIEpCfQOZ+N2/92Zf7Px4ez/c+Z3p0RscQQQQAABBBBAAAEEEEAAAQQQQAABBBBAYJjAVOHsjf91I/zeiX+4sQHt75/4RyEy8IMAAggggAACCCCAAAIIIIAAAggggAACCMxLYKpwNu7sh5f+Jhw9+Z6NC2iPbr03PHf55Ly8rY8AAggggAACCCCAAAIIIIAAAggggAACCBQEpg5n41onzn8jxFmk63a/2FnLG+vqPrOOGAQQQAABBBBAAAEEEEAAAQQQQAABBBBYJIGZwtlYgDiLdBMC2vgFYNu7310kc9tCAAEEEEAAAQQQQAABBBBAAAEEEEAAAQTCzOFsYnfvc0fD0a1bDtws2linf//cx1M1PSKAAAIIIIAAAggggAACCCCAAAIIIIAAAgslMHc4G0vz7M+fDHc988Fw+9bNax/SHtm6OfzbZ/5ZOH3p+EJB2xgCCCCAAAIIIIAAAggggAACCCCAAAIIIJATWEg4mzb42ls/C1sXvhH+7MW7wxd+8OHw8VO/vu/D2ljGWNavvfi5cOriY+Hnb72aquMRAQQQQAABBBBAAAEEEEAAAQQQQAABBBBYGoGFhrNLK6UNI4AAAggggAACCCCAAAIIIIAAAggggAACB4yAcPaANajqIIAAAggggAACCCCAAAIIIIAAAggggMB6EBDOrkc7KSUCCCCAAAIIIIAAAggggAACCCCAAAIIHDACwtkD1qCqgwACCCCAAAIIIIAAAggggAACCCCAAALrQUA4ux7tpJQIIIAAAggggAACCCCAAAIIIIAAAgggcMAICGcPWIOqDgIIIIAAAggggAACCCCAAAIIIIAAAgisBwHh7Hq0k1IigAACCCCAAAIIIIAAAggggAACCCCAwAEjIJw9YA2qOggggAACCCCAAAIIIIAAAggggAACCCCwHgSEs+vRTkqJwMIIXLnyZvjBc8+FJ75zPHzjm99au38RxNlz58J3tk6uXdnXkbcyr98xos202aodiP1z7Kf9IIAAAntBwLjQeW/V5z375yAHDq4DezWuFc7uxYjBPhDYRwSePfO34Ynj/y28evG1sPv6lbX7Fwfgz5z+Ybjyxhv7iKqiIIAAAggkArF/fuaHZ8LLrwhoExOPCCCwHALGhcvhaqsIIIAAAiWBvRrXCmcZh8CGEXj8ye+sbTAbw+T4yZVgdsOkVV0EEFg7ArGfjv21HwQQQGCZBIwLl0nXthFAAAEEIoG9GNcKZ7mGwIYRiH9ysY4zZlOZY/n9IIAAAgjsfwL66/3fRkqIwLoT0M+sewsqPwIIILAeBJZ9vhHOrocHSonAwgjETiUFnev4uOxOcWGgbQgBBBDYcAL66w0XQPUR2AMC+pk9gGwXCCCAAALF990sE4Nwdpl0bRuBfUhAOLsPG0WREEAAgQNIQGhyABtVlRDYZwT0M/usQRQHAQQQOKAEln2+Ec4eUHFUC4FRBISzo8h4HQEEEEBgkQSWPYhdZFltCwEE1pOAfmY9202pEUAAgXUjsOzzjXB23YxQXgTmJCCcnROg1RFAAAEEehFY9iC2VyEshAACB5qAfuZAN6/KIYAAAvuGwLLPN8LZfdPUCoLA3hAQzu4NZ3tBAAEENp3Asgexm85X/RFAICz9HoAYI4AAAgggEAkse1wrnOUZAhtGQDi7YQ2uuggggMCKCCx7ELuiatktAgjsIwL6mX3UGIqCAAIIHGACyz7fCGcPsDyqhkAXgcWHs5fDi2f+Ojz8n/5DuPc/PBgePv7D8OKlK2H39eX8W3an2MXMawgggAAC0xPQX0/PzBoIIDAdAf3MdLwsjQACCCAwG4Fln2+Es7O1i7UQWFsCsVNZVHD68smvhNv+yW+GQze3//12uO0/PRN+uoSAdrZO8VJ49Oi7wrve1fPf0UfDpbqF47rHwvP17/mTce/ly837/Plw7F3vCkcffX50PY51l3DePVsfAQQQmJXAbP31rHuzHgIIbCIB/cwmtro6I4AAAntPYNnnG+HsHrbpa9+8M/zmBz4YvrL9WvjmHR8snsffG//u+FZ4bWSZXghfKZZ/IGzHZbYfqLY3coXyjde+Fe74wJ3hm+0NF69X25qwib15ewSXB14IoSjrB8MdqRLV718pQOSlq7YR15n2p+A5jkfiH9swbXzwWmrHwXupjcZtM21n7x5jp7KIcPbFR/4g3JxC2ff9TvidW3+3+PdbWVj7/v/rL8OLCw5oZ+sUpwlRnw/HGuFsCOHSo+HouzoC2vj62FB0ylA430exzxQmp32PqMfEcuydX/aEAAIIJAKz9ddpbY8IIDAzgXzsn41vtx9oXXek65Cx1x+hHoc3xrgzF26xKy6+nyk/EH9Xeyy42GLbGgIIIIDAmhFY/PmmCUA42+Qx4rcRoWEa0Aw9ZmFcFaCWwV16vdxeHTRWey3C287B0eT9t7cVwph1quBy9P6GA8dm+WMuPNvgLgXUKcgsHtt1bg8iU9BavB5D5qpu6fW81eplqhcb/LMyD63bapMq/G2U8wOp/fIdRlYp+C65NQau7f2365pvao+ex05l7nD2zFfCb1XB7G/9u78OLzcC2Avh2Yc+E95fvX/0kbPz7y/b/myd4ohQs5N5RzgblysC0EdHz1zNZuWOzWvjtp4/Fo4+Opib21mM+sW8PCPqIZytaXmCAAL7h8Bs/fX+Kb+SILC2BMaEs8PXDD1qOXJSRI91l7zI4vqZ9IH6sfD888eCcHbJDWfzCCCAwJoRWNz5prviwtluLr1eLQLKvmFbEdKlcK8VBFZ7GxWWFvt54IUyEM33lwZe210zY8t9FEFhWu61EIp9VMFkO2AdDNaqcHYowBxgKddN9UmvD0LdRkBZvJ3ea60Ty5bq1A4ys9B7eHtpn/ljuY+iHkWdHwjbDe7lsolnvmY5CzmWreL2zS6mjTWqX+I+J4WzrTp3bWYPX4udynzh7IXw+GfL2xjc/KnRM2Ofe+j28nYH7/sP4VQWrs637yszfktiHmqmwXealVo91jMk8jB0XMP0Xa5jG3OFs61yp1B4YiLcUQ4vIYDAxhF49NFHJ97i5fOf//xCuCx7ELuQQtoIAgeRQDb2H4xxy8kVg/F+d8Xb1wfNiQrZRIc0Tk/j+O7NLf3VpfQzwtmlt5sdIIAAAosgcJDGtcLZOYwoBi99BySNkLAMADsHO63tlUHit5q3QSiWyUPENFAahICdM1TTIOoD8fYAL4Rv3lGGinlgW+KogtSpw9m4dqrboCz1a626jUSfsaqD1BHB7WCAWe232EdV/jseCNvfjLd+yMtSzfrN61YMYKtbJhT7uTN8swi8E9f2YwpjYw2qfWVsx962omDfvr/ESBJLeWPucPbSfwtfKGbF/k746pkxX/pVL/fb4d7vj1luyuB2tkF4O5xNtwlIiPOgNX8+YpZrccuB5jaeP/au0Dsf7RHOXnr06HCA0nsHqV4eEUAAgWEC4wayiwpm415n66+Hy+sVBBCYkkA1th1ca5Rj4TiuHoyde26zNQbvN2Gi57YXsNhS+hnh7AJaxiYQQACBvSFwUMa1wtk5fOkTznaGpHkwOG7/+cCqXieFn4PAMA2SmgOuKryN90bNPj2vg9jitcFA7Tfr7ccCzRPOpvusDgZ/iUEq57gqF+/FQWAV5NbhbFopq0t6qXjMWRVBaRWgtgaU9SA1r29rmcHM2zyErfY2av/NwhRhejn4jSyr7fRat7Ghpfwydzh77i/D0SKc/YPw8LlxoevZ8PCRcobtF9c5nC3y2XeFd1XBaAxhx36xWJ8AtUc4Wzd+vEAovgxsxG0QiqA4lqkZFtfre4IAAgh0EOgayC4ymI27XEpo0lEXLyGAQIvAiDFnMa7OJhSkcfHoMXp5PXHHAw+EO+L3ZjwwGKO39riyX5fSzwhnV9aedowAAgjMQuAgjGuFs7O0fLVOn3A2bX5iQFkHhB2BYNzI0PsppB2xfD2DdRDipgFYDD6345eTVQHlUAA6bzibgtJ8+63Zq4lL4zGt1x405kHqiMFmvZ1qG/WsgILbhJmz1cpFG6XZvaPKkge/MfeuvuStZhvfv+OB8JU7Yjj9reoL3Ko2yOtRF3jvnywunP1EePilceHsM+He9x2McDa2UpzJ2id3jfeTTUHuyNbtHc5eCo8eOxqOHj0Wjh09Gh59Pn4xWTscPhrK29deCpdG5Lcjy+ENBBDYaAL5QHbRwWwEu5TQZKNbTOUR6ElgxHg5jvnLoLXfxIFynPtA2K7Gxemvw+pxds/iLHOxpfQzwtllNpltI4AAAkshsO7jWuHsHFr0D2fzP30f9SfzwyFrI/jLgr16oFSUPYW0ZQA4GCxVn3R/M95odnD/1GLdO74VvvlA2l+2XM0iL28W7mZlKOo+KnBNwWaxfCpfMyCtdzX0pKs8afZvVpZWSFpuptrXAy8M7q3bN5xNjOJtEGJAm37vcweCoX3kdchmzg7VdTUvzB3Ovv7fw/93axm6/uuH/vvo+9ee+Ur433vNsB0X8A6/N9sgfI7bGnQ00/PHqlmq+Rdx9Q5cR9wqoWM/Meg99nx1m4VLj4ZjjS8Ra91+oWt9ryGAAAITCMSB7DKC2bjb2frrCQX2NgIITCaQxuL1hIfBX8uVtzb7YChmyw6NYbNNV9solht6nq4jsuVX9HQp/YxwdkWtabcIIIDAfATWeVwrnJ2j7fuGs2WQGYPFB8I340zLNDsz7nvqEDDOzPxWKDLDcQOqCTNn4/qxXF/ZLoPY5p8zVeFsFsa2MfUJZ8ugeMpwtqhTNWBs73Qsr7SfPMDt+4VgZX3zma5fqb4Q7CsP3Bkas2KrQW7Oa9iDPJwdLle+blcVl/3a/OHslfBi/WVfnwhfPXNhOKD9nyfDF/9F9aVhn/3r8NMp7ys77kvDZhuEt8PZ9uzTd2Xfytsdeg5mzmbbWmo4m8qRHttmjHq9vZzfEUAAgdUQmK2/Xk1Z7RWBA0Ugv77IrhfimDWOz4uxaz6ZoV35KoytJ33k4Wz9l2P7I6BdSj8jnG0b4XcEEEBg4wks5XyTURXOZjCmfTocynVsoRgQ3Rm+2fHFVMXS+eCpY/UyvK0CxzosTYFfn9mo1bLFuvkszur1O+4Md6R7otb7ny+cTTN+UwhZ/t5nAFftt/6Uv6p3CqNj+UbxqkLdGKSW+y3rV9wbq729+HvNMr9lRLlu2a4llyKcfSB+IVs14/mBF6pQO8FKbZFC4VjP8rV6QJsW3SePsVMZF372e++H4atV+Hro5t8Otx37y/DXZ/57ePlHz4S/fuiL4V//kzKYPXTzb4bbxs2unSG0na1TzALVie3QFXrG2ws8Gsq7BmTPlxnOFrNmY2Gz8sSLhaHbGqSg2T1nJzatBRBAYE8JzNZf72kR7QyBg0mgGC9X1wl1OJuNT6uwNY6bh8ar1XuN16vX0tg+Qus/vl8u4qX0M8LZ5TaarSOAAAJrSGAp55uMg3A2gzHt017h7GvfCl+JtxaoB0bNMHDSrMxmmQZBYGPAlALg7E/wU0Datf16IJYGZnn4WexwnnC2Wjff5sj9NGuXGH0l/ybZWLd0j9xJIWtrc8WvOffq/TRboGvx+rVqvWKmc8d+88FpvU5RzxjOlgziMnFfsa167bPe0HKfxE6lXwA7fEuBxnqXfhi++ru/HWIAO/7fb4ejj4y5/cGUAe1sneKc4WwdlBY3nw1H081nlxnO1hpk4Wz9Wnwy6vXGQn5BAAEEVkZgtv56ZcW1YwQODoFq/Nz8S7vyOiKfxBD/qi9+d/DgpxzDFtcZafzeMQ7+zTSxo2OcPdjW3jxbSj8jnN2bxrMXBBBAYI0ILOV8k9VfOJvBmPZpr3A2bXTU4KUO9NKC7cdBIFsPhNIi9aBpxKzUYp/VTNJq2UaomNbPg9Ri2zOGsyO3lwXS7X3FdVqvpUCzKEo+uIwvFPvoqm814CxuR1DdPiLOju3gPhyUxvreGfJZssXzFAqPnTmbGiOVLX1pQlnGVJe0zyI0z2ftZqvv1dPYqTRC1inD0ea6F8Jzxx8Mdxy5Nby/Cmnf/y8+E77w0Mnw8qUL4W+O3VoFt4sLaGfrFGM4m2aY9ng8mmbJxlbJQ9C4nfQFXK2gdhn3nC2kyPefWzLq9XwZzxFAAIHVEZitv15dee0ZgYNCoDHerMfC5Xg3zhkZfNFw+ouzCTWvxviN64gJq+zV24vsZ54/1j1GTJ/J71Wd7AcBBBBAYP8RWOT5pqt2wtkuKj1fKwK3VrA4ctV6YNRaYmTY2Fou/VoNjtKM2HGDpNdei6OvUeFuFcAWtzXI7mNb7Kd6r+OT8rS/ou5j3k/FbT6O2G6L4dC28/dH8apfrwae29WXoHXcTiIFpXXZUtvEx2JfJbM4a6Ac3I67rUG9lXKgW3zZWsWzaqvILO0zPjZmPWer79XT2Kk0A9YJM2TnDG8bAe1fnZ1737N1irPPnB3ca/b5cOxdWTAbG6w1czbdcuBo9cVdcd30Wu/HoSuAFMJODpjTfvfKJftBAAEExhGYrb8et0XvIYBAHwKN8WY+zo0zZdO1RJwskI1Vx26373JjN7KcN/Uzy+FqqwgggAACTQLLPt8IZ5u8O3+bdIuAFJTmj0MBXBoYNcLSdJ/S5mNz3Txcjct1zRrtKHaxv/by1baKmaDN+66m8LBjS3v+0tCAsk842wpWixA5DT47QuT61g7pnlmN2ayRU8m5MfOgIFEGzCmkji/lfsRvwN1+4M7wle3E+oVirXyZfN09h1t9e/behbMx+B3MoP2t/7S9onB2FaTtEwEEENhsAssexG42XbVHYBSBwTi2WKK6Bilu1VV9d0LjuxeK8fKE6wvh7CjYXkcAAQQQ2BACyx7XCmc3RCTVRCARiJ3K3oaz5czcC//zQrgw1yzccjvL7hQTJ48IIIAAAvMR0F/Px8/aCCAwmYB+ZjIjSyCAAAIIzE9g2ecb4ez8bWQLCKwVgdiprCKcXdQ+l90prlVjKiwCCCCwjwnor/dx4ygaAgeEgH7mgDSkaiCAAAL7nMCyzzfC2X0ugOIhsGgCsVNZVFC6iu0su1NcNG/bQwABBDaVgP56U1tevRHYOwL6mb1jbU8IIIDAJhNY9vlGOLvJdqn7RhKIncoqQtVF7XPZneJGSqHSCCCAwBII6K+XANUmEUCgQUA/08DhFwQQQACBJRFY9vlGOLukhrNZBPYrgdipLCooXcV2lt0p7td2Uy4EEEBg3Qjor9etxZQXgfUjoJ9ZvzZTYgQQQGAdCSz7fCOcXUcrlBmBOQjETmUVoeqi9rnsTnEOtFZFAAEEEMgI6K8zGJ4igMBSCOhnloLVRhFAAAEEWgSWfb4RzraA+xWBg04gdiqLCkpXsZ1ld4oHvf3VDwEEENgrAvrrvSJtPwhsLgH9zOa2vZojgAACe0lg2ecb4exetqZ9IbAPCDz+5HfCqxdfW9uA9jtbJ8OVN97YByQVAQEEEEBgFIHYT8f+2g8CCCCwTALGhcuka9sIIIAAApHAXoxrhbNcQ2DDCDx75m/DE8ePr21Ae/bcufDMD38ooN0wb1UXAQTWh0AcwD7zwzPh5VfOrU+hlRQBBNaSgHHhWjabQiOAAAJrQ2CvxrXC2bVRQjU1vkUAACAASURBVEERWAyBK1feDD947rnwxHeOhzg1f93+RQrxgj/OlFi3sivv+vmmzbQZB6Z3IPbPgtnFnLNtBQEEJhMwLpy+n3Zuw4wDHOBAPwf2alwrnJ18vrcEAggggAACCCCAAAIIIIAAAggggAACCCCwcALC2YUjtUEEEEAAAQQQQAABBBBAAAEEEEAAAQQQQGAyAeHsZEaWQAABBBBAAAEEEEAAAQQQQAABBBBAAAEEFk5AOLtwpDaIAAIIIIAAAggggAACCCCAAAIIIIAAAghMJiCcnczIEggggAACCCCAAAIIIIAAAggggAACCCCAwMIJCGcXjtQGEUAAAQQQQAABBBBAAAEEEEAAAQQQQACByQSEs5MZWQIBBBBAAAEEEEAAAQQQQAABBBBAAAEEEFg4AeHswpHaIAIIIIAAAggggAACCCCAAAIIIIAAAgggMJmAcHYyI0sggAACCCCAAAIIIIAAAggggAACCCCAAAILJyCcXThSG0QAAQQQQAABBBBAAAEEEEAAAQQQQAABBCYTEM5OZmQJBBBAAAEEEEAAAQQQQAABBBBAAAEEEEBg4QSEswtHaoMIIIAAAggggAACCCCAAAIIIIAAAggggMBkAkU4e+zYseAfBhzgAAc4wAEOcIADHOAABzjAAQ5wgAMc4AAH9s4B4axgWjDPAQ5wgAMc4AAHOMABDnCAAxzgAAc4wAEOrMAB4ewKoPv0Ye8+fcAaaw5wgAMc4AAHOMABDnCAAxzgAAc4wIH96oBwVjjrUxEOcIADHOAABzjAAQ5wgAMc4AAHOMABDnBgBQ4IZ1cAfb8m9crlUyQOcIADHOAABzjAAQ5wgAMc4AAHOMABDuydA8JZ4axPRTjAAQ5wgAMc4AAHOMABDnCAAxzgAAc4wIEVOCCcXQF0nz7s3acPWGPNAQ5wgAMc4AAHOMABDnCAAxzgAAc4sF8dEM4KZ30qwgEOcIADHOAABzjAAQ5wgAMc4AAHOMABDqzAAeHsCqDv16ReuXyKxAEOcIADHOAABzjAAQ5wgAMc4AAHOMCBvXNAOCuc9akIBzjAAQ5wgAMc4AAHOMABDnCAAxzgAAc4sAIHhLMrgO7Th7379AFrrDnAAQ5wgAMc4AAHOMABDnCAAxzgAAf2qwPCWeGsT0U4wAEOcIADHOAABzjAAQ5wgAMc4AAHOMCBFTggnF0B9P2a1CuXT5E4wAEOcIADHOAABzjAAQ5wgAMc4AAHOLB3DghnhbM+FeEABzjAAQ5wgAMc4AAHOMABDnCAAxzgAAdW4IBwdgXQffqwd58+YI01BzjAAQ5wgAMc4AAHOMABDnCAAxzgwH51QDgrnPWpCAc4wAEOcIADHOAABzjAAQ5wgAMc4AAHOLACB4SzK4C+X5N65fIpEgc4sJcOHN+5FsK1nXB8VD98fCdcC9fCznHtspftYl984wAHOMABDnCAAxzgAAc4sHcOCGdHhQJe92kJBzjAgekc2N4N8Wd3e8xJrFimDFwH4ezxUOa029Xj8XK/wtnp+PMVLw5wgAMc4AAHOMABDnCghwPFZdnudierce8dO5au3aprtmPbIV4FNq4B4wbGTcLpUb7lBcNl+RvlHVGe4nq1uMKd7r9rO4nNmOvi1j6Fsy0gyxOgf6MoA1Yc4MB+dqA4Wefnp+KkXp6U85cbz+uTc3kyDLvboQ5nixA2ntCPh+PbcbZsKE/mwtnOwdJ+dkPZ9F0c4AAHOMABDnCAAxzYrw5U12KNC7V47bUbdouLsPYb1e+NEHfNw9l4vVnVNQ9oxwfSqT1bQXS5UtheQK4onF0ARB1PEtUjFziwmQ5UJ/kqgC3D293yJFUFr/mnhymU3U63NYgr1OHtsXAshbJFUOu2BpvplL5Eu3OAAxzgAAc4wAEOcGBZDowLI8e9N2nmbHktmIe81XXhPsveUjnLgLaaaJRfkxblHRFm59VrPx/aRj+HhbP7TJBlHXi22++AwAknDszgQBGmlifddJKL56h4oktBbNd9Zce9V7RDCmndc9YMWudqDnCAAxzgAAc4wAEOcGBuB4prsFagGCfSdL2eFqtnmOYXe+UFXzjWcVuD+jovLj9jWLmU6/Jq4lBZnxi8XgvXdrZDWa2uSUFVOFvPHB4/c7au9wyeCmdngLYUSZRj7k5Gu8wQqvGOd1M70PHpYTzhZifqOpQtzuatT0qrE2I60Q8ed8N2FvIKZx3P+nQOcIADHOAABzjAAQ5wYLEOFAHibhVIVo91OFsFqcWlXXbrujqcLa4dy+vB8i8jh29t19jWfglniwpdCzvVLfQa9amuT8v6tFkLZwUmUwcmbYn8rhPnAAf2yIE6cG0FsdWnqGUA236vY1bt8eOhuNVBuqF8sd2uTzD3qF76YediDnCAAxzgAAc4wAEOcOAAOTA2nB3MnGk8a4SZPb4QLO1jnpmki7yWL8oR0mSg/MvL0sSj4WvVcv/p/QaO8b/MOFPYzNkDdJAtUl7bEv5wgAPjHRj+lLT7LDUcrqaT4051z9n63rOpP06fsApnDYSTEx65wAEOcIADHOAABzjAgbkdKK/Fmldujdmux46Vf+Y/aebs7m64FoPI6pptN36jWPXn/+XlXHWrhBnDyvHXotNcq2ezX6tJRSlsLibUTjsxqLWNRZVTOOvgnvvgXpSMtjNNB2NZvqzagTKc7f7zj6ps6c9HWveMLV7e3R7cj3bEcvUXg7XW1/arbnv75yAHOMABDnCAAxzgAAfW0YEinB11W4NmZlv/lsLMor4p0YwzUWOeVl7chWLiTRHOlmFoO/BdHavsujULVlM1BtezWYg7JidME42KuhfL9VtvUv2Fs2OgT4LnfZ0xBziwuQ7MOnN2cHIsTmzFJ6nla42TfvXnMmlEMDhpcm5zndP22p4DHOAABzjAAQ5wgAPzODAqnM23Weat21Xwmt0GoHjjWrh2LX7P1/Fiol+6piv+GrKebVv+9WS9nRXmbmWYWv01ZxXOjrrGbCx7rLoNX1p4isfEJmc66blwdoWSTGoc7+t0OcCB/evAIGQdWcbq5L2Tz3wtz9DFp6zpRH68CGLjCTMPfNMN24dvizByf/pzfwnBAQ5wgAMc4AAHOMABDnBgpANlANlMGq/t7ITd5kut3/J7sg5mxsbrshTAFtuN4Wx2vZfeW931WzWrNd1aIQtnmxODUu5QXY9Wt2dolrvjvWp7s4SxzW0fC8JZB+3Ig7Yty97/Xh1Iabp8IX6foKbZWeTlHoRB6eDzmPPxnA/9HciD1Na5u/Hr6GN24vHY+5jXbv3bDSusOMABDnCAA3l40PShHN90XrRnF/WNoc6IXzq34dpzCdeerv2aDju+8ejnwOTgdNSxlb8+6DNTOJtvNz5fRHC5iDYtylf110P9c3bdWZQ/ZVBZn12+Xm0g++vPkILfbNlZyjtbOJsVvNhpo5Sts9OIgpZgUvpeNm66efAsFbFOvwNwzzglJ2L7p+ctNYpfOz+ROBbKe02GeCSH41HyxmCoO+wZv5uST7HMqH22D6a0z1SG9vtDv6ewqrt8jWOl9zb3WbsO1Vn59uyY2nfsS9/HnmyLA2708SCcdfxs7vGj7bU9BzjAgT13II3tu65J0ti8fZ2bj7/GvTe0XPZnwPl7ntfhbB6UNJoktUX6k+Ls99yZua79RrpwLezsjJo/mLKLeOxW+UWj4KN+ydcbcdyn8oyoa17v8vmCrzvT/kdVof16Xs6+x0Wn+x0cW9fq01y/N5bN6jQUxBVlSQxT5eI1S/u19N7gcey1T2cdR7T5ypbtYB6rt7sT4nc1j/7JPS63UbAooQ/+KnJ3J2zv7oad42k/o68Fh71eDqu8r7kWv8QsfQFY3gZFPaqyZnUalPF4OF78NWiqV05qMXVcYDibN1YJdfSFd1WhdOBVB073QbOcBhpAtv0Gi0LEXLTJz+t2yzrAuFb9+gi5i4M/OZAfGMc6OsXsBFB41bFeuZvt+mRZdpzltsqyZJ1IY38dDrTqMkQhK0/5yXu1RP16Rx1KKPWApMF9Unm8j9u+c2CE48MHS2jc1iCrx+hzRHVMFsfhYk528xxvZbc4ohypr2j3SZ196eA8OXabGaN5yn1Q1x3LblR7FEy7BlODDwHTwK0+d2mHif1up+aNPqA6bsa2S8c5GPuJ7Ecd39N43N1+qZ+q+vh6XKOdRjEf93qv9kjHR9exE4+F9H77POM4mf44KVhW/VJxAJS+N8Yj2etDbZvaotFWo39xPhnfb0TuQ9drkX/W7zTapuV82VQzXvvlLqTtDr1W9oNLD+MmeZXxWNh1ZwEvm9FYlaHpbHf9i1XzMh0/Hop7jYb82Bp9XBTv1P1Z8/p80KYDd6qiDjaY7zu1XfE4prz1/gbbPVZlDkWdy0qNvGZp9gVpPJnOl/k21+v5SN4142b7DDik17eLQDcdI8Xx2sG6az+DbS2bWdVedZ26PSnK3jFbtlnO1PaljmW9m6+FdBw03OxXxynD2faOqwN66IgZHDt551pXrCV/CSJbp/U0NXa9/gwVtW4/IUZxKpusmsU6kX8pfN25l0dj+U1+9bqVS0MHb/fBUparXKfTh3EOFj7thu2OE1/Xtkofu4OYtJu6bnV9qptFp4O+2lex/dbJbtz2R/H3+nz+4rdIfsPngaGTUDpQ8r48HRujjpns9bq9imOn+1isl+lab8GvldUZUY7Ur2R9Wap+s5+IfdtgEDd2mwsu/16y2ot9jWXX0R5FmQaN0ryYj8tXbqaxSLPdFnnsHPBtjWIffR73Ht+bTs7Jo5fHqT2G+uW8nyrHY53j+DnLuBf9xH7Zx6T2SO83x6PxPJudc1J7ZeeZ/VK/9SpH1/glH6iU17XpdDF4Z3DuLvuyrG1GHQtVmzmfjD/vRf/jLLbd6l6XxWP5LUPlX06mmbODxojTf7Jvh2+80fplwrVfOq5aazXGtHvQjmUf0O1UcrHLo2K91IdX5ex/3Vn173mf0lnXcrlm/1TdXzTtOzsGGmXKXh/fTzSv74s65+XK7mc6fjujyzX6uC3rF/mW7VC6VT4fEqN4YcCig2HvOo8/LibVc5HvD/OOs0OrumUIBvXOxnTFZLy4bNZHJmmzdcun3Y4vsi7TbGtUGzfqmdqz3Ve0/Gzvt0SQMUnb6fE4ZThbiVQUcFbA1YmxrlQ6KJoHZruSfl/tQVxI1tEJd7dLatOqzOVR3yucHXSMlSf5PuvttB0q91O+PebT03r9wU2rG+VPB961a8VU98bJOZ0YiklW5bcSNtZNg4eh8pbHSbHr+F7xJJtV3OMgbe/H76s9FvDfPP7lYTvinJf6jXROS7/nfUHHcT52mx3L827g3Vh2iX9qj8iy6nc7B1wZ6zRQ67oIwn/AfySLLvaJ77j30jIeFxLSTvS4d1tUF2cT+rKRPmjPoj3Ht0fFOL+w7eLWu816HKdd29+k1wqW1fm8ODdkYUzhenY9mi+bGKW2GAoeul9wPhnvZDw+ii8higFtvMa6di3s7i5w5mzWxuXTeJ1YlWlk+0Y/qmvNVrNOGkfU2077GPeYXFrBdWc5LGqFR1V5ms6WfVS73sX6Y88N3fwGOPN9dywbx3BlIQertJ41yzkY6w29XrXBUPsXr6fMoipDNXYs+u2h+g2zKPv3EdcH49ree4PjEIsGiwWEs2lgkY6Y3bDTullF44BOB1ol/+DgLg+KxrIaq9FYU3X4C2Y3aKcxJ9nUtkmF4nE3bHe+Xi2UX0DXJ4WWU0XnmDrE5rcI5h3w+N3kgWyHa9XKg+2lMsSTx+Ck0elnx44H24m8Ova34PZZpRv2PeaY0M77pg+bx9PyEB8x+EqD69SXpd+HBnVNT8ZukzdjvRnLLvFP7VH33/mFQLMtkhvjQ5TuddK6HrOZFDX7jNlQu2Tv8X2s79O6NcnjscdPoy2qcdCEvmza8m3a8uPbIx9rjjkmHD+LO0YSy8a1SvVLdL14fzi83TRv96q+6fgYao6s3ymWyX7Py1b2Z0NrFy/Ea7Hi/eKc1HEtNtKFQTg7uO5rrT9ux93FKV6tt1etP7hezPuCZV93Vvtqn6tH8hhRobpNUtnTcgN+nd8nVDZKa9JWR/+XLVd6Uo3jitdbY/Kq7DXfxrksbbss54B5fL16bWencQ/SkV4OTdIawbJz/6kcHvNj2POmDwsLZwvRq4OoCGeLA7bVkeX3Eo0dQrF8mkU46IjSoV0+tg4+si9ugDIFy7If7Hlbg6pdx3eQTRHjgVmtVjR7vm7+enyzfq94Y3DBXf46auZs3iG3vRwuS9lRVB1uWaKJ96Apy5nKM8rnyuqd7tm3OqhRbeF1bqzOgfLYHnEuSoPZepCb9Rv1a8NlH7vNKfrmTfRiLLt2e/QasJftkwbjzYH7cNttIvNedW6zzz0e916+nOdzj/HGezzNhWS1bH0B7ljodRy0HB7fHtlYcRxnx8/cx0XddgXL6nxenEzKcXvRTtd2yvtmprbI3i/WL08+5UB+iv/r65aWG3WZvD4IybaH+5nUNsUXRLdYlU00+7XfYP2439jnpbFedmxmbT2xLatjdbZxRDZ+rMsxzCN5U+o4w3Vn5fFQGTvLXpapXe9iE+k4qdskP2dU/LrGwSX03uHs2El/cd/T9I9DdSzLvLudHkfzTtzbj812mH799vb8vtkM5wtnt3fCTiXzoN8aM3M22ru7XX+KVR6b6c8LyoO4ffATdH8IWrTVUCfcXbayk4pGpBPc8HJpsFrfN6ju2LNlqw60cKJ4Pnp70ZPBfgc2pmfxHkbpvoL1p2QdA4Dk26B8xc1UegwKqxNSUe0YYuc+j3qe1bWr/l7rwR3D5KzH5blQ9i0j+p+uQWGrM+o6r43dpmN/7LE/ll27Paq26GqD9jGT+v2hCxbtMbY9ao5t9jm3ce/ly3nej/UYTmM9nqod8gvt5fWvtT9j6rTOy4xtj1jn1Cb1gDVdF2XM0zJdQccB5ba0Nk8sE+/88dpO2CkuVUv2Rdu1r32K9VvjgZGvpQlIWVtqr0Yfl46PvBmK55F7ayyVlsnP5yMWKRadeO0XV06BfLxrZvFr+eVG6VvrB/vKr+Xa7ZkFe5Vf5Tgivt5yZUT7Nzj0Os5nv+4s95VC3awujbKn18v9DDiUrxfcW8dGud1U35JXn5mzjbqnRo7c4sFY3fJlZJnTX0dFZuNkSNutl0v1H7RdsY9Yp4pDWmX4MdWxZNGsd+LmcWl9+Ihj6KDsb45wNqralLMvlOLYGep4xnV6BO/LdlnLdXXCnftqd2jXdsPuteFubfAFE/Gm0632TZ1r1ekPOuSqoy/UGzOLtyxsx0zX2AGnm8N3uJv221Hc4ZdSp16WvSzjYKlrO9XJffBS41n7JNfJ8oB3Purc8l57Nwbs+8mPsmvo6DNim6U+b8Q5bXDgN9cfu00ujHVhLLt2e1T9ep/ANfXjfZbdT37um7K02ecej3svX87zse73aeuxHlft0G8MUl38ty7A+5TBMoPz+9j2yHyvuqr6lNHohxw/cx8Xw06ODo9im8VjpGiT9rk9tUXdUuOfNNoxa+/h8gyc2cz3BiFZXf+yAbIZlmOygmLZ5jir3M7oa7/BMRfXq/q72JxFn5ddc2ZN3NV3lsd4te/Kj6Ldt+PEoLhy85qxWb9s42OfNreR+pW0yjTXnWW9m9srypSXvXa15NKud4k7uxavYA6W6+aXyjvEpNh3q/2KbVblHDruWsvW5Y3HUdex3fVaXDbzLpUhtluRccV1snatg9vWvqu6O9Y3vQ9bTP2nD2frg6MlZnVQlJ1FxwGfHTTlsdb+ZLg8aAYH9WIqWHeA2f69Nj3bos0mDtBTx1fe1L34E4FrMQwd7G/0dqp1Y69dDYTqE091kjxefIKWdZJFDz/sWtlHlq83XKvcLW403zhRDvYdO9ZJDg+/3zyhb+/shlj3eOvl0ufc7fz5gAsnseDA/nWg7FO6z3mjw9lUn0H/kn+gOXabzldjL8THsktjlHRBXS48uB3OGLbpnGOAndyd8rHNPmc97r18Oc/Hut/nPDHW46naoRrbTBz7TenJhrXx2PboYFF1WeUIN/2F11Ttpj36HCfp3F2M0wu+g3N80QbV5JKh69LWssW+Rr5m5myvtiiOgywkS8dF0RD5dd7oa6jyuJnm2i99uF7N0IxjhriRNJN2dye7jovH1Kh9V/1kGnNUx2o9jqh+T9e2JY/BuHAV152l31mwmninsg4S1PHP6nPDoD7lCulYql5PbOJ+yp0PTaAavrZOy+bt37Nva7dBUb/x7Ve2V+Vgcf/ZWIeBk3X5im2n+lXlKeULdZsnnh7nHs/07z96urEGbTJlOBvFzmcetg/GUcdw88AqHM4P1OygGd5C6wBYA6gHUaSRHXnWHmXH1ezM2iwmbqfq4KIHgwFR8ixuO8607ehgs/WGHSq2VpwI6sXqE8rwwVx3wFnd8nq030/13o1ThOvt5mUc9Xx43/l+PMeHA/vDgfIYH3GRVQ0CB/1VV5lTHzbo18q+yPltFsena4/qwqnum7vap3xt7HZHnA9mKf+BXSdd2A2N79JF8ODD1wPLYB94Mt7j1Bc1x+Xd7dH/2Olef/SxtknLj2+Pbkb1WDUdS+OOrX3g3Pq0Z/K/+0qheDUyT7yLLqvVRtl7Y7ZSvyWwafFr+DquPZp/1l46Vi5fj7fqA6XG3XpSjrHqxRrjgPa+r1WzXNMmyt/rfY0IZ4fGcpUfebtP6gPK90f3ye33y9+vhVmvO4syN1hUbVS+0QpOy/PAgEO57KhttMvaDGMr5qlfy1woOSb25Vh5sK1YhjIDGEx8Gu3VYL18me56NGbOplm0dTg7+EK5onx139Aau1eFz9t8ffrEnJHn+6Hdpgxnq0YrOp6mmNu75e+DAyIegM1lUoVrwbODcvQnUkRJ3Fb5WLRZV0feaMPtsFt0uGUHWHZS5fNBd9t+1u1IWdfBuvVJIQ2KOstSLV+9V/aVrZNdtX69vUb5S9cGDne7N/x+We/i9WLfg3K3a5v/Pq4Mq2xr++5ud1w2mMuYfqPsD0YEt1n/0l6u7J/G9X8bzDvj1nncTdkeif2kPjctZ4A9o3vp/Nxx4VWHHV3vTWpv7081+2Six2XnU/+VUucxVjBvjqlGLzejLxvSrhPbo4tD1UZ1nzXu2Opa32tjj5lGm4w4n3ReQ4ziWmzD+XzhfUTRCPl1XCucLdqj2U91ttuINh5f3nZ4W17B1cdk3Hf7OI2vVftqjiOqbXVeu874F5u72+Vfes5w3dnJ6NiocpR8G/VO3/MyVJ+qLapZx/k1b/fzvG3TeWTQxkU54z7q42vw3ui26y5vCmHb9UivF/cnjoXMA9jiL3abJS+Xax7rZX/SfG10+VI9PWLU7cBiwtmscyoFjbNrt6t7jQ4feMXiQwP0PgdcdyU07vK51B3kqIFJ4/WyY2yemMoyTtxOdVIru8LcnarDb8yobdY73vagvLfPoCNtd8KVqtkM1+Y2oku1w406DZYb9X7xen2iGuXzqNcH2+czFpviQHk85sf55ONvVWxS39Ho11J/lZ/P4mt1P5BcTv3XoK7l9gzmZm3P3u1R9eNp+fY5If0ZY/wW6LJvnxy0z1rmA79e1/GQzqPj3kvLeBwbKPX1p4/HaZnmn9qmYCH1U1W/NdSfpX7NY582Sawb547a9cg48U48y3FifhucFPgMtVe9nbSux8ltEm871v4yjFYbpP6qY+Zsas/BlcaEZ/n4QHsN9XEFz+oWEmXwtRu24wk79jvFiTtvm+FrqLmu/ar9xAwu3bO1LkPRVoP9lYseH5Q/OdLuH6vXh473oi7ljNC2o6VTeT2bx/Go90t26fYEg7I2t9/xelWWdhmLl9v1qWaTtsdOXcuW5eyuY7NMzfo13yvPO7vbZbmLPq/cWfHXs2nmbPHS0LE17pyVttved8frRRsOxueNfbXei2Uv3h/qx9v78XuznfEYxWP+cLY0sr7PRrMDqQ6s1oHekLw+UXV0HvV7GnBUA+7V60Wbtdpx9L47OrqqLWfZThr2tE8MXfuvdCxO6uUHXoOTXfle7Gy7vUzbSyeXtN/ux8F2G+vVjEb5POp1jieOHve/C5OOkXisFsdbMXAa4Xx1sMbBYfm0PKY6t10fV6tl01W2oX4pDdjbHUdrEFlVv71U0XfFoNBxMJlBr/bIWY5qm8qvru2VDTTc32ufjvZJfFuuF6zSe8PG1+NHTDuY5v72fN7f4+pCdqhNku+j3p/34nsx9VwXX8a3xwjG7XOe42ex58SMZ5oxV5/L03uxH8vGKWN9K9YZhDljl+15HG/KNgrEu9vFOLAOSLfjcZFuazDUQWW3vSv7kno8dW0nTHPtl+87hoDFsVqXpRrHht3i3qPHiy+Jyvq+YhJa6iuzPq3ypx18xvaMf2UcQ8d2247uI/K6D++rWK/uK0aMtTtvx1D1O/m5uip3fRzUnpbLtl9P7Oq6VI1wbTe2XPwZLm+9bL3tjFv9Wrm/dFzWIW1Rz1TH/Htdqm2k47bm0dr2yGO02l+6v3csR2vZRl1b76WZtz44a/Gu23OfvZ6139Bxl/qAxmHX/o6sNJEj97v7GOnn+zCfqcPZ6tirLiCHC1NWNCtwhNA6UBqS142XDrjhTmvWyllvuMHHMynbM3ey3/OsvYv2HHR0Q+J3bLDR4RcHzWChxnu1Kx31SmK2XKs72OJs3Rw4xVW6tj/kcGu/o94vXq/3P+zzgEWzHOPbpKOurfJYH6NVOZD35cXz2v/BfZo6b1lTHa+DYLY65usTY7tP0caramP75R4HOMABDhwMB8qxeRxxtMOzcjxTfglUI2gprkuqMUk1dhlcpfR71nWtcTB4zntcDK4XS/4ppK2ygPLFsF1f97SurVJ7ZGPPgmsKYMZe+w32XVyf5UFl/Zc0rbFo7kJdphaD6jq27de49h51XZnWGfV+8Xpd9xabug7R0eHrznKbyEgCcAAAIABJREFU2esj61ZyKh0eHD/NY6h6PWNYbn/S8ZHxTW1ZFLeaNR3rVrw+KOdgscFr6UOUoeOsaou6FFn5EtsUrjbaq1hvsP1in/X1SfEnvCFNohjiOMqL/fp6m1EBa1D3ke1Ye9fyv/owoGaenoxcvr3+kn/P2raoW1Wu4nlq49ZrA1di2crjoXGOSLOnF1THqcPZZgGXDHC/iqxcQ5/68cKxwIHNcyANWGLbl+On9OdV48LZEYO76oRZfMHBzJ+4b14bOO60OQc4wAEOcIADHOBAfwe6Q6b+62OdbjczFAqvSU6Ugtdm+eM12nA42wiv64Q8C9djndPr7RA8Xt8tKLic2892OJvC4/iYwtnWa419lhe7rS/NS3UfcGusM6UPwtkpgc0D27o6cg5w4CA5UJyjqpNweb7qE85OcKA4ceZnxuKMmc2cmLC+Pt2HZxzgAAc4wAEOcIADHBjtQBpv75fgbJ3aKrFrB5FrU4cqnJ8wGSYFuI1wNk3Iyf8CoQpmm0Hvfrpea04MirPJi8lArVmyXbNpB9ft2Qzxqr7tq9Xm77OFtcLZtTmI9pPgyjI4ULHAYvMcmHhOqu7ZVf7ZR3kya5ywR2ygsYy+efSAGhtsOMABDnCAAxzgAAc4wIGpHZgvnE2hbXndloLP1kzaqcu0/OvpvNzpeR2oTpg5Wy9fB/KRYUcAG4P7OT7wEM7uQ3GEXcs/ODHGmAPzOtAMXYu8NTsZFb8XJ7DmcgX3cuHsz0KyZcoVzZR1bjLY5gAHOMABDnCAAxzgAAcW6kAKVJv30G1fG6dAcuzM2WoW8TpMsCkuMWMae20nbO9cq75Dq7weLupaB6/VF3+l39NM6bhu67U2m/L2Dh2hbc/2E872BNWW1e/zBjvW5xAH1tqB6kSVTkpl3trztgb12bH6vHK3/BKO4sTefq86iaab7681M+cbg2sOcIADHOAABzjAAQ5wYJUO5IFjHjpmZeoKZ9NrdUhZXbft/3A2zRa+Fq5dG9zWoPjewOpytH5I4W0KYrd3iy+RL6qaXqu+HKxd75LP7LOIhbOZgC76hWUc4AAH+jhQfeLanimb/T7gmM2KTf1tcXYrP1WsT/LFB5nHqxvKz35SG+y3Tz0sgxcHOMABDnCAAxzgAAc4sHkOtOfEpEk30YX8Gq0OLvN7zcbrumoD+Xr70qO6ojGY3a3vORtn0MaAtahrDF5jaN0OZ6vr12ITdThbXQvXv5fuFNvpvB7u55ZwNoUFHn16xQEOcKCfA+XZafytB+qTYDydN/+8I3+r/MSx/DSzeD607ew97dOvfXDCiQMc4AAHOMABDnCAAxzo4UB+bZaC1hTOpt87Q9dqxfYM0s5le5RjOetVE4V2411is8lBKYSNV6rXroWwuxt24jLp9VbwWl6ibtc+tX+PZe96bZo6CWdXJkm/9HyaxrQsphzgwCodKE5Ikz4trP6MJp3E04m/DnDbf2ZTfFTbDHdXWUf7doxxgAMc4AAHOMABDnCAAwfJgeI6Ll53VaFkukYbG85Wf94f7+O6f29BFyf67Ibt4hpzOJyN16RFXWO9e8+crWYWN+rdPZt2GkeEs8LZOv2fRhzLOhlxYJMdqE4++d+4jH3eL1yNg4IU2vJrk/1Sd/5zgAMc4AAHOMABDnBgzxyo0tl0LdYvnB3c/iCtt2flnTbHGxHODl3C9pw5W97SIb8V3/x/7SmcnbZRLS/M5QAHONDpQK+ZswW76s9Ldo6Xf/5RfOq4HbZ3d+PHtdntEuY/ye3bAQKHOh3SXi5COMABDnCAAxzgAAc4sCwHqpmkjWuRNPFmMKGmbzgb2ynNuh0KaMuZN/tjVm1HOFvO9i2vN4uQtpoJW8+kzRgVdcxvdVBe+Iad41U7FduPE49nbzfhbAZcBzC7SNhhxwEOlOeoyX/WUiwXroXd7TyczfkNwttyYDAYKPAs5+Q5HzjAAQ5wgAMc4AAHOMCBvg5kYWQ+bbTxJ/qDGbG9w8YqnMw3mQeeK2+fznC2mghU3HO2uq1B2A07O/EetIP7y8ayD4Wz2faKurXD2hlyRuHsDNBWLpYym3HFAQ6szIH0yerQqXfCC9WM2DKZHXyqWP0+vHIKZAdBrb6376DLclzhAAc4wAEOcIADHOAABzhQOJCFqcXkn2u7YbfIYKsgughjB8F1exZwGc7uhJjb9vlpr9/HQ+HsygIOB0kfQS3DEw5wgAMc4AAHOMABDnCAAxzgAAc4wIGD6oBwVjhrBiIHOMABDnCAAxzgAAc4wAEOcIADHOAABziwAgeEsyuAflCTfvXyKRYHOMABDnCAAxzgAAc4wAEOcIADHOAAB/o7IJwVzvpUhAMc4AAHOMABDnCAAxzgAAc4wAEOcIADHFiBA8LZFUD36UH/Tw+wwooDHOAABzjAAQ5wgAMc4AAHOMABDnDgoDognBXO+lSEAxzgAAc4wAEOcIADHOAABzjAAQ5wgAMcWIEDwtkVQD+oSb96+RSLAxzgAAc4wAEOcIADHOAABzjAAQ5wgAP9HRDOCmd9KsIBDnCAAxzgAAc4wAEOcIADHOAABzjAAQ6swAHh7Aqg+/Sg/6cHWGHFAQ5wgAMc4AAHOMABDnCAAxzgAAc4cFAdEM4KZ30qwgEOcIADHOAABzjAAQ5wgAMc4AAHOMABDqzAAeHsCqAf1KRfvXyKxQEOcIADHOAABzjAAQ5wgAMc4AAHOMCB/g4IZ4WzPhXhAAc4wAEOcIADHOAABzjAAQ5wgAMc4AAHVuCAcHYF0H160P/TA6yw4gAHOMABDnCAAxzgAAc4wAEOcIADHDioDghnhbM+FeEABzjAAQ5wgAMc4AAHOMABDnCAAxzgAAdW4IBwdgXQD2rSr14+xeIABzjAAQ5wgAMc4AAHOMABDnCAAxzgQH8HhLPCWZ+KcIADHOAABzjAAQ5wgAMc4AAHOMABDnCAAytwoAhnL/3d1eAfBhzgAAc4wAEOcIADHOAABzjAAQ5wgAMc4AAH9s6BIpwNfhBAAAEEEEAAAQQQQAABBBBAAAEEEEAAAQT2lIBwdk9x2xkCCCCAAAIIIIAAAggggAACCCCAAAIIIFASEM4yAQEEEEAAAQQQQAABBBBAAAEEEEAAAQQQWAEB4ewKoNslAggggAACCCCAAAIIIIAAAggggAACCCAgnOUAAggggAACCCCAAAIIIIAAAggggAACCCCwAgLC2RVAt0sEEEAAAQQQQAABBBBAAAEEEEAAAQQQQEA4ywEEEEAAAQQQQAABBBBAAAEEEEAAAQQQQGAFBISzK4BulwgggAACCCCAAAIIIIAAAggggAACCCCAgHCWAwgggAACCCCAAAIIIIAAAggggAACCCCAwAoICGdXAN0uEUAAAQQQQAABBBBAAAEEEEAAAQQQQAAB4SwHEEAAAQQQQAABBBBAAAEEEEAAAQQQQACBFRAQzq4Aul0igAACCCCAAAIIIIAAAggggAACCCCAAAJLC2f/9vKJ8OCPPx/uOf2vwl3PfDAcPnGo+Befx9fie3EZPwgggAACCCCAAAIIIIAAAggggAACCCCAwCYSWGg4e/X6lSJ0jUHsx06+twxktw6Fw/FfFc4Wz6vf4zJHt95TrBPX9YMAAggggAACCCCAAAIIIIAAAggggAACCGwKgYWFs3/10/8YjmzdUvw7fOKmQRibQtmRjzfV68Vt+EEAAQQQQAABBBBAAAEEEEAAAQQQQAABBDaBwNzhbJzxeu9zR8InTr2/OUN2ZBibzaLNl9k6VGwjbsss2k1QTx0RQAABBBBAAAEEEEAAAQQQQAABBBDYbAJzhbMxRL372Q+F27fePcVM2RHhbBXUxm3FbQpoN1tMtUcAAQQQQAABBBBAAAEEEEAAAQQQQOCgE5g5nE3B7HS3MBgfzKb70t721CEB7UE3T/0QQAABBBBAAAEEEEAAAQQQQAABBBDYcAIzh7NfffGuhc6YTcFseowzaB/88ec3vHlUHwEEEEAAAQQQQAABBBBAAAEEEEAAAQQOKoGZwtknX30oHD15y8JuZZAC2fZj3MfTFx87qOzVCwEEEEAAAQQQQAABBBBAAAEEEEAAgaUTeOf69XDuZ6+Fl1853+vfKzsXQ1xnXX9i2X86RX0jm1XVd+pwNt7O4OjJ98z35V/5F4GNe751qNiX+8+u66Gg3AgggAACCCCAAAIIIIAAAggggAACqyYQw9YLl66G3St/3+tfXDYGluv6E8v+5ptv9S5+XDaGuav4mTqcffTcg+Fjp9679FmzaRZt3Ffcpx8EEEAAAQQQQAABBBBAAAEEEEAAAQQQmJ5AnDHbN5hNy8V11vVnlrLPss4i+Ewdzs42a/Y3whd/dHe499kZboVQzZ5dRGVtAwEEEEAAAQQQQAABBBBAAAEEEEAAgU0jIJyd3OJrEc7uvPlS+OSp9089a/auHz0UzsbbVFw/F1549Z5wz9ahqbYR9xn37WePCJx/Itz5J2eGd3b6/nBr1+vDS/Z85Uy476O3hVt7/7s/nO65ZYshgAACCCCAAAIIIIAAAk0C1fXHXU+E9Z0L1qyR3xBAAIG+BISzk0mtRTgbby9w+KmbpgpWD586Eh7ZvRzeuXElXL52pSBx9drp8NRLR8Inx91vNnvvyIl3u7XBZIcWtERXYHp/OB0D244Q9b5509JRQfCCamMzCCCAAAIIIIAAAgggsOkELoTH7oqTQu4Pp+OEE+Hspguh/ghsJAHh7ORmX4tw9gunPzz1F4Hd89K3w+UbEcCVcGH3kfDkpXPhnfB2uPDzP+o/g3brUIj79rNsAjGYvTs8VnyMXA5givC1MYDJl1lAefqEs6fvD3c+fmEBO7MJBBBAAAEEEEAAAQQQ2GgCjWubjSah8gggsGEEhLOTG/xghrPP3h2eeuNKcTuDs6+fC1cTh199Nzz83D/uPwNXOJvILf3x/ON397zNQApx5yxSFc4W++28ZcKZcF/n63Pu1+oIIIAAAggggAACCCCweQSEs5vX5mqMAAIFAeHsZBHWIpw9nN1qYPLz3wj37ZwOv7zxdrhw8Z7wua0Pha//PM6avRLOvvqp8OmptnUoHN16z2SKllgOgY6Zq+cfv7+aYTvnLvOZs3Gg9NHbwuBWCXH2rvvMzknY6ggggAACCCCAAAIIIJAICGcTCY8IILBhBISzkxv8wIWzR858Kbxw7e3wzrWnwsNnbgmf3v7zcPZXb4erbzwevvbsdF8IloLgyRgtMT+BrnvOdn1pVz5ztu86aTvZunk4WxX+9J/cVtwH6rE/yZabv2K2gAACCCCAAAIIIIAAAptOQDi76QaoPwIbS0A4O7np1yKc/T+/+7/1vBXBh8LXL54L79y4HH6ycyR88tTvhkd2z4d3bpwPZ176SM9tNAPcu575wGSKlpifQBystG8j0DFzdv4dVVvoCGfjOymg9S2qCyNtQwgggAACCCCAAAIIICCc5QACCGwoAeHs5IZfi3C27xeCfXr7oXD2egjhxvnwk1fvCfe99O1w4cbb4Ze/+PNw76lm6JpmxY59dM/ZyQYtaIn+95y9bTjEnaUMQ+Fs9kVk8b34jaqzbNc6CCCAAAIIIIAAAggggECbgHC2TcTvCCCwIQSEs5Mbei3C2Ydf/vfh8NbkcLUOZ/N6X98OT/7oAzPNmo3B7aPnHsy35vkeEYhh7Z133R3ufPxCc4/nnwj3tV9rLtHvtzycLcLY9q0M4i0T2q/127SlEEAAAQQQQAABBBBAAIEGAeFsA4dfEEBgcwic+9lr4cKlq2H3yt/3+heXfWXn4toC+unPXgtvvvlW7/LHZSOjVfz82rlz53rvNwakt2/dPDlgffae8P2rb4d3rl8OV2/Ezb8dLu8+Hp589aHWvz8NX39ucmAb9xnX9bN3BIrbCnz0tjKU7bqtwen7sy/umqNcRTj7RHjsrvI+s923MYizaQW0c1C2KgIIIIAAAggggAACCEQCwlkeIIDAhhL41fXrRdgaZ4f2+ReDyneuxz+LX8+fWPZYhz51jcvEMHdV9Z0qnP3JL0+HT5x6/+Rwdusj4eF4j9nrl8OF178bnt750/DU61c6WvNKOPvqp8InT4yfjRv3ufPmSx3re2mxBAZf7HVffi+BOpwtbzlw60fjF3stKCzNZ84utjK2hgACCCCAAAIIIIAAAggUBNLkk/JaJn1R8W2LmXCCMQIIIIAAAnMQmCqcjfv5g+/+0163Nhh7D9kJYWxj3a1D4bPf/605qmjVuQnU4ezcW+rYwCAQbg+Uhn9fUCDcUQovIYAAAggggAACCCCAAAIIIIAAAgggsNcEpg5nn774WPiD7/3TybNnpwlgxywb9xX36QcBBBBAAAEEEEAAAQQQQAABBBBAAAEEEDhIBKYOZ2Pl92z27NahYl8HCbi6IIAAAggggAACCCCAAAIIIIAAAggggAACkcBM4Wz8cq6Pn/z1pc+ePbr1HrNmeYoAAggggAACCCCAAAIIIIAAAggggAACB5LATOFsJHHvc0fC7VvvXlpAG7cd9+EHAQQQQAABBBBAAAEEEEAAAQQQQAABBBA4iARmDmevXr8S7n72ny8tnI3bjvvwgwACCCCAAAIIIIAAAggggAACCCCAAAIIHEQCM4ezEUYKaBc5gzZuSzB7EFVTJwQQQAABBBBAAAEEEEAAAQQQQAABBBDICcwVzsYNxYA23n7gE6feFw5vHZp9Ju3WoeI+tnFbZszmTeQ5AggggAACCCCAAAIIIIAAAggggAACCBxEAnOHswnKo+ceDLdv3RyOnLwlHD5x0xQh7U3FvWvjunEbfhBAAAEEEEAAAQQQQAABBBBAAAEEEEAAgU0gsLBwNsKKM16/9uPPhSNbtxSzYA+fqGbS5jNqs+cfP/nrxbJxHbNlN0E3dUQAAQQQQAABBBBAAAEEEEAAAQQQQACBRGCh4WzaaHw8c/mpIqj9wukPh7ue+UA9kzY+j6/FQDYu4wcBBBBAAAEEEEAAAQQQQAABBBBAAAEEENhEAksLZzcRpjojgAACCCCAAAIIIIAAAggggAACCCCAAAJ9CQhn+5KyHAIIIIAAAggggAACCCCAAAIIIIAAAgggsEACwtkFwrQpBBBAAAEEEEAAAQQQQAABBBBAAAEEEECgLwHhbF9SlkMAAQQQQAABBBBAAAEEEEAAAQQQQAABBBZIQDi7QJg2hQACCCCAAAIIIIAAAggggAACCCCAAAII9CUgnO1LynIIIIAAAggggAACCCCAAAIIIIAAAggggMACCQhnFwjTphBAAAEEEEAAAQQQQAABBBBAAAEEEEAAgb4EhLN9SVkOAQQQQAABBBBAAAEEEEAAAQQQQAABBBBYIAHh7AJh2hQCCCCAAAIIIIAAAggggAACCCCAAAIIINCXgHC2LynLIYAAAggggAACCCCAAAIIIIAAAggggAACCyQgnF0gTJtCAAEEEEAAAQQQQAABBBBAAAEEEEAAAQT6EhDO9iVlOQQQQAABBBBAAAEEEEAAAQQQQAABBBBAYIEEinD20t9dDf5hwAEOcIADHOAABzjAAQ5wgAMc4AAHOMABDnBg7xwwc3aBSbdNIYAAAggggAACCCCAAAIIIIAAAggggAACfQkIZ/uSshwCCCCAAAIIIIAAAggggAACCCCAAAIIILBAAsLZBcK0KQQQQAABBBBAAAEEEEAAAQQQQAABBBBAoC8B4WxfUpZDAAEEEEAAAQQQQAABBBBAAAEEEEAAAQQWSEA4u0CYNoUAAggggAACCCCAAAIIIIAAAggggAACCPQlIJztS8pyCCCAAAIIIIAAAggggAACCCCAAAIIIIDAAgkIZxcI06YQQAABBBBAAAEEEEAAAQQQQAABBBBAAIG+BISzfUlZDgEEEEAAAQQQQAABBBBAAAEEEEAAAQQQWCAB4ewCYdoUAggggAACCCCAAAIIIIAAAggggAACCCDQl4Bwti8pyyGAAAIIIIAAAggggAACCCCAAAIIIIAAAgskIJxdIEybQgABBBBAAAEEEEAAAQQQQAABBBBAAAEE+hIQzvYlZTkEEEAAAQQQQAABBBBAAAEEEEAAAQQQQGCBBJYWzv7t5RPhwR9/Ptxz+l+Fu575YDh84lDxLz6Pr8X34jJ+EEAAAQQQQAABBBBAAAEEEEAAAQQQQACBTSSw0HD26vUrRegag9iPnXxvGchuHQqH478qnC2eV7/HZY5uvadYJ67rBwEEEEAAAQQQQAABBBBAAAEEEEAAAQQQ2BQCCwtn/+qn/zEc2bql+Hf4xE2DMDaFsiMfb6rXi9vwgwACCCCAAAIIIIAAAggggAACCCCAAAIIbAKBucPZOOP13ueOhE+cen9zhuzIMDabRZsvs3Wo2Ebcllm0m6CeOiKAAAIIIIAAAggggAACCCCAAAIIILDZBOYKZ2OIevezHwq3b717ipmyI8LZKqiN24rbFNButphqjwACCCCAAAIIIIAAAggggAACCCCAwEEnMHM4m4LZ6W5hMD6YTfelve2pQwLag26e+iGAAAIIIIAAAggggAACCCCAAAIIILDhBGYOZ7/64l0LnTGbgtn0GGfQPvjjz29486g+AggggAACCCCAAAIIIIAAAggggAACCBxUAjOFs0+++lA4evKWhd3KIAWy7ce4j6cvPnZQ2asXAggggAACCCCAAAIIIIAAAggggAACSyfwzvXr4dzPXgsvv3K+179Xdi6GuM66/sSy/3SK+kY2q6rv1OFsvJ3B0ZPvme/Lv/IvAhv3fOtQsS/3n13XQ0G5EUAAAQQQQAABBBBAAAEEEEAAAQRWTSCGrRcuXQ27V/6+17+4bAws1/Unlv3NN9/qXfy4bAxzV/EzdTj76LkHw8dOvXfps2bTLNq4r7hPPwgggAACCCCAAAIIIIAAAggggAACCCAwPYE4Y7ZvMJuWi+us688sZZ9lnUXwmTqcnW3W7G+EL/7o7nDvszPcCqGaPbuIytoGAggggAACCCCAAAIIIIAAAggggAACm0ZAODu5xdcinN1586XwyVPvn3rW7F0/eiicjbepuH4uvPDqPeGerUNTbSPuM+7bzx4ROP9EuPNPzgzv7PT94dau14slz4T7PnpbuHXiv7vDY/UHL33XSdu9P5weLpVXEEAAAQQQQAABBBBAAIEeBKrrj7ueCPUlSY+1LIIAAggcBALC2cmtuBbhbLy9wOGnbpoqWD186kh4ZPdyeOfGlXD52pWCxNVrp8NTLx0Jnxx3v9nsvSMn3u3WBpMdWtASXYHp/eF0DGw7gtf75k1LRwXBC6qNzSCAAAIIIIAAAggggMCmE7gQHrsrTvi4P5yOE06Es5suhPojsJEEhLOTm30twtkvnP7w1F8Eds9L3w6Xb0QAV8KF3UfCk5fOhXfC2+HCz/+o/wzarUMh7tvPsgnEYDbNbC0HMEX42hjA5MssoDx9wtnT94c7H7+wgJ3ZBAIIIIAAAggggAACCGw0gca1zUaTUHkEENgwAsLZyQ1+MMPZZ+8OT71xpbidwdnXz4WricOvvhsefu4f95+BK5xN5Jb+eP7xu3vcmiB+6pxC3DmLVIWzxX47b5lwJtzX+fqc+7U6AggggAACCCCAAAIIbB4B4ezmtbkaI4BAQUA4O1mEtQhnD2e3Gpj8/DfCfTunwy9vvB0uXLwnfG7rQ+HrP4+zZq+Es69+Knx6qm0dCke33jOZoiWWQ6Bj5ur5x+/P7h07x27zmbNxoPTR28LgVglx9q77zM5B16oIIIAAAggggAACCCCQExDO5jQ8RwCBDSIgnJ3c2AcunD1y5kvhhWtvh3euPRUePnNL+PT2n4ezv3o7XH3j8fC1Z6f7QrAUBE/GaIn5CXTdczZ9IVf+uNiZs3m5T//JbcV9oB77kwXtI9+45wgggAACCCCAAAIIILC5BISzm9v2ao7AhhMQzk4W4ICFsx8KX794Lrxz43L4yc6R8MlTvxse2T0f3rlxPpx56SP9b2fQml07GaMl5iYQByvt2wh0zJydez9pA/nM2fRaCCEFtL5FNYPiKQIIIIAAAggggAACCMxHQDg7Hz9rI4DA2hIQzk5uurUIZ/t+Idintx8KZ6+HEG6cDz959Z5w30vfDhduvB1++Ys/D/eemmHWrHvOTjZoQUv0v+fsbcMh7ixlGApnsy8ii+/Fb1SdZbvWQQABBBBAAAEEEEAAAQTaBISzbSJ+RwCBDSEgnJ3c0AcznM3rfX07PPmjD8w2a1Y4m5Pc0+cxrL3zrrvDnY9faO73/BPhvvZrzSX6/ZaHs0UY276VQbzNQvu1fpu2FAIIIIAAAggggAACCCDQICCcbeDwCwIIbA6Bcz97LVy4dDXsXvn7Xv/isq/sXFxbQD/92WvhzTff6l3+uGxktIqfXzt37lzv/T567sFw+KmbJgesz94Tvn/17fDO9cvh6o24+bfD5d3Hw5OvPtT696fh689NDmxvP/HuEPftZ+8IFLcV+OhtZSjbdVuD0/dnX9w1R7mKcPaJ8Nhd5X1mu29jEGfTCmjnoGxVBBBAAAEEEEAAAQQQiASEszxAAIENJfCr69eLsDXODu3zLwaV71yPfxa/nj+x7LEOfeoal4lh7qrqO1U4u/PmS+ETp94/OZzd+kh4ON5j9vrlcOH174and/40PPX6lY7WvBLOvvqp8MnWvWXTF4Clx7jPuG8/yyYw+DKw+/J7CdThbHnLgVs/Gr8YLA9LB+uV7+VfHNb1PFs3nzm77OrZPgIIIIAAAggggAACCGwkgTT5pH290rju2UgyKo0AAgggsGoCU4WzsbBHT74nHN6a4b6xEwLYFMQOPW4dKva5alAbvf86nF0GhWmC3SzUXUZRbBMBBBBAAAEEEEAAAQQQQAABBBBAAIE9JDB1OBtvL/CxU++dPHt21jC2tV7cl1sa7KERdoUAAggggAACCCCAAAIIIIAAAggggAACe0Jg6nD26vVSmqCIAAAgAElEQVQrezd7tpo1G/fpBwEEEEAAAQQQQAABBBBAAAEEEEAAAQQQOEgEpg5nY+XjF3sd3XrPkmfP3lTs4+mLjx0k3uqCAAIIIIAAAggggAACCCCAAAIIIIAAAggUBGYKZ+OaX/vx58LtW+9eWkAbtx334QcBBBBAAAEEEEAAAQQQQAABBBBAAAEEEDiIBGYOZ+OtBu5+9p8vJ5zdOlRs2+0MDqJy6oQAAggggAACCCCAAAIIIIAAAggggAACkcDM4WxcOQW0i5xBG7cVQ1/BLEERQAABBBBAAAEEEEAAAQQQQAABBBBA4CATmCucjWBiiHrvc0fCJ069LxzeOjT7TNqtQ+HjJ3+92JZg9iArp24IIIAAAggggAACCCCAAAIIIIAAAgggEAnMHc4mjI+eezDcvnVzOHLylnD4xE1ThLQ3FevEdeM2/CCAAAIIIIAAAggggAACCCCAAAIIIIAAAptAYGHhbIQVZ7zGL/E6snVLMQv28IlqJm0+ozZ7HmfKxmXjOmbLboJu6ogAAggggAACCCCAAAIIIIAAAggggAACicBCw9m00fh45vJTRej6hdMfDnc984F6Jm18Hl+LgWxcxg8CCCCAAAIIIIAAAggggAACCCCAAAIIILCJBJYWzm4iTHVGAAEEEEAAAQQQQAABBBBAAAEEEEAAAQT6EhDO9iVlOQQQQAABBBBAAAEEEEAAAQQQQAABBBBAYIEEhLMLhGlTCCCAAAIIIIAAAggggAACCCCAAAIIIIBAXwLC2b6kLIcAAggggAACCCCAAAIIIIAAAggggAACCCyQgHB2gTBtCgEEEEAAAQQQQAABBBBAAAEEEEAAAQQQ6EtAONuXlOUQQAABBBBAAAEEEEAAAQQQQAABBBBAAIEFEhDOLhCmTSGAAAIIIIAAAggggAACCCCAAAIIIIAAAn0JCGf7krIcAggggAACCCCAAAIIIIAAAggggAACCCCwQALC2QXCtCkEEEAAAQQQQAABBBBAAAEEEEAAAQQQQKAvAeFsX1KWQwABBBBAAAEEEEAAAQQQQAABBBBAAAEEFkhAOLtAmDaFAAIIIIAAAggggAACCCCAAAIIIIAAAgj0JSCc7UvKcggggAACCCCAAAIIIIAAAggggAACCCCAwAIJFOHspb+7GvzDgAMc4AAHOMABDnCAAxzgAAc4wAEOcIADHODA3jlQhLNXr70T/MOAAxzgAAc4wAEOcIADHOAABzjAAQ5wgAMc4MDeOSCcFUwL5jnAAQ5wgAMc4AAHOMABDnCAAxzgAAc4wIEVOCCcXQF0nz7s3acPWGPNAQ5wgAMc4AAHOMABDnCAAxzgAAc4sF8dEM4KZ30qwgEOcIADHOAABzjAAQ5wgAMc4AAHOMABDqzAAeHsCqDv16ReuXyKxAEOcIADHOAABzjAAQ5wgAMc4AAHOMCBvXNAOCuc9akIBzjAAQ5wgAMc4AAHOMABDnCAAxzgAAc4sAIHhLMrgO7Th7379AFrrDnAAQ5wgAMc4AAHOMABDnCAAxzgAAf2qwPCWeGsT0U4wAEOcIADHOAABzjAAQ5wgAMc4AAHOMCBFTggnF0B9P2a1CuXT5E4wAEOcIADHOAABzjAAQ5wgAMc4AAHOLB3DghnhbM+FeEABzjAAQ5wgAMc4AAHOMABDnCAAxzgAAdW4IBwdgXQffqwd58+YI01BzjAAQ5wgAMc4AAHOMABDnCAAxzgwH51QDgrnPWpCAc4wAEOcIADHOAABzjAAQ5wgAMc4AAHOLACB5YWzj5z4b+Fr/7o7vCFH3wkfOZ7HwyHTxwq/sXn8bX4Xlxmv6bWyuUTFQ5wgAMc4AAHOMABDnCAAxzgAAc4wAEOcGCZDiw0nL385m4RusYg9mMn31sGsluHwuH4rwpni+fV73GZo1u3FOvEdZdZUdt2IHGAAxzgAAc4wAEOcIADHOAABzjAAQ5wgAP7yYGFhbOPnP1aOLJ1S7j9xC3h8ImbBmFsCmVHPt5UrBPXjdvYT3CUxcHKAQ5wgAMc4AAHOMABDnCAAxzgAAc4wAEOLMuBucPZOOP1j87cHj5x6v3NGbIjw9hsFm2+zNahYhtxW2bREn5ZwtsutzjAAQ5wgAMc4AAHOMABDnCAAxzgAAf2iwNzhbMxRP3s9/95+P2td08xU3ZEOFsFtXFbcZsCWgfJfjlIlIOLHOAABzjAAQ5wgAMc4AAHOMABDnCAA8twYOZwNgWz093CYHwwm+5Le9tThwS0K/h2uGUIZps6Lg5wgAMc4AAHOMABDnCAAxzgAAc4wAEOdDswczh7//ZnFjpjNgWz6THOoP3qj+52D1ohLQc4wAEOcIADHOAABzjAAQ5wgAMc4AAHOHAgHZgpnH3i3H8OR7fiF3/1mwk763JxH3/zs28cSPA+Lej+tAAXXDjAAQ5wgAMc4AAHOMABDnCAAxzgwGIdeP2Nt8IrOxfDy6+c7/Xvf/z0YvjlG2+tbSYX63tu57VedY1MIpu4ziq8mzqcjbczOLr1nvm+/KtvqLt1qNiX+88u9oBchWj2qQ05wAEOcIADHOAABzjAAQ5wgAMc4MBqHIhh64VLV8Pulb/v9S8uGwPLdW2vWPY333wr9P2Jy8YwdxX1nTqc/S8vfzV87OR7lz5rNs22jfuK+1wFHPtcTYeBO+4c4AAHOMABDnCAAxzgAAc4wAEOcGBxDsTZoX2D2bRcXGdd2yCWfdqfVdV36nB2tlmzvxG++KO7w73PznArhGr27LrKoNyL60iwxJIDHOAABzjAAQ5wgAMc4AAHOMABDkzvgHB2clS7FuHsS3/3YvjEqfdNPWv2rh89FM5eDyFcPxdeePWecM/WdPeqjfuM+3bwTX/wzcTslcfCHV96dpj3974cbu16Pd6QOr730dt6/bvjGzvVtp8Nf9xznXLbXw5Pu/n1cLtgggkHOMABDnCAAxzgAAd6OFBdf3zmsXAWrx689uj6U1toCw7siQPC2QMSzsbbCxx+6qbpwtlTR8Iju5fDOzeuhMvXrhQkrl47HZ566Uj4ZM97z95+4t1ubbBnnVVXYPrl8HQMbDuC1D/+3pwn7FFB8J7Vd87yK+eenERm+pBB22gbDnCAAxzgAAc4wIHCgZ3wF5+JE0m+HJ6Ok0qEs7zQN3BgAx0Qzh6QcPYPf/Dhqb8I7J6Xvh0u34gAroQLu4+EJy+dC++Et8OFn/9R/xm0W4dC3LeAZtlBYgxm7w5/8UrcTzmAKcLXxgAmX2YB5ekTzn7vy2Ew23YB+9zATtixwxsOcIADHOAABzjAAQ5Uf/EnnHVt7ZqQAxvogHB2U8PZZ+8OT71xpbidwdnXz4WricOvvhsefu4f95+BK5zds47z7Dfu7nVrglvrEHfOQW4Vzhb77bxlwrPhjztfn3O/G9gRG4xzhgMc4AAHOMABDnBg4x1oTDzhw8b74Lpwz7IGrq2+vxHOplBy9GNktApXp/pCsMM9b0NQLvcb4b6d0+GXN94OFy7eEz639aHw9Z/HWbNXwtlXPxU+PdW2DoUjW7esBNAqGmXf7bNj5urZb3y5mmE7ZweTz5yt7ls7uFVCnL3rPrP7zgcDGH0RBzjAAQ5wgAMc4MC6OiCc5e66uqvc3J3TAeHs6FA2vXPgwtkjZ74UXrj2dnjn2lPh4TO3hE9v/3k4+6u3w9U3Hg9fe3a6LwRLobCQas4gtNeB3HXP2a4v+kq3PxiU6ekvdS3Xeq39J0R5OFuVr9jOZx4Lf/Gl4X1wYMAbCyw4wAEOcIADHOAABzgwpQPCWQFXr+viKb2yTV6tgQPC2RTBjn48YOHsh8LXL54L79y4HH6ycyR88tTvhkd2z4d3bpwPZ176SP/bGbRm1xp47MEJIg5W2rcR6Jg5u7C26Ahn47ZTQOtbVPegzdfgJLIw39TVoIkDHOAABzjAAQ5stgPC2c1uf8e/9t9gB4Szo0PZ9M5ahLN9vxDs09sPhbPXQwg3zoefvHpPuO+lb4cLN94Ov/zFn4d7T80wa9Y9Z/esA+1/z9nbhkPcWTq5oXA2+yKy+F78RtVZtmudPXNGcCpA5wAHOMABDnCAAxxYGweEs64TXCtyYEMdEM6mCHb048EMZ/P6Xt8OT/7oA7PNmhXOrqzzjGHtHZ+5O9zxjZ1mGV55LPxx+7VZOrg8nC3C2PatDOJtFtqvGfyuzeB3Fies0zzW8MCDAxzgAAc4wAEOLM4B4eziWPISSw6slQOv7LwWLly6Gnav/H2vf3HZ//HTi2tVxzwrOfez18Kbb76VJ5Njn8dlX9lZTX2n+kKw//LyV8Php26aHLA+e0/4/tW3wzvXL4erN2Ld3w6Xdx8PT776UOvfn4avPzc5sL39xLtD3HcO2fPlBpTp/rFFKNt1W4PvfTkMvrhrjrIU4exj4S8+c1u4tX0/2rqjj7NpBbScn8Oz2iXb4BEHOMABDnCAAxzYaAeEs66rXRtwYEMd+OUbbxVha5wd2udfDHNff+OttfUllj2GrX3qGpeJYe6q6jtVOPvS370YPnHy/ZPD2a2PhIfjPWavXw4XXv9ueHrnT8NTr1/pSKivhLOvfip8snVv2fQFYOkx7jPue6MHEXvSeQy+DKwRvNbhbHnLgVs/Gr/ka0FhaT5zdk/qaDDuOOIABzjAAQ5wgAMc4MCmOZAmn5TXMoMvLW5c97gecc3NAQ5wgAMrcGCqcDaewI9s3RIOb81w39gJAWwKYocetw4V+9y0wcO+qm8dzo4axA5C3fZgp/v3PNidZt18vVFl8fq+cmcFnZr6OwY4wAEOcIADHOAABzjAAQ5wgAMcWBcHpg5n4+0FPnbyvZNnz84axrbWi/tySwMH1LocUMrJVQ5wgAMc4AAHOMABDnCAAxzgAAc4wIG+Dkwdzl5+c3fvZs9Ws2bjPvtWyHLk5wAHOMABDnCAAxzgAAc4wAEOcIADHOAAB9bBganD2VipJ8795zKgbc1yHbolwVzv31Ts429+9g3BrD8N5wAHOMABDnCAAxzgAAc4wAEOcIADHOAABw6cAzOFszGgfeBHnw2/v/Xupd3eIG477mMdEm5l9EkMBzjAAQ5wgAMc4AAHOMABDnCAAxzgAAc4MK0DM4ez8VYDn/3+by8nnN06VGzb7QwIPa3QlucMBzjAAQ5wgAMc4AAHOMABDnCAAxzgwLo4MHM4GyuYAtpFzqCN24qhr2DWQbQuB5FycpUDHOAABzjAAQ5wgAMc4AAHOMABDnBgFgfmCmfjDmOI+kdnbg8fP/m+cHjr0OwzabcOhY+dfG+xLcEsmWeR2Tq84QAHOMABDnCAAxzgAAc4wAEOcIADHFgnB+YOZ1Nl/8vLXw23b90cbj95Szh84qYpQtqbinvXxnXjNtL2PDqQOMABDnCAAxzgAAc4wAEOcIADHOAABzjAgYPswMLC2QgpzniNX+J1ZOuWYhbs4RPVTNp8Rm32PM6UjcvGdcyWdaAd5ANN3fjNAQ5wgAMc4AAHOMABDnCAAxzgAAc40HZgoeFsvvHvXThehK5/+IMPh8987wP1TNr4PL4WA9m4TL6O5wTlAAc4wAEOcIADHOAABzjAAQ5wgAMc4AAHNsWBpYWzmwJQPXUWHOAABzjAAQ5wgAMc4AAHOMABDnCAAxzgwCwOCGevEWcWcazDGw5wgAMc4AAHOMABDnCAAxzgAAc4wAEOzOeAcFY469YSHOAABzjAAQ5wgAMc4AAHOMABDnCAAxzgwAocEM6uALpPFOb7RAE//DjAAQ5wgAMc4AAHOMABDnCAAxzgAAcOggPCWeGsT0U4wAEOcIADHOAABzjAAQ5wgAMc4AAHOMCBFTggnF0B9IOQ6quDT6c4wAEOcIADHOAABzjAAQ5wgAMc4AAHODCfA8JZ4axPRTjAAQ5wgAMc4AAHOMABDnCAAxzgAAc4wIEVOCCcXQF0nyjM94kCfvhxgAMc4AAHOMABDnCAAxzgAAc4wAEOHAQHhLPCWZ+KcIADHOAABzjAAQ5wgAMc4AAHOMABDnCAAytwQDi7AugHIdVXB59OcYADHOAABzjAAQ5wgAMc4AAHOMABDnBgPgeEs8JZn4pwgAMc4AAHOMABDnCAAxzgAAc4wAEOcIADK3BAOLsC6D5RmO8TBfzw4wAHOMABDnCAAxzgAAc4wAEOcIADHDgIDhTh7KW/uxr8w4ADHOAABzjAAQ5wgAMc4AAHOMABDnCAAxzgwN458P+3dwevcVx3HMD7b0kH13brnnJKD/UlqTHUAsuunUPACJRAdCkFQ4VRoMSFkJNzySGV8SG+SCslpEaoJklNTE1kxUhOLLeJYsWKFPErb7RjrdYr7exq1urufgaWXa3evDfvsy+w+vqXN1k4Gw4CBAgQIECAAAECBAgQIECAAAECBAgQeKECwtkXym0wAgQIECBAgAABAgQIECBAgAABAgQIbAsIZ60EAgQIECBAgAABAgQIECBAgAABAgQIHIKAcPYQ0A1JgAABAgQIECBAgAABAgQIECBAgAAB4aw1QIAAAQIECBAgQIAAAQIECBAgQIAAgUMQEM4eArohCRAgQIAAAQIECBAgQIAAAQIECBAgIJy1BggQIECAAAECBAgQIECAAAECBAgQIHAIAsLZQ0A3JAECBAgQIECAAAECBAgQIECAAAECBISz1gABAgQIECBAgAABAgQIECBAgAABAgQOQUA4ewjohiRAgAABAgQIECBAgAABAgQIECBAgIBw1hogQIAAAQIECBAgQIAAAQIECBAgQIDAIQgIZw8B3ZAECBAgQIAAAQIECBAgQIAAAQIECBDoWDj7z5XpuHrnzRib+32MfPrbGJoezB7pdXov/S61cRAgQIAAAQIECBAgQIAAAQIECBAgQKAfBUoNZ9c2V7PQNQWx52eObweylcEYSo9qOJu9rv6c2pyrHMvOSec6CBAgQIAAAQIECBAgQIAAAQIECBAg0C8CpYWzf7//txiuHM0eQ9MDO2FsHsru+Tzw7LzUh4MAAQIECBAgQIAAAQIECBAgQIAAAQL9IHDgcDZVvF6+PRwXZk/srpDdM4ytqaKtbVMZzPpIfami7YelZ44ECBAgQIAAAQIECBAgQIAAAQIE+lvgQOFsClFHb52Ms5UjLVTK7hHOVoPa1FfqU0Db3wvT7AkQIECAAAECBAgQIECAAAECBAj0ukDb4WwezLa2hcH+wWy+L+2ZqUEBba+vPPMjQIAAAQIECBAgQIAAAQIECBAg0OcCbYezf/3XSKkVs3kwmz+nCtqrd97s84/H9AkQIECAAAECBAgQIECAAAECBAgQ6FWBtsLZmw+uxbmZo6VtZZAHsvXPaYyPH072qr15ESBAgAABAgQIECBAgAABAgQIEOi4wMbmZix8/U38+6ulQo+vFh9GOqdbj3Tt91uYb7I5rPm2HM6m7QzOzRw72M2/am8Ett/rymA2lv1nu/U/BddNgAABAgQIECBAgAABAgQIECBw2AIpbF1+tBaPV38u9EhtU2DZrUe69idPfix8+altCnMP42g5nP1w4Wqcnz3e8arZvIo2jZXGdBAgQIAAAQIECBAgQIAAAQIECBAg0LpAqpgtGszm7dI53Xq0c+3tnFOGT8vhbHtVsy/Fn74Yjcu32tgKoVo9W8Zk9UGAAAECBAgQIECAAAECBAgQIECg3wSEs80/8a4IZxef3I2Lsydarpod+eJa3EvbVGwuxOcPxmKsMthSH2nMNLbjBQks3YhLV+afH2xuIk41ej+1TL87fabQ49L15Wrf8zFe8Jztvidi7vmr8g4BAgQIECBAgAABAgQKCFT//hi5Ed1bC1ZgmpoQIECggYBwtgFK3VtdEc6m7QWGpgZaClaHZofjg8crsbG1GitPV7Nprz2di6m7w3Fxv/1ma343PH3E1gZ1C6ZzPzYKTCdiLgW2DYLU8TwtnZuIndB1OSZH8iC19vV2iLvTLiL2CoI7N0E9EyBAgAABAgQIECDQVwLpb5JUSDIRc6moRDjbV5++yRIgsC0gnG2+EroinH1r7pWWbwQ2dvejWNlKAKux/PiDuPloITZiPZa//XPxCtrKYKSxHZ0WSMHsaExm/4y8/QUmC193fYGpbVNzPZ0MZ3f1XTOmlwQIECBAgAABAgQIEGhFYNffNq2cqC0BAgS6W0A42/zz681w9tZoTP2wmm1ncO/7hVjLHX76JN6//ZviFbjC2Vyu489L10cLbU1w6lmIW72kXQFqbbVs7eu9K2ezcRtumTAf4w3f7ziFAQgQIECAAAECBAgQ6DUB4WyvfaLmQ4BAQQHhbHOorghnh2q2Gmj++qUYX5yL77bWY/nhWLxRORnvfpuqZlfj3oPX4vWW+hqMc5VjzRW16IzAruB1e4il6xPVCtvqkLvaLMfklXwfp2LhbNZL+qJ0+kw82yoh6s7tzOz0SoAAAQIECBAgQIBAvwgIZ/vlkzZPAgTqBISzdSANfuy5cHZ4/i/x+dP12Hg6Fe/PH43XP3sv7v20Hms/XI93brV2Q7A8CG7g5q3SBRrtOdvoRl/59gfVC6gNZ3ftI1sXsNa2S6fuarvd19yVM9k+UJNX6sYofa46JECAAAECBAgQIECgrwSEs331cZssAQI7AsLZHYu9XvVYOHsy3n24EBtbK/Hl4nBcnP1DfPB4KTa2lmL+7qvFtzOoq67dC8/7JQqkLyv12wjUB6qNhqtpk7Yo2LP6taZd1k2DcDa9nwe07qLaCNt7BAgQIECAAAECBAi0JSCcbYvNSQQIdL+AcLb5Z9gV4WzRG4K9/tm1uLcZEVtL8eWDsRi/+1Esb63Hd/99Ly7PtlE1a8/Z5iuopBbF95w9szvEzUPXFLbW3f00C1pPp+rb0Zi8PhGXri/vXO1z4WyqtK1ubZB+l+6outPaKwIECBAgQIAAAQIECLQvIJxt386ZBAh0tYBwtvnH15vhbO28Nz+Lm1+83F7VrHC2VvKFvk5h7aWR0d2BarqCpRsxXhuyZuHsjRhvFqbmIW4+i9pwNgtj67cySNss1L+Xn+yZAAECBAgQIECAAAECLQgIZ1vA0pQAgV4SWPj6m1h+tBaPV38u9Ehtv1p82LUE97/+Jp48+bHw9ae2yegwjl8sLCwUHvfDhasxNDXQPGC9NRb/WFuPjc2VWNtK3a/HyuPrcfPBtbrH2/Hu7eaB7dnpI5HGdrw4gbzaNatyrQ9U02XMTdRsXbD9866K2L0utb6vLJy9kVXLnqqruN3pIlXTCmh3PLwiQIAAAQIECBAgQKAtAeFsW2xOIkCg+wV+2tzMwtZUHVrkkYLKjc30v8V355GuPc2hyFxTmxTmHtZ8WwpnF5/cjQuzJ5qHs5VX4/20x+zmSix//0l8vPh2TH2/2uDTXI17D16Li3V7y+Y3AMuf05hpbEenBXZuBrazZ2xt8Lq95cCpfIuC2g1h05ec7P1GNw/b/d6uELe2crbT09M/AQIECBAgQIAAAQJ9KZAXn9T/zbLr756+lDFpAgQIEDhsgZbC2XSx52aOxVCljX1jmwSweRD73HNlMBvzsKH6evz6atdGGEXapPOea7cTCNd/UXr+Z9Wzjei9R4AAAQIECBAgQIAAAQIECBAg0J0CLYezaXuB87PHm1fPthvG1p2XxrKlQXcuLldNgAABAgQIECBAgAABAgQIECBAgMDeAi2Hs2ubqy+uerZaNZvGdBAgQIAAAQIECBAgQIAAAQIECBAgQKCXBFoOZ9Pk0429zlWOdbh6diAb4+OHk73kbS4ECBAgQIAAAQIECBAgQIAAAQIECBDIBNoKZ9OZ79x5I85WjnQsoE19pzEcBAgQIECAAAECBAgQIECAAAECBAgQ6EWBtsPZtNXA6K3fdSacrQxmfdvOoBeXnDkRIECAAAECBAgQIECAAAECBAgQIJAE2g5n08l5QFtmBW3qK4W+glkLlAABAgQIECBAgAABAgQIECBAgACBXhY4UDibYFKIevn2cFyY/XUMVQbbr6StDMYfZ36V9SWY7eUlZ24ECBAgQIAAAQIECBAgQIAAAQIECCSBA4ezOeOHC1fjbOWXMTxzNIamB1oIaQeyvWvTuakPBwECBAgQIECAAAECBAgQIECAAAECBPpBoLRwNmGlitd0E6/hytGsCnZoulpJW1tRW/M6Vcqmtukc1bL9sNzMkQABAgQIECBAgAABAgQIECBAgACBXKDUcDbvND3Pr0xloetbc6/EyKcvP6ukTa/TeymQTW0cBAgQIECAAAECBAgQIECAAAECBAgQ6EeBjoWz/YhpzgQIECBAgAABAgQIECBAgAABAgQIECgqIJwtKqUdAQIECBAgQIAAAQIECBAgQIAAAQIEShQQzpaIqSsCBAgQIECAAAECBAgQIECAAAECBAgUFRDOFpXSjgABAgQIECBAgAABAgQIECBAgAABAiUKCGdLxNQVAQIECBAgQIAAAQIECBAgQIAAAQIEigoIZ4tKaUeAAAECBAgQIECAAAECBAgQIECAAIESBYSzJWLqigABAgQIECBAgAABAgQIECBAgAABAkUFhLNFpbQjQIAAAQIECBAgQIAAAQIECBAgQIBAiQLC2RIxdUWAAAECBAgQIECAAAECBAgQIECAAIGiAsLZolLaESBAgAABAgQIECBAgAABAgQIECBAoEQB4WyJmLoiQIAAAQIECBAgQIAAAQIECBAgQIBAUQHhbFEp7QgQIECAAAECBAgQIECAAAECBAgQIFCiQBbOPvrPWngwsAasAWvAGrAGrAFrwBqwBqwBa8AasAasAWvAGrAGrAFr4MWtAZWzJSbduiJAgAABAgQIECBAgAABAgQIECBAgEBRAeFsUSntCBAgQIAAAQIECBAgQIAAAQIECBAgUKKAcLZETF0RIECAAAECBAgQIECAAAECBAgQIECgqIBwtqiUdgQIECBAgAABAgQIECBAgAABAgQIEChRQDhbIqauCBAgQIAAAQIECNlQPx4AAA7aSURBVBAgQIAAAQIECBAgUFRAOFtUSjsCBAgQIECAAAECBAgQIECAAAECBAiUKCCcLRFTVwQIECBAgAABAgQIECBAgAABAgQIECgqIJwtKqUdAQIECBAgQIAAAQIECBAgQIAAAQIEShQQzpaIqSsCBAgQIECAAAECBAgQIECAAAECBAgUFRDOFpXSjgABAgQIECBAgAABAgQIECBAgAABAiUKCGdLxNQVAQIECBAgQIAAAQIECBAgQIAAAQIEigoIZ4tKaUeAAAECBAgQIECAAAECBAgQIECAAIESBToWzv5zZTqu3nkzxuZ+HyOf/jaGpgezR3qd3ku/S20cBAgQIECAAAECBAgQIECAAAECBAgQ6EeBUsPZtc3VLHRNQez5mePbgWxlMIbSoxrOZq+rP6c25yrHsnPSuQ4CBAgQIECAAAECBAgQIECAAAECBAj0i0Bp4ezf7/8thitHs8fQ9MBOGJuHsns+Dzw7L/XhIECAAAECBAgQIECAAAECBAgQIECAQD8IHDicTRWvl28Px4XZE7srZPcMY2uqaGvbVAazPlJfqmj7YemZIwECBAgQIECAAAECBAgQIECAAIH+FjhQOJtC1NFbJ+Ns5UgLlbJ7hLPVoDb1lfoU0Pb3wjR7AgQIECBAgAABAgQIECBAgAABAr0u0HY4mwezrW1hsH8wm+9Le2ZqUEDb6yvP/AgQIECAAAECBAgQIECAAAECBAj0uUDb4exf/zVSasVsHszmz6mC9uqdN/v84zF9AgQIECBAgAABAgQIECBAgAABAgR6VaCtcPbmg2txbuZoaVsZ5IFs/XMa4+OHk71qb14ECBAgQIAAAQIECBAgQIAAAQIEOi6wsbkZC19/E//+aqnQ46vFh5HO6dYjXfv9FuabbA5rvi2Hs2k7g3Mzxw5286/aG4Ht97oymI1l/9lu/U/BdRMgQIAAAQIECBAgQIAAAQIECBy2QApblx+txePVnws9UtsUWHbrka79yZMfC19+apvC3MM4Wg5nP1y4Gudnj3e8ajavok1jpTEdBAgQIECAAAECBAgQIECAAAECBAi0LpAqZosGs3m7dE63Hu1cezvnlOHTcjjbXtXsS/GnL0bj8q02tkKoVs+WMVl9ECBAgAABAgQIECBAgAABAgQIEOg3AeFs80+8K8LZxSd34+LsiZarZke+uBb30jYVmwvx+YOxGKsMttRHGjON7XhBAks34tKV+ecHm5uIU43ej+WYHDkTp04Xe1y6vlztez7GC56z3fdEzD1/Vd4hQIAAAQIECBAgQIBAAYHq3x8jN6J7a8EKTFMTAgQINBAQzjZAqXurK8LZtL3A0NRAS8Hq0OxwfPB4JTa2VmPl6Wo27bWnczF1dzgu7rffbM3vhqeP2NqgbsF07sdGgelEzKXAtkGQOr5nWjof40W+9OwVBHdugnomQIAAAQIECBAgQKCvBPJikomYSwUnRf5O6SsfkyVAoB8EhLPNP+WuCGffmnul5RuBjd39KFa2EsBqLD/+IG4+WoiNWI/lb/9cvIK2MhhpbEenBVIwOxqT2T8jb3+BycLXXV9gatvscz1LN2L8WYXs/u0aVunWnjI3ETvVtrW/8JoAAQIECBAgQIAAAQItCOz626aF8zQlQIBAlwsIZ5t/gL0Zzt4ajakfVrPtDO59vxBrucNPn8T7t39TvAJXOJvLdfx56fpowe0J8hC38SUtXZ+ohryNf//s3WrlbDZuwy0T5mO84fvPevCCAAECBAgQIECAAAECxQSEs8WctCJAoOcEhLPNP9KuCGeHarYaaP76pRhfnIvvttZj+eFYvFE5Ge9+m6pmV+Peg9fi9Zb6GoxzlWPNFbXojECDytXnwtc9tj3YtQ9to/99qHZbg/RF6fSZ2NkqIVXv2me2Mx+qXgkQIECAAAECBAj0oYBwtg8/dFMmQCAJCGebr4OeC2eH5/8Snz9dj42nU/H+/NF4/bP34t5P67H2w/V451ZrNwTLg+DmjFocXKDRnrONbvS1X+Xsckxeqd9kv9F7EVEbzlYvfu7KmWwfqMkr+41x8JnqgQABAgQIECBAgACBPhMQzvbZB266BAjkAsLZXGLv5x4LZ0/Guw8XYmNrJb5cHI6Ls3+IDx4vxcbWUszffbX4dgZ11bV78/lNaQLpy0r9NgINKmf3Ha9B4BpRPJxNfecBrbuo7ivtlwQIECBAgAABAgQItCIgnG1FS1sCBHpIQDjb/MPsinC26A3BXv/sWtzbjIitpfjywViM3/0olrfW47v/vheXZ9uomrXnbPMVVFKL4nvOnnk+xM2vYW6iZmuC/M2i4WzNjciyrRJsa5ALeiZAgAABAgQIECBA4IACwtkDAjqdAIFuFRDONv/kejOcrZ335mdx84uX26uaFc7WSr7Q1ymsvTQyGpeuL+8ed+lGjNe/V23x3H602fsFwtksjK3fyiBts1D/3u5L8RMBAgQIECBAgAABAgQKCQhnCzFpRIBA7wksfP1NLD9ai8erPxd6pLZfLT7sWoj7X38TT578WPj6U9tkdBjHLxYWFgqP++HC1RiaGmgesN4ai3+srcfG5kqsbaXu12Pl8fW4+eBa3ePtePd288D27PSRSGM7XpxAtq3A6TPboWyjbQ0aVsem69vrJl77hbM3YnJke5/ZxtsYpD4FtC/u0zcSAQIECBAgQIAAgR4VEM726AdrWgQINBP4aXMzC1tTdWiRRwoqNzbT/xbfnUe69jSHInNNbVKYe1jzbSmcXXxyNy7MnmgezlZejffTHrObK7H8/Sfx8eLbMfX9aoNPczXuPXgtLtbtLZvfACx/TmOmsR2dFti5Gdj4XM1Yz8LZ7S0HTp1ONwjbKyydj/H6PWuzrvYLZ+drBvOSAAECBAgQIECAAAEC5QrkxSfbf8vs3PB419895Q6pNwIECBAgUEigpXA29Xhu5lgMVdrYN7ZJAJsHsc89VwazMQvNRqPOCDwLZ/foPv3rcxbY7nzJ2f/n2n1kdwLh/c/ZLxDe47q8TYAAAQIECBAgQIAAAQIECBAgQOD/WKDlcDZtL3B+9njz6tl2w9i689JYtjT4P15BLo0AAQIECBAgQIAAAQIECBAgQIAAgbYEWg5n1zZXX1z1bLVqNo3pIECAAAECBAgQIECAAAECBAgQIECAQC8JtBzOpsmnG3udqxzrcPXsQDbGxw8ne8nbXAgQIECAAAECBAgQIECAAAECBAgQIJAJtBXOpjPfufNGnK0c6VhAm/pOYzgIECBAgAABAgQIECBAgAABAgQIECDQiwJth7Npq4HRW7/rTDhbGcz6tp1BLy45cyJAgAABAgQIECBAgAABAgQIECBAIAm0Hc6mk/OAtswK2tRXCn0FsxYoAQIECBAgQIAAAQIECBAgQIAAAQK9LHCgcDbBpBD18u3huDD76xiqDLZfSVsZjD/O/CrrSzDby0vO3AgQIECAAAECBAgQIECAAAECBAgQSAIHDmdzxg8XrsbZyi9jeOZoDE0PtBDSDmR716ZzUx8OAgQIECBAgAABAgQIECBAgAABAgQI9INAaeFswkoVr+kmXsOVo1kV7NB0tZK2tqK25nWqlE1t0zmqZfthuZkjAQIECBAgQIAAAQIECBAgQIAAAQK5QKnhbN5pep5fmcpC17fmXomRT19+VkmbXqf3UiCb2jgIECBAgAABAgQIECBAgAABAgQIECDQjwIdC2f7EdOcCRAgQIAAAQIECBAgQIAAAQIECBAgUFRAOFtUSjsCBAgQIECAAAECBAgQIECAAAECBAiUKCCcLRFTVwQIECBAgAABAgQIECBAgAABAgQIECgqIJwtKqUdAQIECBAgQIAAAQIECBAgQIAAAQIEShQQzpaIqSsCBAgQIECAAAECBAgQIECAAAECBAgUFRDOFpXSjgABAgQIECBAgAABAgQIECBAgAABAiUKCGdLxNQVAQIECBAgQIAAAQIECBAgQIAAAQIEigoIZ4tKaUeAAAECBAgQIECAAAECBAgQIECAAIESBYSzJWLqigABAgQIECBAgAABAgQIECBAgAABAkUFhLNFpbQjQIAAAQIECBAgQIAAAQIECBAgQIBAiQLC2RIxdUWAAAECBAgQIECAAAECBAgQIECAAIGiAsLZolLaESBAgAABAgQIECBAgAABAgQIECBAoESBLJx99J+18GBgDVgD1oA1YA1YA9aANWANWAPWgDVgDVgD1oA1YA1YA9bAi1sDKmdLTLp1RYAAAQIECBAgQIAAAQIECBAgQIAAgaICwtmiUtoRIECAAAECBAgQIECAAAECBAgQIECgRAHhbImYuiJAgAABAgQIECBAgAABAgQIECBAgEBRAeFsUSntCBAgQIAAAQIECBAgQIAAAQIECBAgUKKAcLZETF0RIECAAAECBAgQIECAAAECBAgQIECgqIBwtqiUdgQIECBAgAABAgQIECBAgAABAgQIEChRQDhbIqauCBAgQIAAAQIECBAgQIAAAQIECBAgUFRAOFtUSjsCBAgQIECAAAECBAgQIECAAAECBAiUKCCcLRFTVwQIECBAgAABAgQIECBAgAABAgQIECgqIJwtKqUdAQIECBAgQIAAAQIECBAgQIAAAQIEShQQzpaIqSsCBAgQIECAAAECBAgQIECAAAECBAgUFRDOFpXSjgABAgQIECBAgAABAgQIECBAgAABAiUKdCyc/efKdFy982aMzf0+Rj79bQxND2aP9Dq9l36X2jgIECBAgAABAgQIECBAgAABAgQIECDQjwKlhrNrm6tZ6JqC2PMzx7cD2cpgDKVHNZzNXld/Tm3OVY5l56RzHQQIECBAgAABAgQIECBAgAABAgQIEOgXgdLC2b/f/1sMV45mj6HpgZ0wNg9l93weeHZe6sNBgAABAgQIECBAgAABAgQIECBAgACBfhA4cDibKl4v3x6OC7MndlfI7hnG1lTR1rapDGZ9pL5U0fbD0jNHAgQIECBAgAABAgQIECBAgAABAv0tcKBwNoWoo7dOxtnKkRYqZfcIZ6tBbeor9Smg7e+FafYECBAgQIAAAQIECBAgQIAAAQIEel3gf7XAhUvFsYPRAAAAAElFTkSuQmCC;" parent="1" vertex="1">
                    <mxGeometry x="31.090000000000003" y="23" width="456.24" height="160" as="geometry"/>
                </mxCell>
                <mxCell id="38" value="H:\SSMES_Dev\Genesis_MVC\Areas\MES\Views\Shared\Dyn_FuncModule\_edcinfo.cshtml" style="text;whiteSpace=wrap;html=1;" parent="1" vertex="1">
                    <mxGeometry x="31.090000000000003" y="220" width="520" height="30" as="geometry"/>
                </mxCell>
                <mxCell id="47" style="edgeStyle=orthogonalEdgeStyle;rounded=0;orthogonalLoop=1;jettySize=auto;html=1;dashed=1;strokeColor=#FF3333;" parent="1" source="39" edge="1">
                    <mxGeometry relative="1" as="geometry">
                        <mxPoint x="30" y="85" as="targetPoint"/>
                    </mxGeometry>
                </mxCell>
                <mxCell id="80" style="edgeStyle=orthogonalEdgeStyle;curved=1;rounded=0;orthogonalLoop=1;jettySize=auto;html=1;entryX=0.5;entryY=0;entryDx=0;entryDy=0;dashed=1;dashPattern=1 2;startArrow=oval;startFill=1;strokeColor=#001DBC;strokeWidth=1;exitX=0.5;exitY=1;exitDx=0;exitDy=0;fillColor=#0050ef;" parent="1" source="39" target="66" edge="1">
                    <mxGeometry relative="1" as="geometry">
                        <Array as="points">
                            <mxPoint x="-30" y="130"/>
                            <mxPoint x="-30" y="268"/>
                            <mxPoint x="20" y="268"/>
                        </Array>
                    </mxGeometry>
                </mxCell>
                <mxCell id="39" value="" style="shape=image;verticalLabelPosition=bottom;labelBackgroundColor=#ffffff;verticalAlign=top;aspect=fixed;imageAspect=0;image=data:image/png,iVBORw0KGgoAAAANSUhEUgAAAZkAAAC2CAYAAAALKPCZAAAgAElEQVR4Ae19/5McxZUnxO1G7L9wPxRIGktjbMu+05qvi3xrLw0ja4VtIdlx9o6N8bGCQD6jNRgpDGe+2NzCLWKDAzEeecNEABYIUOxsKAh2h8VCWodOnpCQZsLsdgT/y7vIyv5kv379sr70VFVXT78fOrIqK/Ply5effJ/81lVXXXPNNWQ/s4FhwDBgGDAM1IGBq+oQajINrIYBw4BhwDDgMGAk0/BMLkluoseWLtHK6/cOzSCTmx6jpfPv0bN3JEPPrMNahzUMGAYmEQMTSzLJnkU62+1SN/wu0Gs/GK9z3nP8HHW7K/T6vboeIJhYmpseW6JLrj6r9RCN0++TTz6hbneV3nv2DiOyhgcYk+ggTGcjtvViYGJJhlc8z7nztHVe5+nhSSTbwSd7jtO5bpdW33uW7kh0shqlDl637LJHkWt5zAkZBgwDWRgwkqlwNJtFMulS2KVi5FE1ISTJHjp+rljZWWCxZ+ZMDAOGgbIYMJJpiGSyCEg2Gkihu/I63VvBbAbyqp4dSb3t3hyQYcAwIDHQGMkkNz5KSxf5HsoVeu+ZTiX7AnkOPElupEeXLrL9my51L7xGP1Ac+I2PLtHFsM/j9L0S3b9w5bo9Dv7T9lvKzGLQQHl1QroioZGMdfwiOLE0hpM6MNAIyWCT/grbZ3D7E86ZX3jtB+smmiyHHMjtQn9WkDp9R3hX3qNnOv19D0cw55mO/Y36wb0MOG0504jp4fdZBmXkNSb2ZrRTaHl55XPoazMZcyISG3ZvmKgbA7WTTJhFiKWf4MAjM4oyFY85dydjz+LZlEzksWA48TySwyyEO/tYebF4v+EfP3Wm1RXlVkEMRjLmSDSMWZzhogkM1E8yvWUy7qRRMe+U13/0OObcnXNdPKtveMPxXnnvGeooy2bQUTr7QI6CNF36mB6xeJShhdBPzpa0tHlxRU615cmw5+aQDAOGgVEwUD/JDP2fhe/LuOtyI3ytkjEnjqUybTYQnDibSYVZ18CeTDfdc4GMkG8CSMbZxe0XQXfNdhZnjsMwYBioEwP1k4z7F/ulrvoP96oqFiWZjKO7koAcebhZjyS94ZmMPw6szTBieox7ucxmMuZEquprJsewVBYD9ZNMz9HHTnOVVVhLH3PuYWlLbPA7Gf4wQn8zXpIOyhkmGf9aGPmvfKSTJOXL8n+w1JYMUY4MsWdUJo+UgXvMvmxGYw4CmLDQsNAUBmonGVcRP5LuUt7+x6iVjpGMkwdnzUkOhMJnI4EkGCHhVJxccoJMEIDPu0ofvvs+XVKW/yC7jJPPqlNZOxnJmEMpixlLb5ipCgONkIxTNnW0A/+T8XszoxJPempM7J2E95gxooiVfUF7QWXvlS5czrN36P+WB3E6AsLsJWtZrAxpgBQ4Ca6nwSGvDMmtpzzLaw7KMGAYAAYaIxkUOK1hmdmMJ6T+Ut56bWYkYx1+vRiy/IahUTFgJFPha2XyGsGRh5v5YJlNS4+luCpnHUYy5iA0rFmc4aIJDBjJNEgy4SBC5FX7mO1UtUzGAVRmuY7ns2tzRIYBw8B6MNAKkon9PyXsjfC9F/a/lvVUfFx5PdGcV9+Hlu7p1PQtGRCc30OqbiluXHa0cs3xGQYmAwOtIBkDy2SAxdrJ2skwYBgoiwEjmQaXy8o2jqW3Dm0YMAxMOgaMZIxk1v0W7EnvBKa/OXLDQH0YMJIxkjGSMQwYBgwDtWGgcZLZtm0bzc/P11YhG5HUNyIx25ptDQOGgbIYaJxkPv3pT9OhQ4eMZGzkZBgwDBgGpgADRjJT0MhlRx5Z6ZMdR2m56z9/4I9Dr9GpI/2vi8by7ji6LD5TXSxfTN444v/r4cu0b/Gf6E835dcX+n36vg/orsU12vfsr+kz1xbPh/wW2sxh0jHQOMnYctnG6TSOOLrdfLLw6T6mMwv7Wzty9WRwjv7sts1RHY1kNg52J91xT5L+jZPMJBnHdM12KkVIJkl20NHlLnXXTtGRjC+QjtvWdZHMuOtl5Wdj2OxTv32MZGy5LDpyz+uAhUhm9iCdWOnSx2cWaL+RzMi2zmsLe16/szQbj2ZjI5keyWz7/j/TN365Rp27bxxyBNvu+Wfau7hGt3/vpvDMvXTyhic+om/+6uPw2/fcq7R96+C6u8/7Ll2/PaHtf7PST7v4O9q5+7NBXl0AxkzC7Z/gt3bqiFru7METtML3Wz4+Qwv7B+vD9Zx0kkm+9DLtWlgLbcLbEtd/8Z1PBVv1l8u+STc/vRry7Xv0F3StIFCXFjJcqKWBLaUe+xbjy3auPX9y6iJ1uxfpjYPxtoFsC0dzjGa36uzWOMls3bqV9u7dGzpuWxozufnv6fZja7TvZ39HW5jDSJI7UzLhBOIJ5uwASYT8gmhAUKmjefw5mkkSAkHtW/TkU5cNkt4sgi9VJcksHTzxb0Ob9XLfxKdbydxziZEMygWpaWHbZjaFl8uePUu7F9YI5AOC2P3Du+kahhu0aZI8Rl9+eS1KMsn+U+nBAJ4/zfO3+kGBpHOMPuwNBC6+cbB1/Qj1trA6Jz3ptmycZNp8hNnNNPb98l364uf6I8Tk5udT8tnz4AO0SXEiHAB81oJ4kIzM7+Prnc3gJFhs5gIdQQoyXSwe+WIkg+cuhIwqSOXPD71M7ywt0enTp9Xf0ss/putz2ojrxq+LkowbLIBg0volflYTOz2WRzJFyuV6JkmHjn3oPvhnMxluF7tuL6kZybA9mWTPb+hri4NLZm4ZbW/BGYdGHFpcUx0CDt7NJCSBcB38MtnwKTEstfGZEM/XNMnwsqu+LuLs+8tlbBCyTpLBTCZriazqupq89jrkjdg2jZPM7OwsHThwoJXT/LCM1Vsy80tll2hfb5mLAwDLY3zdPV0SE3st4yQZpy+Igi9ZScJxZMGfy2sjGe+U6iCZtI3E3pARjpEA9zWTft04ybTdYCkp9JbM0qWyl4aXtDDjkeSjEYoWNy4bcMLhy1exmUyenk3PZNqwXCb/jJmscyYjbYw9HrksJ9PZvRHRpGDASIYtl7lGwwzFnTLbfuj3xDf80agx4tDitTjIGUcIouGzk6J7N1LfpklGll/l/biWy7Q6gGj4YQCkc+3nTpe52aZt/BvRABdtDo1kBMm4xkoPAPzsFbrliUsDx5bRkJ441ohv5uN48r4WLZe5Gcp58f8UjVD6J8nK/St/I5EMHHvWUeM6lsucTH6QwGEsi/CSHT+hUxf9a326a8v0/O7+/hDwaaGRT5sw0DjJzMzM0NzcXCv3ZNAw6XLYL9fSk2bu/y2I5yFIBXsyKeGkBwcGl9fGPZOR+y3dbpxI5P9k3GhZppfy+P5NV/lfDQ4f8OU5bsc2XYNo0KZyyaooyeBEGZfDr/kMBctt/LlckpM22vGTU3Qx/SS5nTCTtrH79hFs4yTT5iPMBtD2AdTaZLhN8F+Z7sU36OCIR7bNrsN2NZvUYxMjGWW5zMBWD9jMruu3K/Zk3ItJl5/frc6yzc7rt7PZsDobGskYyZijmhAMdI59mG74215MdQ7QyKR+WzZOMtaoozdq1n5I3t6I2X10u5vtzHaGgdExYCQzIaNYA/noIDfbme0MA+PDgJGMkYwtlxkGDAOGgdow0DjJbNmyhXbu3FlbhWzEMr4Ri9nebG8YMAxIDDROMnaE2UAoQWj3hgnDwMbFgJGMTZNtVmkYMAwYBmrDgJGMgas2cNnodOOOTq1trW2LYqBxktm8eTPt2LHDHJuRm2HAMGAYmAIMNE4yRdnP0tlIqW0Y0N5dlqejf9nlGsW+nJmXf73P8Qoa/j8qe3uz9a314qpMfiOZKRhJlAHEtKbNevMxbDJpJAOCWVt+nnbbO85s1jQmX9c4ydhymY2i4LTbFNZFMuOso3sNTbdrb2oeZxtY2ddQ4yRjR5iNZNrY8TYayYQXado3Z2wGM6YZDPq5kUyvAfAhstu/d9MQKLVnSbKHbnjiIxr4Dshzr9L2rYPfn/F53yX3XRr+DRr5cTM0SF6I77OsnTpC/Psv8rsvkIP0fE1eftslfLRs7RQdSXbQ0WX/USyXR/1GzI6jtNztp3HpnD6hzJ4MF4f3raVf4pw9SCdWfD6eHvmaDrXvx/D2dNf8g2L95bJv0s1Pr4a21z505tJyWVoa1FfqsW/xHP3ZbZuDPZGuTFiUZJCO40N+QgBpfHyHjn3Yb3v+sk6/POdmTv00bv8n7/s3eG57RRtzAGok0yMZfHZ53+PP0QxbvwaZ8M8w+7iztHP3Z4MjCPkF0YCgnMOB7CBz0ZNPKefBHDUnAOfMJdGkBHP+DC3s7xMfiIkTDUgGjgYEAIIa+lRzSkZ9mSCSkI8RVVpOSkof0/nz5+nMwv6UeLjuZepfV9rCM5lnz9LuhbVAPiAI/iEyriM+YBYjmWT/KbprcY14/jTP3/6aPnNt38ZcZuwaZIB21MIBUuh9ZZOTCr68OZCOffLZyQQZhLS979pgDwifIUiX69bO0/nz7guennjk/lCS9AmJ6xGro8VPHhE1TjJtfq1M+tll4fhBHvxTyzGg81kL0oBkZH4fP/gVTeTJCoPjF1+hdA7GzUA4eWhyQCgDxJHM0sETK8MkhXhRlpQry8a9czanjiSETz5DN0+I/pmUlXX/54depneWluj06dPqb+nlH9P1bICQJUs+K0oycnaDL1vGTo/lkUyRcqWuRe5BOJwsZD5PAsOfcAZZBDLpkQzIA3JkGcgHsvB7Qv67NyATPIMMF7p0nLz4M7uePFKRbdY4yUgF2nSffnZ5cY34kplGHDGdNeLQ4mL5i8SDZOCwkUcjDzzjYUjHiEOL43nyrgOp9GY4Q/e95TXMdEYlmTw91vO8iLPvL5f1ZxjrJRnMZKpYIuP1lwTAn7lrOH05s9Ce5cmCbJAMyMmTjD94gPI0kkF+CyefULQ2NJJhm2JhGau3ZCbvuQExw+Hr7umS2OLg7KRxkmHk4fTF8phcOuHLVWVJBstjQzKNZMLyKbCSN5Nx6bDkBixVQTh5xIClriySASHkyQp17RyjD7vdsJxmJLMxSQPtXTRsnGQ2bdpE7oRZUQWbTsdnLp5IBknD6YMZD/ZYoKNGKFoc0o8SxmcyfrmML4OBDDCDSHVXlsCKkkxI1/043VuB/s4JuaU6lD10X9FMpg3LZfsW/4n+dFN1MxnYECEnHH7oAM+LhnnEgJmFSjK9vRo8y5MFnWwmY6QCLPCwcZJp+xFmzFDcklm6RyM28p3xYsShxWtxvAHKXkdJpncgAIQSCEHMbLR4LU7TS5IH0sj4ofuKSAbl1RGOa7lMqwuIhh8GQDqQQ94eRh4xZD33ZOH3Uly5WWmhV5puxJkMTpdh5sRl2vXkE5eRDFsuA6BTcnn8FbrliY8G9mfw3BPHGvHNfBxPlkeTmyCZ4NQZoQTiYLMOpHMOapTlMuTHhr6zB0gvlTnBy2Vw7LFTYK6udezJOJlyxpJFeJgtpPbuneoCLnlYhBggizt3LKMNxGHjP+c/N5BXZk8Geqb16faJjdfFriebaIxkFJIJy2HipBkHO0gF6+gp4ez5DX2toT0Z1yn5Tx4EcLqCFJAOR5zTjXeNkFgcryu/5qQCx3DqSO902gSTTGqvL71MuxbWBv7fwgmgKMlgHwbYkCGfoeDgAE8jl+QG7M+O/MKZ8+e4hvPOOl2W1rm3NAaMuFDKLSxrxJkMiE0rG/WxcHKJpnGSmZmZobm5udbuybQdzHDyGqm0XXfTb3IdRZ1thyVAewXOxsRH4yRTJ1inQbaRzMbsiNOA3VgdsSeDgwaxdBY/mdg3klGWy9oMZiOZyexobcbUuHTDHo78k+e49LFy6+lbRjJGMrZ0OWEYMGdYjzM0u9Zj18ZJpu1HmA1o9QDN7Gp2NQxMJwaMZGwUazMZw4BhwDBQGwaMZAxctYHLRq7TOXK1drd25xhonGS2bt1Ke/fuNcdm5GYYMAwYBqYAA42TDGc4u7YRj2HAMGAY2NgYMJKZgpGEdeKN3Ymtfa1924wBIxkjGVuyMAwYBgwDtWGgcZLZtm0bzc/P11ahNjN6m3XDZwHwDiu8tr/NOptuNoI3DLQfA42TjP1Ppt2gwEs1jWTa3U7mXK19JgUDRjI2TR6YVRrJmPOaFOdlek4GVhsnGVsuazcwjGTa3T7mWK19Jg0DjZNMWw2ED5G5L2JKHbVnSbKHbnjio4Fvj+yLfkXzXbp+e5J+aRPfDZEfN5Nlxu5jL8hMxNcnXX4f5z+VPHvwBK10u+EbNPiCpizHSMacmMSE3Rsm1oMBI5nechk+u7zv8edoJuHfcPdkwgnEE8xZ2rn7s4GQQn5BNCAoRy6QDYLal/FRtFijlicZTyz8S5jpR8vYFzN5WUYy5lA4Huza8LBeDBjJsD2Z9LPLwvGDPPinlmNG94TiZy1IA5KR+X387waICnmywlFIRm7ia7MelGkkY04FWLDQsFAFBhonmTa/VgafXeZLZhpxxAyvEYcWF8tfJH4UkoktjWnlGcmYY9FwYXGGi1Ex0DjJtPkIc1jG6i2ZyXtuZMxwsMeCUO61GMlY5+S4sWvDw7RhwEiGLZe5xuczF08kw0tamPFgjwWg0QhFi0P6UUKbyZiTGgU3lsdwMy4MNE4ys7OzdODAgbBhPq6Kx8rFDMUtmaV7NGIj3+WLEYcWr8XFyi4SHyMZ/GOfL41l7b3EyrLlMnNGMWxYvGFjFAw0TjKjKNl0npRcHn+FbnniI+L7M9DDE8ca8c18lyc9QbY4OPOpnGSSWTp4YoXkaTG8DsZIxhwBcGqhYaENGDCSEctlrlHCcpg4acYbDKSCvZiUcPb8hr5WM8mk+iU76Ohy/z8v6emx2YN0YqVLo5AMZi8gKhl+fGaB9rNj3dwOdm2OzDBgGMjCgJGMQjJZBrNn1qEMA4YBw0BxDDROMjMzMzQ3N9faPRkDT3HwmK3MVoYBw0AeBhonmTYfYc4zlj23DmUYMAwYBsphwEjGlstsVmkYMAwYBmrDgJGMgas2cNmIr9yIz+xl9tqIGGicZDaiEa1O5hwMA4YBw4COASMZm8kUnskcPvxtKvL71rfm6NZbb7Wf2cAw0AAGrrvuusJ9eBxEaCRjJFMYoKurL1GR389//td0++23289sYBhoAAPbt28v3IengmS2bNlCO3fubLVRxtEQk1BmEYJxaYxkjGBtkNEcBoxkxEzBjjDr65ZGMs11SnOAZuuNhAEjGSOZDTNrs5nMxnfOnYfeppXV9+nY3R1b6mpgqasI2c2/uEwrHyzQPR29TYxkjGQmimS+uPf79P+OP0VrR/+K7hXvK+Mkc+XK4/SzL/4nuuqqq9Lf1VffSscuvZju2dS5XHb4nRXi71brXjhJhyKdr0gHbkuazkNP0oX/eIO63X+gf3x0PGSWEky3S6vvH6O7hU3nvv8AnXe4WHiQjnY6dOeDP6aP/+EXtPrcffQ3Im1bbAo9vO5P0tlH9rWGOAftdzv99NGfpva8/NT3BnTsdObpxeXVFPOrEaLhJJMk19D3fviwl3WkHW9WaXzjf9OmTeSWzCZheWgadUxuuIuWc0jmyulv0xf/6GrafvgxunzFE8vpn22lP+oRjSMZRwbd7gU6eWhw9NXp3EMLH6xSd3WZXpwffAanUCTsdA7TOytdqpJkXlx+nT755CR1uy/Q4ldH1w36P3Tyl/QfBUlj3CTT6TxEbzt7/v4tekghjc6ue+hfGMmAdCTJdDpz9PLTfTKCLcYZaiQD/R1Ryh/q1On0nT9Ps3Y8m7CkbC090qAskI4kGdjt0MkL1O2u0gcL9wyQkHvOScb5rC3fuW+6SWYaHfck1Rkkc/F/7aE7lJnMlSs/ovk/GSQYzHB+Nf/HdPX+B+iJp+6dOJLpdH5My//+Bv321M/TGcVvF+eGOjM6fNGwDMkUlVlXuofedoOC39NbD+nkGiMZ6RQni2SyyQIks7Z4mF77q75dQBCY1aFNQnpBQt4mugxOMhoZ9WUfopMXutRd/YAW7unr4p5rJONk/fb+G1sxmG98JjNJDncadU0+cxudfP4pipFMOmPZvp+WLvsZDAjGhVd+9RX6k6tvpe8+MYEk8+JR+vd0BuPJpvvbR+iryogenb5IOCkk07n7GP3rqr5Mhnp27vgWvfX3T4XlMZDONJKMswmIhtffzUayiAK2dKG0n5eXQ3qHTtKFbpdW3nlkYAAkSebav/g2nZ1mktm8eTPt2LGjFQw7jSSynjpjFrP/2Avq/2X8Mtom2v2jciTTOfwOrXRXafnFebpn4QNa7fa/lXPh5KGBDoWOWvVymVsqA7Gk1xlLZp2UkN5Il9bk8hqWvVx87MdnSVmyUFceYkkPsrsXn6ZH5/oj207nbjp54YSvS2+fB2kv/uNf05xCnHmzGF5+3nXZmQycNZaj1o4/Qacf6NcH5cEpI50LuYNHOhdKmS6tdP6FnHpvuUzOZFwZIF3MZsrWm+tb9LrT6c1mVt6hR1g7SpIp2seTXUdpea1L3TMLNCdWLYrKKJKu8ZmMHWGe3CPMmKm4DX59498vpV3/3f9RarnMk4wnFr5X4/d1PPnIjlglyWCpDE7YO359Ax5OfoAonDP/YHjmU3Ymk0Vu0JGTSohjhAiSccTCDxGAzLjeqbPs3E3H/nU1uhcj7Z53X9TZ9peW+qTSjxsc0acE0ztwgPK1PYyQX13eGpS5bpLB3lOvLJAglr+gZ9Wh35tZoXce6RPxqCRz/wl/iKbbPUMLc0ltA38jGXH6rQgzjzPNp/Y9Ra8uLdHp06fV39Jbz9B3axqVpEtl+x+gS1depHT/pbds1r9eH8nITXyQjzabqZRk0plJn1TgvEE6cBSYpch4PJdhlSTjZQ0fSJA6gWQ4wTi9UCfM1qArNvy1E2VIUyYsTDLpQYJBx+/1LHZwAOVwpx4jDi3exz01tOnPZzwx0vJ6+kMBmHlBXmx2VcaGWWndceZVcQBgVJJJ7j9BK12bydTGruMkikkt25GJP1HmycQtm2FG4zb8L/UOBYw6k9HIJNbhqiSZdAYhlp20uJijj+lYFckE4lD2ieSzcC/qEyWZAvsxsfpp8XD+WEbS0ri4dP9CzDiQNusZ0mjlxPLFSWaY5CDfhW0kmY6yLzMqyTTlhxqfydhrZSZzuSxJ/nP6v5iUZNIN/k10eOn/EvZp+uQz6p5Ml8ZBMnC+cnaiEUTWchZ3TrjWZOCZFsbkQ0c5C3EyJKnIe5QTk1Fk0x8yioSa85f5spy3S5uShdibcXF8PwbXILMsmfWQTG/G1fBymZHMhC09NcXkVZYzruUykIybvfD/xOA/M35W42Y4BUmG/Ykya1lMOijcVzWTwV4FNsdlyMknRgLQSYbVkQzbzGcbvq48SR6lSab3/5iml8tisw5JFuFePRbc/z9OSKfMjmohmd5pu0By4l5ioar7KpfLqvRLWbIan8lkKWPP2jvLiZIMn9W46+376UdP3ts7JTa8aQ9yWF1+keZ7DrNOkul852l6ZWmJlpbepOd/2N8sRafXlsW88+45drbsBEKSm+eQJcOqSMbJjREc9mSgU3mS6W38V/QqmSIzGVcfzfG7eOTHXgvu4cxhYy1emwGFdIKkYuVDvtelt++iEJcvq7/cFkhOlMPlVXFd5cZ/OF220Tb+7R//7SWSLJIHycjlsnTT/2q/dIY9myefupdAJvy0WPi3v3gTQJ0k852nXwkHJN58/ocDx6HlLEA6AUkSwYGLf/Gnjl45XQYC0Ja5ZFnuPkYk7lmQxUmv9wfSwRNnw+SY5kdaZV9nHEeY+85fO13G43rLUmz5DMeH06PJ7NQZ4iVBXf7FIfoX4fxHJRmQiStbbvKjfH54wNve1WHwz5guvuyv6iPMu44u01rv7wIXTx2h62s6MNT4TMaOME8myTgCAolcZu8tc6RzfP6P/fvLeqfN8O4ykEreu8aKkgyIi8vj13x2hA6cNZPJm5nAsfMlMyfXkw/7nwxz/CgXIWTwZTjMOlwaRyz8Gb/m5OHSghR5GqlbIEKhE/JqhFflvgzIA3smPMRJrGAb5bUtcsaS1ru3FAVZXk5vlsFIJk3be/2NSwtn748X92cdLp0nmeHTZS5fn6Qir5VRZjaokwvl/pGsN09b5lrbj3H5R934T5JddHR5LX0vWp3/lTGSsX2kwif4sv7tz//5D5Ip04EsbfmRbZU2q3I2U6VeJsvjIsxiCrxWJmtFQj7Df2XOLNT3Mk0jGSOZwiTDN/k5qchrI5nxEsYojhmzmW5FezOj6GB54rgp84JMSSSx+7Anc/EUHbl+A/0Zc2Zmhubm6mPNmEEtfv3LdI5M/MkyvwcDckmPMe/ov8/MSCbuLNrsSPGq/9ibmNus+0bWzZ8oG35nGepcdrksSe6nEyv+DRt17sXA5zY+k0HBFq7f6TdtQ5CKJ5qrw7dk3Ddl+PvMjGQmk2Sc03JE87t/e4uesY+Wld6Yh9OvMsT3ZGLfknFllSWZpv2GkYwtlxVeLnv99UeoyO/BB/97KzpolZ3dZE0ucW70tjOSMSde2Ik3PcKoqzz3lu2N3rGtfkY6bcGAkYwgGTvCPHnLZHWRkck1LBgGNj4GGl8uM5LZ+KAyx2FtbBgwDAADRjJipgXDWGidxDBgGDAMrB8DjZPM1q1bae/evVO3T2FgXT9YzYZmQ8PA5GGgcZIxkEweSKzNrM0MA4aBUTFgJGPLZTarNAwYBgwDtWHASMbAVRu4Rh35WD4bNRsGNg4GGieZ2dlZOnDggDk2IzfDgGHAMDAFGGicZOwI88YZodho09rSMGAYyMOAkcwUjCTyQGDPzVEYBgwDdWGgcZLZtm0bzc/P2zTZyM0wYBgwDEwBBhonmbrY0uTaSMwwYBgwDLQPA0YyUzCSsI7Xvo5nbWJtMi0YMJIxkrElC8OAYcAwUBsGGicZ25OxEdy0jOCsnoZ1w8A11DjJ2BFm63jW8QwDhoHpwYCRjEZ6FGAAABPESURBVE2Ta5smmyOZHkdibW1tHcNA4yRj//g3MMbAaPGGDcPAxsNA4yRjINp4ILI2tTY1DBgGYhgwkrHlMlsuMwwYBgwDtWHASMbAVRu4YiMbi7dRr2FgejDQOMnMzMzQ3NycOTYjN8OAYcAwMAUYaJxk7Ajz9IxgbLRqbW0YMAwYyUzBSMI6unV0w4BhYFwYMJIxkrElC8OAYcAwUBsGGieZcbGplWsjOcOAYcAw0DwGjGRsBFPbCMY6dPMd2mxuNm8bBoxkjGSmhmS+8dIZ+sP7L9AtSTI1dW6bw5k2fZKH36bLK2/Sg5/b+JhL66r0r8ZJZsuWLbRz507r5A2QW5I8TG9f7tInn3wSfu+/cEtjtk+derdffneMnQ26NFn/aXOosr4Pv305xV1XcTwybdX3qcPrdqnbfZ9euCXbwSfJN+ilM38IfcT1lyqwCh1W3nyQPjcFA5tYezdOMnaEeTzTeQB+HE4WnbiKjjuKM0q+8RKd+UOXtM4O3TgR41qzFWQhjQs1uU5PEBvSyvpDVre7Qm8++LkB8vd58x3kKPaQeZxzKOKMZb68+5jTyctXxXPgPa9eaP+8dGV1wgBvHARbVtcq0wPzvO8YyTQwo6iyEUeVhU7HG39UWWXzhY48hpnMKGXD+UtbwYaSVFzHWhYzROm4gx5sZI1yHAlJZ7QRSKYsTsaRHm0g23S9usj2X6+8Scmv4dxIxkhmYARdB5gD8MZBMm5NvNslSRhZ9YTj4XnK1MGT0fDsRI5uQznvvkuXxWzGSKaZGT8GDryts7BR5BnatWriKlJ2G9LI+jdOMps2bSK3ZNYGY8R0wJQvtsyBfFgOiKULjsmtSfeWbJBWAyDSI40LtXSufHQOpNWWXKAnT5/VmYZlVrNcg3rJ5aIB/ZT9o1jdpd37NhjUt0i5XAdco5NwWwWCyCHKvDL5CLdfzv9O9854fddLMpDdt80g6cm2RjqEEk9cH25/mQ71hxwX8noFG/faO33WGwggD7e7TI80POSzwKJ9N8jNGYT49hq0HfLGnvE2Rloeom1cPbm+0pbIg/S8ztKmsLu3xeBerNbv8mRCnivnu+7AjNvfSrHfly11CPr29rhQbuMkA0XaGMKwsrFdhzzHNu80hxPi+HII21DkMtHBeWcK+YUTe/jtc0Pr9Rq4XZwDIZfJbayVyZ8D7Dy/Vg7PU/Q62FXUDfmhGwct4rgDCXK4jXvkDUBDpgthUy6XP49dowNyW7i0sLFWFmShTK43nrnQ29k7LV6Oj++TpLznMvKuYTte71Svc/opJ9/O/bI1+cCHwxjqprUHz4v6cT3wHHZK5bH25PYJadHG7AAB9NFku3xBNwVzsA932vIabY+0shzoD1sEXeFgma54hhB2SevO9NP6W5r2/GC7aXVHfVGPoL9iuyIyuby0jqmcFTp//g+pj/E6xDHD29FIhi2XAVBoIIBChjEDAzwAJBqKE4yTpQFU5pVl4h7ppI6hLAZa5EnLzBixQR/ojXyxeDwvGmbpFp4pnZIDNa1Dr8NIPWNOMmarPL2z8oFoUgchlriydESZHGO8HFyjbjGMQU5WKO2WldY9i9mP5/Myhw9PZJUl68TlAVtyw13Lo5UR8iu4ceUEXEX6A3Th7YE4Hsbk+HzDMxzohXbksnCNOsrBSpG8TkbQidU9xAlMhvg8OwhyDPl68oLOvTK1NkH9Uh2Zv2mcZDZv3kw7duxo5XJZ2tlKNsaAYWMNJWQCTHwUhDjnvLIA6htXH0FkPcvqTPEO4492ys7A61zkOgBW2CEFY484JGlqzwB0aZ+Yk8yqc5beKEfTCfliZIO8Ukfk4zohLcrh9chqS8iKhShDDm5i6Xm5sTR5TkXLh/pptgDeeR9wMrQ8Wtmx/NAjC3NIk5bHnCGP59ey/CzZmv5cVlpmZLAU5DLykHnT/PAzrD+FvCxOyxuLk/mH7oXO0iZSLrdD4yTT1iPM0qjSaLjPAreUIe/zZCA9prwa4WQ5hKyGh+OBQ4MuLvT5+v9n4eW761pJJqOTc6C6/xnAPnz0izTSWbl6ZdWZ119eQ6Zmq6G0Pf2hUxY+XF7eRrIcfu/T6YMJqYN2D1loyyzCycIUZHO9EZcXQof1kgzk8DYGZmNtFLCS43SLYES2KfTRysYzrc6wVyxNTGfUFW2JkPfLWF6UKcM8mVKe1DkPDzy9kUxvuUwaVTYK7kM6ZbQxBEZlxOHkyHSQzUOUkzp5VpZvXN35ZDmLrM7knw1P/bk+67lGXXingDyAUe2wgoBgN3QyhLEOnSUb5Wth2Xze7r19lkiboxzeRrIcbqe/O+42W/V2hqyiIcpx9tLszHWKycxzKlo+lKu1D9qSE4eToeUBdtHeLswizVROTjtAX8jW7II0LuQ2yuqDqJdWZ8jT6uieIS+3iStXthvHCd4koMWhPBkWkSnlSZ3z8MDtaiTD9mTyDIfG4oBDnAvREACsbCik1cCEZzzU8vPGU9MyQhp4Lhz2wDMxFebPYteog+wAWnqtHkgHObxj4ZnszL7uxckwSzbK0MKy5Xg89PWK4Qj6wAFJvDhdUPbyu+dUkoEtnd0hR6uDjENZWp4YnrmMWJ14GnmdVSZsIdtdy5PqlzMjGSq7YpKBXu+/cF/6dgDNjk4HtI82oIKOkCVlID7ffwwvYxcpN0s/mX/oXviIPDzw542TTJv3ZALwxQjSdfyB02U9g3MghbysM8iGCiDrHd/kHSx1LoIgADoOxiBTbPBJR4eyEHrnFf+/iMtfhDCkPJeH1wPPeRh0Zrbhzz0gBzeVoe9A3TOIksvDdV65Ll3abuzUldaOaTrX5uKUTxqP5TLWdkEGw5GmC9oXTsXr03/FCZbgXDx+yJPaPWJP15ZcpsvLOz1kIdRsjWcIs/IjjQyhK29DpAk2YnZzz7Q8HtvlZnWavVE2D1F3aS+eJtWrR1qp3Vm7ynTuPk9frY7BHqxNQx1YX0c62f4hLcuv6RbS5cgM6XrypM5ZeJB5GycZreJti4PDdQ2ZNqboCE5f3thIJzuTNDbqibzSOcPZQp4LY+Af0lEBFzoQl4drbbkhll7TAXWI6Yi6ozwZyrrLsjX9nP1kvSFXc8hpOxUgpqGylfZOZfUGFyjThTE9NV2H6tyTJ+0LfbQ6cbtKvLkyUz2ZQ4SumiykT/P07NRP35+ZuedZTmVAjmIjyHQh6gr8xGzC64a0XA6ueX5uGzznIU8LnWFr6IV4LURaTQ5PLx0yf+au8Zzr5q55nZFH1h14S4mM9XnUnQ98IUOGRWRKedAZOmbhQaY1kmGjRNkYdt8fQbfBFiBh6RDQaTRHKjtLG+phOhTHVWg/ZfZQ1OlXZW+UJ/GnyU9JQNHZpZVOWMs/qXFaezVOMpPwj/9JbeCNrLcGXtQ365lLA+eQNwKFPAuLk0DdtoJD1tou61nVegWMsdlDVhlBNyU9nmFWkCVn0p5pA8HGSaatR5gnrTGnUV8slcmRZBESAfg3YsfeyFjImqXG8FCHPfzMZHAJMa+cGC43KsmgvrKPGcnYclnYVM7rNG14DrKQ69mSeDRdXd7z7PVAWhqLa88sBm2BWYRsc215FHmqCEFwrtxRy3KO99zyC3Qf+2jZRiWZlIiV/UwjGSOZiSKZKpyHyWgfkVibbNw2aZxkZmZmaG5uzhybkZthwDBgGJgCDDROMjZi2bgjFmtba1vDgGFAYsBIZgpGErLR7d4cgWHAMNAUBoxkjGRsycIwYBgwDNSGgcZJxo4w2wiqqRGUlWNYMwyMHwNGMjaCqW0EM2oH//xPb6P9z3yBZpKkdbqNWifLV62zS+66gb5+7Ab6/DbDSBuxxfuwkUwOySS3foHueGUX3Xn4OtqU4/RSw752K93whXYAf9v9O+mu175CO79+bWFnnXbe13bR/jHVI0k+RTf+n9sL2buNnauMTqjr/il0lknyGfpvx3eNNJgARrU+6frgt37zVdpfEvdl2i0vLdrV6aHpGMtftL9CfhHcwFa3H9gcfEBy639JfZrTbxRb5ekJ/VD3xklm69attHfv3lDhmMHbEu8Nmk8c6DQwbN36a+CRZeaBQaZ395DbNMlI4KMD8M4RI3GAmnc6OBvIQcjlof6j2Al51xNqeq9HXtm8aGvYBmEVs8hYW0FH9JeyZRXNh/Zvqj+iXi5Euzp7Fi0feYrYI6QtMDhBG2u4d7qWxX4oW1lpiPXhxkmGN0bbr5PkOvrS8blCQClKRlXVOQ88owCoKt3KyvG2680W01GWPvuKOa4AfNbptLQxx1O2o5WtXyy9pncsbR3xGobgKNY7yNDsz+tQlCx4HnedJ1emn5R73xY67mUdyuBGa2Muryz2Y3pm9WEjmYzlsmTvDfT1V/MbPjS6wu68Qau8zgOPK6ssgKrUr6is4Gx6BOGdnG7zmIMJ9s8hmVCWaKdx2UnTu6jdqkgXwxDii47CNV1ibYW0sbbAcy0EAa5HL01uG+JSezH8ZulUBjdoy6pmMpqeoS0jfdhIJkIyoSGFQ9Ia3zek7hi19KPGoTGxrKGFvANy5+nAgfR8WQm6YCSSlQZpYRukdSEvF+mKhKgTdPK21JcnY44L+kCGK1dLCycllyS4nYroXDQN9IrZCc+93n6PAmk1eyI90vCQ172wfm7z/LVdJB1QzE5wWLxcnld7ztPyfZLQ7q5/iT0CLpPXRWtT/rzsNXQY0FH0d6RJ26NnL6SXeiItnrtQptF0hL1jaWPtrrV5rA1isstgP6Yn6g19ZB9unGRmZ2fpwIEDrd+TSTf8fz1XCCQp+AuOQjSQjRIHMMXA42QCQH/5Qn8jPQBCdCboAEADMIhHGPKL+n7+p18qdcAA8lzo7Oc6pCvzi/9zJ90lZCNtzMloOsu0IY2yIQw7lTkgAZ1iITqktCO3U9Dp2JfpL1/pD1K0ttXsjnSSNGM6yXjklxgKujOMpGnZvZOFdpP58SxryQ31ufOFL9Nd7JBJrC2CrYQOsk5F7335g4MZ2IPbE3qm+BzSc5igUT5kabZBGoS+zoO64Bnagg86gi1EP5GYdzLy9IjZG+XzMEtPYEHrw42TzKT8T2b7kdtSp5d3RBIg0MCEZ3xkw6+zOiFvXO06DzwujwfF8Mk4DYwoIwbg8Lw36uSgx7P1hACp78x9h8tlxvTWdObyYHPp8CG7TEdDnrwwpivPF/QWxAfHNuDslFlHyC+cDS8j6zqGoVi8lAU9NSzk1R95ZR9An5EykV7GS53We5/qzeyJcof07J2C5G3Ey67ChrH21eJj5cXioWtR7MMOWfbnfY7PWo1klOUyzGKyDIpGyutMSFd1mAceV14MQFk6awDmugNsznEXsQ/Pm3eNsgMpsJGjyxvTG/k4ifC04bmQB31idsLzsiFslGefoBdzaq4s5OcOTGvvWP6i+qoye4MIXnZMnqYn0nL7I46HsbxRkqlpcMN1ctdS75ieIa1oO8jTbItnPMzCHsqWONLa3csZng3l6ZFVflE9eTroxvtw4ySzbds2mp+fb/VymTP83leHG4wb013HQCDT1XGfBx5XZgxAsiNx/QAS7rD5c3eNNABSVYQDe7pZIerHR5AxvaEP11mmjTmvLDvJehe9zyqLy9D0ds9hB+7oQxxzarCRdEK8jKxr5Oft6K61WbmT42wq07p7rifKk/ZHPMJQH7H8FbNdLB7yRglj9eeYi+npysuqI2THbOnyh/YXNkBdYnUO+RgWYrrk6RHzEdChiJ6Daf3eIu/DjZMMV6iN1zi2rHUcqW9eAwEkWsdMO2dkZC3L0e7zwOPyxPSLAdLl0QCslY84pI85G6QrEqJDo2N6PftLZzG9oQNvMy2tFuf0itmpiM5aGrR7nvMPejNn4eTBDrw+kCmxBFtpeuTFFcGQ18f/QZYvgcT0RJkxW+O5VsdUZmTGgvR5NoX8vNC3ef5SMsrlbZHqieUy0XYot4ht89KgzWWdNdzE7J1XRhHs58lAnb1d+iTj7p1eRjJiuazNx5YHGlNZo+fP3XUMQDFAujwagKVceZ+XBx2azzSkjLTs1MFIUunfx+oDR8A7o1bHWKeNydV07Ovp3orQ142nzbMH0sbSoT7csXkd82fXkF0kLOo8NH2c/Fi8e6bZn+sUyxtro5ituMwy1zH9ZHxUz94bCzjmePlFbJuWFSEpJytadq/v8/6kYRg2cwOT2GBEy8fr4a7z9OTpffv1+4XLayTDSAaNwhuPG5BfFwERT1/1dQBgBkhjAJIdieuWZ4O03mJ6H3MMTi7k+ZlbH3woM837tH9Pmbepd6SwL+/EWp0hny9xONlaHWNpY3aCjjL06XelS0dcP54O+nOi8Hr1T+EFfUQbhnoyO5fVkesSu4aOMQeEfEEfNvNGm8dmsJAdtU/ktTKQq+XT2hQ6lg2dLO580RYep30yD3VnbYG0EnNcB9Q/ZtusenI5st293FvpK08OHkySekLHO5++mXa9Ej8FJ+Xzst11ET3TNBl9uHGSafOeDDb8Y8DgDZACXjgH/ryJawDLdQz8eOeMAUh2VgASMmQoHaWX650s0mbZDOlj5I0OCVkuzJslDKRlDgB2l3VEPMoattNgfSCfpwsysDkemcmEdD1HClku5HaC3aVd0K7c7kjLZeFa5kf5eSFswXWK5YGzCWWmhNNbRlPs7+RAfj9Pf5Ch1THNE1kuy3sW0zsWr9nT2cFjdZhkUAeEvG1Qhqwv0rpQ4lmWAxlaCEJM5fR8juZ/ZBu5+iCOtzH6I9cP15I4i+qp1R11/v+iXLDRY/6v4QAAAABJRU5ErkJggg==;" parent="1" vertex="1">
                    <mxGeometry x="-220" y="40" width="202.25" height="90" as="geometry"/>
                </mxCell>
                <mxCell id="42" style="edgeStyle=orthogonalEdgeStyle;rounded=0;orthogonalLoop=1;jettySize=auto;html=1;dashed=1;strokeColor=#FF0000;startArrow=oval;startFill=1;" parent="1" source="40" target="46" edge="1">
                    <mxGeometry relative="1" as="geometry">
                        <mxPoint x="-10" y="270" as="targetPoint"/>
                    </mxGeometry>
                </mxCell>
                <mxCell id="59" style="edgeStyle=orthogonalEdgeStyle;rounded=0;orthogonalLoop=1;jettySize=auto;html=1;dashed=1;strokeColor=#001DBC;entryX=0.299;entryY=-0.011;entryDx=0;entryDy=0;entryPerimeter=0;curved=1;fillColor=#0050ef;" parent="1" source="40" target="66" edge="1">
                    <mxGeometry relative="1" as="geometry"/>
                </mxCell>
                <mxCell id="40" value="" style="shape=image;verticalLabelPosition=bottom;labelBackgroundColor=#ffffff;verticalAlign=top;aspect=fixed;imageAspect=0;image=data:image/png,iVBORw0KGgoAAAANSUhEUgAAAZwAAADbCAYAAABZaydZAAAgAElEQVR4Ae2d+48dx3Xn84+0wuGQM96IjJSJJdFaT2RjLXkAeqyIGMYgsPRDjkIDYhTRjrBhIK8eVjaQQFGWd2mRowiWYUkEdxUChGmCApVgQEqeMGPThEYcuwH9L2dR3f3te7pu9eO+uqrv/f5w0fd216urvn0+fU7V7f6ju+66S/hhH1AD1AA1QA1MWgN/NOkKWD5FTA1QA9QANWA0QODQw6OHSw1QA9RAKxogcCi0VoTGO1ze4VID1ACBQ+AQONQANUANtKIBAodCa0VovLvl3S01QA0QOAQOgUMNUAPUQCsaIHAotFaExrtb3t1SA9QAgUPgEDjUADVADbSiAQKHQmtFaLy75d0tNUANEDgEDoFDDVAD1EArGiBwKLRWhMa7W97dUgPUAIFD4BA41AA1QA20ogECh0JrRWi8u+XdLTVADRA4BA6BQw1QA9RAKxogcCi0VoTGu1ve3VID1ACBQ+AQONQANUANtKIBAsej0KLoAXn20m/l5jvf7Rvs6IFn5dLmVXn54ajvGO8UeadIDVADXdQAgeMJOFF0QH546ZbE8Za8+0Q/VA788JLcimOJP7kqr3y1//ioYlt984Z89tlnEsefyNVXvkqoedLBqOPI/ARPlzRA4HgyNClQqo19tPqm3Ihj+eTqK/LVaHzQMbAhaGioumSo2Nbp0CuB4wE40YEfyqVbzUAybjhE0aq8eaNZ3bzIp+Mi5zhyHEPRAIHjATgpRNyhNFsYAES89a48MQYvB+WN22uy283fNHLUADVga8ALcHCHb+YQxjWP0LRMGFzUndRvGfMqr8J1DPMxuswyg452lh23B8j8HgRQrvx6H85/kPp1fn6nEaEGqIFhNdA6cFzzEpgg33r3iaEmr11lJob1w+KEe2psi54F8moPAvtsowxjXUibhaj05D6gotNhgNKyq+dukBZbtGfY/kE5ZotzsM9Np+F3GhRqgBqYhAZaBQ48AdsQl+1vesJNJuCryko8CLUaLG+P2mfyuwx/WncRYibtoPur2geAjQMSBA4NSZXWeIz6mKQG2gVONlnuulMfJWwEEAy78spVtwtipWCyQnJmwNAm+1xdddUNMCBhg7oun+u467xc6biPhocaoAbGrYF2gZMt89VzHfp72X9Smpw0vACUVwYfgADpsLXrhpGHV2H/Nm3CPpTh2oYCHAM60z6cT5M+ZRoaHGqAGhinBtoFToWHM86T0vDRBj+9u+9fElzmdWiPJgVVMXSWh94cHk7Z+ZSF2srSm/04n3HAgh4ODUiV1niM+pikBtoFDibYBzDQw568y0hXgsXxj/8UMmaC/5vpUwEc7S4rs6zd8LA0CMvSYv8weZDX3sIrGwe87LL5m8aKGqAGqjTQKnBMQ8q8jKpG1h0zRt824K47eZPOhJWQFh6K2WeH1EydOP7J1Z/LhRvulWUAm16lVtVepB/E4A8Ktcr6+cfPoVZCVvUpj9HIUgPNNNA6cMzAwOjacx6DGGE9wACDLq8KIDqdgU9VmAuArAKKq/4EYtYqN7R5EIDAIxnHgoGk7wkcAsfDn52hfW6bGeZp7ScvwJnWzmx6XgBuE8CmcHJ7V03r0+kAsCZ163z8PtuGguPP8R+HBggcT3d7dnjPNZiYuxknHAgcGg6X1riPumhDAwSOJ+AgDFe6fDtb0TeuUJoW0yAhPZ2P32mUqAFqYBQNBAccGGI9z1L2fRLGeJTOHDRveq6bzvfRJHNHJXNAg9Zjp9d9XAY8Ow9/09BQA9TAqBoIDjijnhDz86KgBqgBaiBMDRA4nkJqvCDCvCA4LhwXamByGiBwCBwuE6YGqAFqoBUNEDgUWitC413j5O4a2bfs265owCtw5ubmZGlpiQaP0KMGqAFqYAY04BU4n/vc5+TEiRMU2gwIrSt3YGwnvQVqYHIaIHBo7Al8aoAaoAZa0QCBQ6G1IrQu3jVGR96Sj/4QJw98ja++LHuiiH3F64UaGEEDXoGze/duWV5e5gCOMIBdNORdaDNgQ9BMLrzSBR2wjeMdf6/A4WCOdzDZn+PrzyNvfSR/iK/Ky3vo1VBX49PVrPclgUPvgh6mQwMEDo3srMNhEudP4DiMzcLjH8ih9W155FsH+oyx65h5AvP9L/xO/upfdvLP2qu/kP17i3fHad4rct/+SPZ/f6uXdv1jWT54d19ddQMeLR6X81uxbF88KYvHz8tWnM03xDuycfZwX3lIr59Nt7NxVg6ruYkoWpTj57ck3r4oJ6MlOX0tLTN5v8/Ohpw9XDynaOm0XMvqRbmmPWh7lJVh9i2dvpbOh5iys7abPDo98vneEjgEjm8NTmP9XoET6rLo6As/lkd+ui1rz78q8wVjnIJFwySFzfUCMPL8FnQAKwMmlA1Yra2nIBpEZBogsYKBMeyxBZ0k7WYRGICUhg6AY8MDdaUgSqGTwCYBUw9CgAogAuCY8pJ6EkDtyObmZgLFpK2q7YOc/yTTEjgEziT1NatlEzgOD8eIwXggNgQAktWnn5RdCkQu8WhvBscBHDt/un9wLyeHgGWwYeQ1SNAGvQVcChCBh2MDC/utunR55rtdN37H8bZcPBkJPCK0LYVjeswuq+r3l068If966ZJcvnzZ+bn0xg/kvpoxqiqfwCFwqvTBY8Ppg8ApAU60+p48aoXVXBApE54LIq59Zfmb7AdwYLyRxwUSHNPbPJ2CiGufzlP3PQdM5vn0/c5CcPCAhgVOXTtGOR5FL8ovd2LhCrXhjMoofc+8093nXoEzPz8vKysrebw/JLHloa4srGb/1m2F56PncJKwmTU30zpwFEhMexFCQ7gMWx2OGxQ4CKGhLGzhNXUJOPlSaK5OC/Ka1Nccv3cTTF6BE7potEeTQqU/7AVPCHMyOCcXXFz7kH6YbbmHk072w+ibsgEGeBZmnwsurn2utuXp+kJvxbonBZxJhtTo4XTTmLl0yn1hjSWBUxJSSwxytnjArFZL5nSsRQAmTRlEXPtd+0a5IEqBo1avJedRMv+SQ0N5Qq59rjbaIEEae3/f7w6E1My5cA4nLEMFfXHb7XEhcCqAY8SdgOb5t+XBF35XuUxaLwTAkuc1DyG13MC7IKK8EaQzIbBhQmrIj8UApq8AwKTMDs/hmHMhcLpt2AimMMfPK3AWFxfl2LFjQceL85BZxbJlAAZzOAl8kkUHxRDcpDwczJtgay8iSGBg/6cmg08yae+Ck9pXdvFqwCSQSVai6f/xRPmqNYT3sEoNob0QFw0QOGEaqzIdcn93xssrcEL9H05XBAyD7wJMV84h1HbSw+mOEQtVQ2xXv4YInJqQWsiiIXD6BT2u8SJwJte34xojltO9MfIKnL1798qhQ4eCDqmFLGoCZ3IXHJZI33z3uzI3wh9IQ9YP2zY5/bBv3X3rFTgcFPegNO0XAme0/qvr5+jFX8oOnk/H9+HwxrDD0ZA6rbd1nMChiGhIqAFqgBpoRQMEDoXWitDauoNiPZP1+ti/7N9RNOAVOAsLC3L06FEaPEKPGqAGqIEZ0IBX4HBZNO+WRrlbYl7qhxrolgYInJq7irm5OVlaWuLdV00/8cLv1oXP8eJ4+dCAV+B0IaRGL4wXpo8Lk3VSd9OoAa/A6UKHEji88LugU7aROu2CBgicmlBRl4Bjv+/Gfs10FwTps43R5/+3rKxvy+pTf9M4hBr9l7+Xh05vy9r6b+UrR/282+mpC7cEz9FLn2m3IWe+3Hvtt88+Zd0EodYAgVMDnN27d8vy8nJjA6Q7t83vgA0eitlm3V2oC2D4y//5suwteXJAF4FjYBPHv5H3n7k3eI12QSds42QB6RU4fLTNeAa36TtsZvlimhRwfPZpFD0lF27FEm+ckS+XQNRn+1j3eK7vaepHr8DpUrgq5EHP302TvYMm5Lb6attUAmf1dfnw01h+8/4zci+BQw+vJlrj69rT9RI4HRgkPWCu702Bg3Q63m+/2iD3lhJ4pa+LRnr9orYkhGfemfPN43J+KxbMF+FV1jqtbjOOtxH6i6I/l3v+/j8E7ylybddO/1z2ZcZah9Tm/vKCrK5vJ3nX1jfli18tzokgLcp0pcF5u9pRFdpDvrpt1BA4SIdxNNuNM18uGGikMfujpy7IrewZciatBloSwjMeVZYmjs180aq8/uGnyTwSvS16NVW6JXBqgBOqF+aChzYo5jteemYEgBefacBgXyFd9jpqlAUw4EGhSIs5o/SNn+lL13Y2N2XLgMp6xTUEqNuMcnBs0tvmHs5v5eAr/yEAEWCx9n+uyOfvL0IHbd7z19ekDDhR9LDc/6NtsfPv+esrQy0yABgwPq6tBsTq6x/Kp3FcAAz26XS63BQi6bkiLQCFBQrxb96XZ+5NQ3q/2dyUTeNlJRDifBJ0wW0/fL0CpwsDEipwdN/BkJcZ8aLXUjSaKTh2ZOPs4eSON0+rXkdt6sr3Z28CBXBSgGVv+Uze+Bnlr5rWcEN72/RwUGfS/mw1WZVnAa8FsEH+1NspX4VWCZwG9aKeQbeAhAaHLgNzPK7j6WKD3mo2lJWCpKcR7EcZAE7iCWEOKYFPlHtGgJNuC7/3G99Z7BMCp6MejhZrLXBKPA5TBjyX3JPJPJyykBjq1aCyYYQyXcBB/ra3zT2c/mXRIwEn83BM6K0KdsP0hw0Du4w0NOb2OOxjdWWhbA0qAA1hNITiCBzCBXqxtwRODXDm5+dlZcXP/yvswSr7XQucpdNyLY4FUNHl2HCw4aHT6u8ETs+oVHk4ps8QlsN8z7jgUweJNBxWBZxeqK2uLIw9gdMbd/QJt837xCtwumDMuyCmWuBUeTgWjAic8Xo4tn40fOzQnZ227ncdJGwvRpdnw6iuLOQlcJobV/QZt70+8wqcLsyPdEEstcCJ0tVmrjme1FPZlosn07j9pIHThTkc+0kDo4TUXPoBdOyFBEiL0JSevMcxva2DRNXxBBzZ3IspsyqtrnMY4CD0ZhY4MNzWM766X2flO4FTE1LrghDqgGPOoTjJn8El8270XMskgYN2GsPjgt8k+zo38o4lzqgXiwbGCZykTLX02tRVN59kjDpWn1UZ6CaQQFm6HHvlWdKmhkushwJOVnYy7gpy6HduZwdCBE4NcBYXF+XYsWOF/yyEdoHAkNcZcSyDhjHDf2f0+UwSOKYeXx6OqRvQ0XMpOqw1CHDMvI0uR3+3PRf9nx6ks6FWGIPCf1x6K8Z0muR8GkICgOmNe291GspsAi+TdhjgIB+BMztgga7srVfg7Nq1S0xYzW5USL8Z9uNFEpIeu9qWPEzIx/AEbe8mrS+vwJn0yY2jfAKHwBmHjma5jChKn0RQNyc1y300K+dO4NSE1PiAUQJnVozBuM8ToElCafRsZtqzgba8Aqcrj/5HZ3FL+FAD1AA1MLwGvAKH4arhB46iZ99RA9RA1zRA4NSE1Lo2oGwvjRA1QA2EqgECpwY4CwsLcvToUcZfa/opVIGzXTS+1EA4GvAKnLm5OVlaWgramDPsF45YaTg4FtRAtzXgFThdEA+B022Bd0FjbCM1NisaIHBqQkUMqdEYzIox4HlS65PWgFfgdCGkNukBYPm8yKkBamBWNOAVOAxX+b3Qmj43zcfFgPf0uJ735qM9k64ziu6WP//htqyd+b9yT1T+/DTdjijaI/v+9kbyTLdD/+uMfK5hPl2Gj+9H3t6UOP61/OxIs/P00UbWORnbRODUhNRCFh6AgYcy6m0TQ438dW/3HEcfmId2xtkrqJuUN27goDz9ZOwm7RhHGoBh7Y1/kwPLbiNL4NQbuOihl+RXt+P8SdrQe3z7srz0kLtfm45fFB2RtzdjiX/9MznSEXA3PbeQ0hE4NcAJ+dE2owJj1PyDCHlQ4AxSdpO00wicJucdYpphPRwA5/bll+ShDApR9JC89KvbCYR+/bMjQ694JXDqgT8OLXkFThcebRNy2G9UYIyafxABEjg3ZNweziD9H1LacQLHnBegM0qYjsCZAeCEdBGUtWWagAPAIBSBrSuk5ko7SjiqKXD639nTexupa4xMuTgPs9XvBHKdg05rp9flo9ztiyeHvmv+40feloPr2+XvzVm/JV86lIaCCiG1XU/IF1/p5XvsmWIbkBbv1jFbO40+F7sdVeDT+aq+R0fels24F96qMvYGMH397pjDATh02oI3k4XU9D608aGXfiW341hsL8eu226nfVzXnejDEa6z89hlok3c9kPMq4fThQGZFuC4QkowyDZwkNbev3T6qmycPTyUAW4KHK2Jqjx52615IfNm048ckMA5NYEmXmiXGJzti3JyxJj+IHM4h165LgcViFJY3JaVJ9ac/R7t/Wf5yvp2KXB2/ffLsrZezG/y/LcRFhm4jLsxwnF8Wy6/9FDezjKvIU1bXDSAcJk9H3Pk7Y28TKRxAQcA1MdMPRpAeXucsGs2hzNImVrL/J7CxytwuvACtpCFAqNr35UlhnJnQ84ext3zohw/vyU2QJDf3l9l6Iftj2HKrMoDKGiPpqptgwDHlGPqNv04ioeD9gwCnDUFG5M/yrydslVoVcBpUi/a2HQLo60Ne9LObNJd73eBxaR17Xfts9tUCZzM+6mb9E/BVASjbn9dfrtNSd7E2+sv05V21vd5BU7I3kMXhFEGDLvtMM723b0rf1lau8xBf1fBo6ysqjxoe1MvZFDglLVpmP1NDD/CZPay6FGAY9pqPBwTchtHGM2UV26w08l7eCgIj7kMuA2XMojZfT0+4PSH3tAGV3vtdti/4V1pb8pOw98BeDgETn+McxBhwujaHopdRpmxdeUvS2uXOejvKniUldUkj0mjPbwyj2dS51XWdr3fJ3BMO8Y5h4Nwmu5z/b0HnPIQVR9wKuZmCv1YkQ5GX3tYgIhuH77bcEDaOuAgHcrRW7tM3XZ+J3DyWHOVGObn52VlZaVR2qpyJnHMBQxXPWXG1pW/LK2r3EH2NYGHXd6geQAfF4AndV52m12/fQNHtwnwsUN3Ok3V9zIPx84Dw+wy4JMADkAIow9vCABE+wAmpMv3N/gfzqBlomxuezfWXkNqIRtziCRkL8wFDLRbbxEms+/+sSJMG+imZerym3wfFB6mzHHmGRQ4gFfrczjWkwZGDam5xqZqIQJAYe7cbaNsyoLR1Z6Eq448pGat8kJ+vbKrLK1dLvLadaPNGi6lYMlW19nnlpdR8cfPQcvU/WUvqLDPbVZ+ewVOFzp5GoBj+tms3tqKd/JVZilstuXKlWv9iwmWTsu1OC4sMTZlBLVKbfG4nN/sLYww7SsDa3osWzhhrWozx+wPyjFG14a0nbbpb3gWZcuXJzGHk5bZW3pt2lrnbcGoJudeYnyNh1IGJN0fKAvGPQXGbfn3Kxty21ophrS2R1S3Sg0Q0gBLzjMDiy4PXlBZ21PPq3zy39XGujKRp6o/dZ9N+3cCx2Fw9KB3AThGzPbH9Wgb3LUn4s9WsSVehFrRhnPXRhdlj3K3r+tGedjqcqvSaU/MtBMeGsoxW3thBM4nSR+l0NHpy4CCdui26bKG+Q7o4P8zOqw1CHCwMg3l6G3fEmjrPz3JAgLLi9Lngjt900cAhT6O79qQ6v6082iDDCik+4rLok25um6UqcsDXHAMW9vjQRt13SZtAp9sHkiXi/RmC5iibO01meODlgnvLa9/xCX2uq1d/E7g1ACHS7f7PYAuCp1t5jj60gAgVQZGX+3yUa9X4CwuLsqxY8f6Qho+OoJ10iBRA9TAuDUAr832lMZdT1fK8wqckMNVXRlAtpNGkhoITwMAjQml0bPpjQ+BUxNS68IDRts2OK65E8S89dY1j9R2W1lf72JnX7AvfGvAK3BCfvQ/BoZeGC9SaIFbaoEaGE0DXoHThcEjcEYTWBfGmG3kGFMD7WiAwKkJqVGI7QiR/cx+pgamXwMEDoHDVYLUADVADbSiAa/AWVhYkKNHj7Zyorx7mv67J44xx5gaCFsDXoHD+ZGwxcGLl+NDDVAD49QAgVPiSkePnpGNO7HE5pliH74uB2b8kRTjFB3LohGjBmZTA16B04WQWvRYBh5Ch6HPkpsTGs/ZNJ4c98HH3StwujJgj53ZkDvxh/L6gfSVzV1pN9s5+AXBPmOfUQOT0wCB0+CuFcD5yYMEDi/GyV2M7Fv27bRrgMAZI3Ceef+2xPGWXHh6H8NPDfp12i8unh8BQg0UNeAVOF14tI0RTBMPB3M95lliWxeeln1cZEDoErrUADVQ0IBX4HRlWXQj4ESPyZmNO/RweIEVLjDe4RbvcNkfs90fBE4DAwnvZevCU/RcGvQXjcpsGxWOP8e/TANegdO1F7Clno75X85P5EGGzHgnT/hSA9TAQBrwCpwyCoa2H38C5dwM79xC0ybbQ012SQMEToM7lEez/+HULYs2q9S4aIAGoEsGgG2lXtvUAIHTADjNFg08I+/fjhPgxPGHUgenNgeZddGoUAPUQAga8Aqc+fl5WVlZGSgG6KPTmgDHtCt65n25bZ69xv/iBD+mPnTEOmn0Z10DXoEzTcuiE+DguWtbF+TpfXwqwaxfXDx/AoYaKGqAwBlTSM0IC3M4H/7kQd7hN+hXXozFi5H9wf6Ydg0QODWGMYp+IP/vdvVS6Hy5NOduCNoaPU27QeH5EZpVGvAKnKqG+T6GpdDJ+3AYIiNICBJqgBoYWQMEDkU0soh83xywft5VUwPd0ACBQ+AQONQANUANtKIBr8DZvXu3LC8vt3KivAPqxh0Qx4njRA1Mrwa8Aqcry6J5AUzvBcCx5dhSA+1pgMChK00PkxqgBqiBVjRA4FBorQiNd5Ht3UWyr9nXoWrAK3Dm5uZkaWmJBo/QowaoAWpgBjTgFTihUnjW23Xv6WuS/P8oeS5cLPEnF+UfOvz+n/1Pb8rauaty3582f9zQwreuyGPntmXt1XfkT/c2zzdu7UTzx+S9m7HsXF+Xwx0eg7p+ufvUB0XNfXpJnp3i863rj2k9TuDMwF3FsOKNoiU5fS2WePuinAz04k/B8LH8xdf2l94h73/6pqytX5X772kOjoVvX5XH1lPg7F9onm/Yvi7LF+35XgKc3994U74R6BiUtX2Y/VG0T04Zzd0hcIbpv9DzeAUOQ2phx5o7AZwEDB/LX6zeM1bghHLhEjhhXyOh6KQr7fAKHC6LDvtiInD8jw+B438MumLMu9BOAscRUlv4zgdJ/P7hbz/Qd9fsOhZFX5f7X7glaybmj8+pX8h+K/af5r0in98Xyf4T/9lLe+5jWT74J3111QkoWnhSzt+M5c7GWVlT4Zbo3tNyLY7lk4v/kJeZ7rsjG2fXZOHJ83IT8zNWOl1nqMCJHnhVHjmj+tqEvtDv2fbh7/zX/Nx7IbWDct/zapxeeE3mVb+Zc0/ne1R5jjToo752nKsO7SFf1RZzNoU5tDgWhNTy4445DvsYfn966VmZP/aeGvMdub5+OO+fqvbYx1CmPacU3X1KPohjMXUhT7ovratYfzEd0pvtuENqTeeG0H7d74Vzie6WUx/EEu9cl/XDxRBrVHIMfdUrs7rf07ZWp9F91cXvBI4DONEXfiyP/HRb1p47JbuVQcrB8moPJum+67J88O7ehWbyG4NoQWfh8Q/kEIzjc68mxi6KVjNYpSAaRETR4nE5vxXLzsbZwoRytJQCZ/viyV6bsn2J+O9syNnsollKFgikILLrDhU4up3pXEuDkNqr1+XgmW15+DtfTPokOnBaHj6zLasnnpJdaoxRdhQdl+Ufb8taCXCig7+Qr58z+f9O5rL8SZ6Xhl9kkBrlHbn+5jd642bN4UTRHvneezcljj+VS88WDV+a//dyI8sP7ygZ853r8uY30vT7TplFIf35ce5VW5QJACJttO9UcpNzRwMn2+eu321YxwWcKJqXY45+2vO99+Qj1UbT/gQ2FsDTPiqCMd3X327AqnDuGYB31Nybqdvc6GmQ5f2XLQ4xfWXDHGmmYesVOCE/2mb/97dk7VwRAtEXXktAsvr0k04jpQWRwMXKD+DY+dP9g3s5QwHHWgAAOGlvCOcxLuDc/70fy4VLl+RS2eetf5SvOIw+2lG1bQycc9vySAYbU54B/X3GKy1ZhVYHnGSxwno16KrabR/D3bA2UEk7LeAk+zJDrg1XbmDVZDvgEP/+Rg6bsvx2e8p+o8yBgKPaVFf/+ICTeSRW3WXnZe9HO7Txx7nrfSZf6pncyW8AXGORnDduFiy4FY7FvRsGu03T8NsrcELuwGj1PXl0fVt0WA0hsfv2F+8sXefhgkhvX88bcuVtum8Y4Givp66ecQGnrp5RjjcGjrVKTQPHtQqtDjjRwXcSfayNIYxmzj+9S+43NjBy2sDDGMbKcDnvsh2wSupyeCNNx8DVnrIyXV5PXT35uQ0JCpTf8wRj0f2E43XbvB26jwEMFVZDOK0wPpm3oj0e1DeKd4kyurwlcBwhNTOgaajrd3lYLQ+nPZ+GwvSgw/Ox5xHW1o3X0oMLgTP+CWBfwEk0koXleuM+/ByOHQ6DvsoMfBqe6YV3krts25OZYeCg/xAaS8J6Zt5SAQRpzLZvrgdznBb4Uoj2+t11owD453WirHzb84Z0G2bhu1fg7Nq1S8xKtVA7OgFEFhZLoVIEiGl3tPqOPGomqi0QueDi2jfKuXfFwwkipDZmD8ceN8wJGfjoBQt2urLfKUCaeTimDIAoDe+k4SN9l63T9O2fAQ/H1c85fAoeCuZ6dvK5r6TvSv4PBM8HYbUEVDaUMtC7PBxXu2Zpn1fghL4sGosHTFgtWVWmFgtAJEmYzfJkzDEXXFz7UM4w2zLg4EkBOnyGuRq9r65OhtTKFw24+g7QcS1EQOjF3PXquReUg/CTfQx33jY0TL7EgBrj+bhZIdZ/1wwo2XlR1zAGsaxMtFOXOUw9MOh1f/zEnFcc97wN9GXV1g5p5eNiQ6MEOIV+P5o+BUKfszmen0OJN1XWPvQhYFaWrsv7CZySkOgeP+AAAAz+SURBVBoGNVk88Nzb8uALt+SRbx3o88ZSiGzL154+Ln+cTXznS54tEI0dONGiHD+/JbFZdbaWzisBNp999plouEwrcGDky1aTmXHsLYvuzb2NOodjlk/bnkz+1APHn1ARZjHj4grr5HMO6u47MUCfXpEr13rLoqFLs4VBT1Y2qdVQSFMGB+SzDSXyVW1L2xnHYs5NlzlMPbmxtgBgt0kvs3YZ6ARIm8UlzC645PWpVXs9mLmfeJD2645c//kv5IOd4oIMtBMr0lxtQxq9RdsSfai26DTT8J3AqQFOsngg+W/HFSlbLJCuaOv9d+NrZhVbsuigGIIbN3CMAHMvBPHhTy7KyWy59DDAiaJ708fZoDxra//nJ4SLIIeO+i+OhkFT4ETRk7L8Wm8ce3Mz6T7tuSTA0v/pSeouf3wODJttlHX/IQ1i/zvXzeNs0ke92F5KOvZYIt0fikuOT2AOJ603e/wMtGHu5B1hpKbAgbHFedtbl9EGTOOKVV2mfvPfIF1e2qe9Gw/dT710Zsl41rcO8OXQNUuYHaA3ZbrLTdviOp8kfb6MfDCvDfV1YesVOPPz87KystLnNXSh49jG8S8AYJ8O1qe54bMWC7AfB+vHUPorh+gUj6dX4IQy0GxHNy/QWR83hOl0GGvW+6TL5485nGkeTwKnJqTWZQGz7dML0nyewRHy4bh3a9x781HDPf2hS+NN4BA4DGl2SAM941Q9f9DUCOXgsuY6evMZvTkQewVd0zqYrlsAnOR4eQVO6MuiJ9nxLJsXITVADcyaBgicDt3dzpo4eb40yNTAdGmAwCFwGFKjBqgBaqAVDXgFzt69e+XQoUOtnCjvlKbrTonjyfGkBrqnAa/AoWC6JxiOGceMGqAGhtUAgUNXmh4mNUANUAOtaIDAodBaEdqwd0TMx7tpamB6NOAVOAsLC3L06FEavIChh2e1mWeA6WezzYIRiI68JR/9IX0oZXz1Zdkz5FtJZ6GveI7TA4VJjqVX4PB/OOGLdFaBA9gQNOFrdJIGkmWPd/wJnIC9C4p9vGIfpD+PvPWR/CG+Ki/vKT5ZeJAymNbf+LHvw+x7r8BhSC1MUfBivUsIHGqT18H4NeAVOKEOaPIWT/Oq4G8/0De/hBeu6ZexmXej3P/C7+Sv/mUn/6y53g76+AdyaD19r455hw7Sr1kvaptUv+ANoWY+Bp+djbNyWM1N6BAa0pitebPixtnDff2BF7vptHquJ8peEmeO6/3mHBePn5ct8wyvnQ05ezgsT4LAGb+xmZSuWW53xorAcYTU8GrptedOye6CMf56AhYNkxQ212X54N25Mc7zW9ABrAxo1p5/VeajSACrtQxEk7p4EthsFg07DL4NHbsNabp+4CSw2b4oJ1UfLZ2+lsBMwwXQ0dAC/EKEjTl/Aqc7RszWK3+HO3YEjgM4RrDpWzyvyOf39e68oy+8Jo/8dFtWzRs9lZF1CTyFS/EtoQCOnT/dX3w7qKvMce/LQWBBw66nDDh2OvMbHpINsSJgsldjx9ty8WSvf13lle370ok35F8vXZLLly87P5fe+IHcVzNGZWWb/QROuEaratx4LOxx8wqckB9tk7xaer0YVjOhNoTE6oTtgohrX105kzyeA6cmpDUMcGIHxHT4TXs7kzzHYcqOohfllzuxcIVa2MZrmLFlHr9j6hU4IS+LzkNdWVgtikw47VYeCtPCRQgNczLY2nMzvoGDEJqeb0nmZ0YADkJofWU6gGP6DOltD0j3p6/v+VJork7Lw8O+xoL1+gXDpPqfwCkJqZkOTwBxLg2rJeG0M/1hL3hCmJPBQLng4tqH9JPewtA751aGAE7uHVmLCRBSq/JwdjY3k8UCui2Dnv8kQ2r0cKbT2A2qMaYfvw68AmdxcVGOHTsW7N0UPBezWm3/if8UvVgAYiyDiGu/ax/KmeQ2h4MFlrL9dltcIbUysJTuXzwu57diSUGEOZz+hQh23b5+cw5n/MbG11iy3nDG0itwuiCEZPHAc2/Lgy/cEr0UGm1PIVJcSIAlz6GE1HKwKG8EYBg2pIb8sZr4x8KApEwVUqtKy1Vq4RgDaJpbjsmkNEDgVITUTKcnIbNz27J2rrjiTA8IAIO5m2QV2up78qj1/xpfHk5yHtGSnL6WPhcsAUIGHxNqqzP6Lg8nKTPzWjB/k8In814y4AA2Jo0dQsOcUl39uq/b+k4Ph0a3La3NUj0ETg1wZkkMZedaBpyy9NOwn8AhcKZBx6Gdg1fgzM/Py8rKSrBzOKENlq/2JF6QCp35akeb9RI4BE6bepuVurwCJ+Rl0bMiAPs8jTfz0cWT+U0A/jsT4jJmu+3j/I0l0jff/a7MjfAH0nG2iWURgl3XAIHT0ZAaljlj/qRsO8z8iF22PffSddE3bX/04i9lJ+b7cJr2F9MRiHUaIHA6Cpy6geVxXvzUADUQmga8Aie0zmB7eIFSA9QANTA5DRA49HDy+RpeaJO70Ni37Ftq4C4hcAgcAocaoAaogVY04BU4u3fvluXl5VZOdNi7C76VlHemw2qH+agdaqCoAa/A6cKy6C60kaIuipr9wf6gBsLUAIFT40oTOGEKlwaF40INdE8DBE4NcGYxpGb/D8f1qgFe7N272DlmHDPfGvAKnF27donxIHx3Aut3X4h48CaB4+4f6ob9Qg0MpgGvwOFgDTZYbfcXgRP2+LStB9ZHPYyqAQKnJqQ2agd3OT+BQwPTZf2y7eHp1ytw5ubmZGlpKeiQ2t69e+XQoUNBthEvPLMfrIkHbupnoKX70jds4j00eP6aTqcvUgInvAtWjw+/c3y6pgGvwOnCCrCQ2zg4cLIHUapXTaevHnC/6pnAoUHrmkFje8PWLIFTE1KbNuDYCwBc3hAuWgIn7IsX48Qtx6krGiBwaoCzuLgox44dm5KQWtz3mucqoRI4NGRV+uAx6mNQDXgFThcebTNoh7aZfpiQWtl8javdBA4NiksX3EddDKsBr8AZttHMlwqewOGFz2uBGuiSBgicmpBayINZBhw8KUB7M1VzNWXn2NTDQdlxvC0XT0ZBhh/LzpH7abCpgfY04BU4XXjSwPz8vKysrARpRKNoUY6f3xL9GmnAxix5bgs4epm1vUSbF3N7FzP7mn0duga8AifkFWAYuNDbCC8E/6lJVqEtHpfzW8UFAvBCNIRwjnprl4dysXUBRedxHdfl8zuNIjUwuxogcGpCaqEDJ5SLF55VHdBCaS/bMbtGj2Pvb+wJHAJn5HAh5pLs//jwwvZ3YbPv2fchasArcEKeHwlxsEJrE0BjzxeF1k62h8aXGghDA16BQxGEIQKOA8eBGqAG2tAAgVMTUmtjEFgHL3ZqgBqYBQ0QODXA4dMQaAhmwRDwHKnzNjTgFThdWAHWhTa2IRTWQYNEDVADo2qAwKnxcAgcXmSjXmTMTw1RA6kGCBwCZ+Rl0byYaFCpAWqgiQa8Aifkt2mi87rwVlK0lVte9NQANRCyBrwCJ+SOYdt44VID1AA1MF4NEDg1ITUKbryCm0R/rn7nuNx680ey/eIh+WLU/adVRwcek6s//ZFsv3lcXrun++cziTFnmeFfl64xInBqgNOFkFr6tOYd2Th7eCbnY6KD35SbgQPn+Il/bAyQKPqSvPM6geMyWNzXTdBg3LwCJ+TXN6ODurBKjcBJgfPx978s9wTq4QwFnNPfkr9bpIeDa5HbbsPGjJ9X4HTBmHehjTMPnCwENT3A+TM5/eJzsk3gzKTHPs1gJXBqQmqhAkc/OBPvqrG3eFUA3oXjeleNfQzlmrz6xWpx7A7ZIT3qLkuHi8jHawwS7yIx3mmoauetfxLzKZvzwZxQnq5kLgVzLb10/0PeWd2TG0mE+nDc3m6/WUyPPuK2+3fyHEP3GHoFzsLCghw9ejS/QEMcpC482qbOw8EL0vSbQdHXBgD61dAaIDp9mq4IHRtWpkxACrBDPWaLdhg4tfkqAwMcGPurj/9JojfAQkMnijLPQgGmt68IB8BEe1XJ3Ms/u8Ngg4TUdJ/xu9twsV+62S9egUPRjEc0dcAx/exKAwBozwfA0bAx+e20+eutty/KSTVvUrYfY+3LwzHAAWzQltST6a0ESyFSBEt67tkkvloFl+btT4uy7S2BMx6t2/3K393qVwKnJqTWBUG7YGK3GyDRcHHlc6UzZdkgQTqXJ2N7TXZb2v5dZuxtwCTpSuZN7GPwcJqGxcra0HZfsL5uGehpGy8CpwY4u3btEjOPE/LAu8Dhaq8GgQ0QpAdINJjMsTz9zoacPRwJwmmYu7G3OkyHsn1ty4w9oGE8nzx0VgUcFWpL+iRbrIBwXRV8ytrgq09YL8HjQwNegdOFOZxQFw1osTQFDiBhvBKAxfZQsL8fOEty+lqcz70gnZ1ftyuU72XG3g6LJekcwKmDkTlPzAm5QnfmeFkbQukjtoMAakMD/x8Z8mfD2EX9MAAAAABJRU5ErkJggg==;" parent="1" vertex="1">
                    <mxGeometry x="-239.99999999999994" y="220" width="206.94" height="110" as="geometry"/>
                </mxCell>
                <mxCell id="54" style="edgeStyle=orthogonalEdgeStyle;rounded=0;orthogonalLoop=1;jettySize=auto;html=1;dashed=1;strokeColor=#FF3333;" parent="1" source="41" target="50" edge="1">
                    <mxGeometry relative="1" as="geometry"/>
                </mxCell>
                <mxCell id="60" style="edgeStyle=orthogonalEdgeStyle;rounded=0;orthogonalLoop=1;jettySize=auto;html=1;dashed=1;strokeColor=#001DBC;entryX=0.327;entryY=-0.012;entryDx=0;entryDy=0;entryPerimeter=0;fillColor=#0050ef;" parent="1" source="41" target="74" edge="1">
                    <mxGeometry relative="1" as="geometry">
                        <mxPoint x="60" y="420" as="targetPoint"/>
                    </mxGeometry>
                </mxCell>
                <mxCell id="41" value="" style="shape=image;verticalLabelPosition=bottom;labelBackgroundColor=#ffffff;verticalAlign=top;aspect=fixed;imageAspect=0;image=data:image/png,iVBORw0KGgoAAAANSUhEUgAAAcsAAADBCAYAAACg7puVAAAgAElEQVR4Ae2d+5MdxZXnTexMxPwL+0NhSW21WINmoI0swBK2WbdogRsPmm57PLZs/JCxR7ItDAZpLBbxMK9Aks1DSC05BhBYvNzrZgQD24wtQB4sd0hI3YHsilD4l43diN2N/WnXEbtBxJ6NzKyT91TerMe9N+veuvd+f+io23Wz8nHym/mpczKr7ocuvPBCCvl3xZ1zdDpeoOe2RLn5mnQxxSXShqwf8grb37An7AkNQAPDoIEPhW5kWVhGV9xJc6djihdfp4evzQdr6DoiPwxuaAAagAaggVY00DNYTh56h+J4kV5/+NpcD7SVxiAtxA8NQAPQADRQhQaCwjKKJunQOzHFC8/RlsjvLSpInj9/Hh5l4PB3FeJAnph0oAFoABowGggCSw6pAoIYWBhY0AA0AA0MogaCwHIQDYM2YcBDA9AANAANsAYAS4RDsWYMDUAD0AA0UKABwLLAQHxXgSPuMKEBaAAaGF4NAJaAJe4ooQFoABqABgo0AFgWGAh3ksN7J4m+R99DA9AAawCwBCxxRwkNQAPQADRQoAHAssBAfFeBY/EdpnrOdubts/T6Q+MYeNAVNNBDDWzcO0/vzu6kNRnPu2M+K57PXBsBlj0UtOqMyZm3KY5P0rPf8L/Ewe2wuv5vQBlTfLb59YUr9/yRDsZ/otv+ob/bGMr20Ufuou8tfEBPvvUGrevSZBZFG+kLr/5vOnz+/9m/mTO/py98svd9cvVT/51m4v9G3/5i7+sSqo/L5hNduo82zCzR5w+f039TM+/S+uub7RBF6+njdzfSqfQ3bN/qvSFRfb13fkm//OVUBcCU+cfxcTow0Vzfsu3vp3SAZYewNLBTL4Rv/jv57De8YpYCMa/9K37xvLzG/RxNztDbTvllynbz6eR/Ywd/O0b3/pFm4j/RD3cNx6AqsmM0urursGRQ1hVIwwxLqZWRr71BWbCU6RiwWbDktN85ukBxfIpmd64pnIf4mqIjg3KYIMk2ASw7haV+x60fEmzkvGMnsIyitbRr7pQG9cnntqQGxOSh+a6FQxnWC04duN2AZTrk03VYfvIp2nHmA/rpsafo0i55stz3ZY6ApdFHaFhG0Xfo6EJM8alZ2rkmzI1qtHEvzS/FdPzARGq+KdPP/Z4GsOxjWBpv7mxPX0ZvgZ3z6zGAZY9h+cW36MH4A3rwH/1hu15PYoBlNbBU/Rp95ygtxOHgBlh2CAzdKclPbqn3w8o/+VL1aPIQvRPH5Hog5me9mn+BRL5zVr931vMrJZxG5cn5c/mLrz9M1yZ30nm/cmKh08bGlFY9Q3/Y1u+ZNqU9+Sx9I2lPtHYXzZ3Kf2k9T4IWaPp6tQlHhIzPvk4PjTfuOnWZ+pyTTpTN+ep+T0LAbp/KND5YLvvOSXo4/oAOxv+H7juY9orNGqf6LvlbWqS/Fh4RX/vYf3ys6e5Wfmc+Z6+V+r6PVr9Ed3K5GfXTa44nPyBVvpt+//E36BOirtpGao3ypGhP/IFeN+zWmmVUAMso2krfeTfxPJO0vLbZKWA5BMz5qaPr4TZgmV5XnfnX43S1Y0upq25/Xv2Dd2lq3xFavWo7Xb23sX544+49NCrqmRUmXT75c5qcOU0bvnp9k25VW0J7llp77F0eP0AToo7t2g6w7BCWDCkJJ98vkHA6d2L1wZLTyjz5B6Pl9QxLA9MGdNy0vvyMmBIo5PxSSp6wysLSboA5mf5FFt/1Nm18MvUj2qpNbyXroEWhT1nnKLqC7pw7bddVOWTLtosFCE19DExT6RSYRTrOf+2uOTpV8APeLiwZaAeXlmiTGMBRNErXHv2fejMQr29G0cdo8/wHdPD9/0LfnDZQ5zDmQQei9vpz/1WnXfH3J+kRD4y57rzxiMsy/yt4f8tOZqruCtoSzLZ8DdPGWqwpL53WtDWdJ19fJSwZkBJS7mcGIcNSfS/XNS+97w/0aPy/aOd9G6092HZljlES/nU3El391H9O5alheeZ/0MNnGt6vvbZGwFSwVBtrpgTwfGD0nVP26gUsVblm7TLMRhzAsgNY+qCoOsh3noElYafSurC0k7sDMN95O+E7YUA+z7C117rpJg/R2x6PVdWrzJ+ES3qTT3qHq/ESGzDnvH2wNABq9rT5GnU0aZq9dJmGP9u2O+2054V3qeqjbjz8fZRuk8pft8uxKZfLRwlLBuV+z05Q46WlwaLyiP7qZbrTgR7nKXfYssf3+C+f0H1nrvu/Fn6uJ6nzSMDqXst1j6KLDMA9sJ5JrrVpk4077F1ynm5buwFLrpO2X0nPUoJSX9fhWmfDY2xELmS9+LNKp0DN8ObzBtat75KNPvzXtPuZOTp27Jj3b25ulh5pY/e59iwFKLWNkl2q2uNMbvzqBkv1GMlSoI0+gGVJMLCI5ZGh5E6uHcEyCem6eapyXbhw+QxFWTf3cyaUCyZ7Nx/5v1sf+R1/tmFQB/7qe/f6vLScnzo2ec5is4+BduN5RwvFEu1068NlmhudRp7qvK1rQb4MtjueNqHXxxKYcd581J6dAyBdjgMhfU4DNO3FuZ4iQ0mHS63XmoRPk/9nEu+WQcpeJtdJHY3H2Ajncr5FnqGBfwPWnGfZ6zl9p0f2Ml0Ycb7sWbphT/bu3LApX5d35DzLXJsFVVPv9j3bvPq1852G5ROv0Zq1DfjzIx11hmXIdcuQXmo7fdDLazre4JPlLXYEy2Rtk9ce3WMswn6twNKtE1/rg3LZTsmCi7xelavXCUvBMjutzNOFZfN3Dc80HCxjko+klM3XwLKxZseen6wzh1BnUuuFjWtUKFTCyfX4omiMvjzvpjEhXOPpqe//RDuePkmP6PBtOr0LWlk3N5xbFnYGwEMKyxa80nxYNkKzsk968XlYYcmPi6h5eBh3wbLW6gnLHM+SK85HBl4Zz1JdI+FmgNMcGuW8yxxlflnpXUjLdO71eWnlddxu3zpiJx60Wx8uMys0rNOX9Cx/uCsJaTohVS5DhkX5XN5RQsznxVmgKjiqjTvKi9QeqfISDUgZ3Ow9+jxLF6RlYWnyBCyLHlfJgmW7a6aVhmH70LMMGYaFZxkgDOvCij2fot2w1jsR62llgaEmUoaGW37WJMvpF567Q296KXtdVn5ZcJHpbRvF2qCuO+9oFZ6yOm/ybF4f9ObpeftPFbDMWps0ZaXDs7Ke6jOHYRWILMA8wJTwc/Pw/c+bf5Tn+Bn1liBnw5Ate2mJ/nbPH0mFf/max155m753sgEys76ZDuuq663HK/IuC8usPBV81Rqd9JS5fVE0Tvvfis3bV57fVmrdnK/NOvYmDGt2trqbe3x1zIKlPl+TtwypenfiWUbRX5rrnTVPaY8qdsOq/EMCDmuWHcBSdYYLDAalcttTsIwm6dA7jccdGCI6nYClypPzKIIZw68oHYsyXWZnXqWv7VyOe+RwNYcxzaMfZ+mt196k0w4suU3q1XHysQ7l3fFuWJW/TecAMzQs8zYTue1y263+l7DU9eYdrg4wGWStvBpP5W0eMWneGKTKMgBW4dzG941rGjtZsyBuvMrGtbr+Jd/AY/MUm4N0fksx/YMTMlb56rzHbqfZUwaW8dI87fO8+ozTlj32Apa6LcnGInct1Lsb1nndnfEq6xOCVe0pDUtn0w+D0t1J6/ZfFbC0LybAoyMd33h2HIbVgyJ5NIHXFmMdlkuDkYXBEzyn1ZDTa5SNNbastKlreOdZErItC0td32RNVIKcy2z1aG4UxHOL4rVzDEbOU0HslP3ePBZiwNYMbQN183Ye3mV7Vjw3ynmqo7cOIjTKNwimXxqbE2Qe/Nmbl/MIC6dVR5u3A3aZxoWlvi4BjvtYhvquATO5ZtnYYCPzZi/P3ZnKadi7k9/7znH6prIF6DgNl+nzDDkNHxs3AKYtygtel9wsZF0/vv8t7Vn2OyyVDXijj3xsxd1oxDCXadyduWzPXh7LwlK32/cspn4PbPo5SwVIfi+se5wSIV/eYeumKQJwyM09ul14g0+5xyRaEWorodRW8g2Rlr2hTjb2hKhHHfNwowRl6sj2dG8OylzbaZpWwNVpWd26PhrfT2+pm6pTz9M28Rxqt8pHOeHnw17Y1HqVeN1dx16l6r8gnqVPCHWFpfWEhOflq/+wnmsLlvalB/lrl1XY1N18U0UZ3cxT7eq9fVZFFE7R89vyowDdrBfK6j+AmrXKwC9Sh2cZXgh1haWBQXPIF5OB0UA7sFS2s/3trJ9WaVd+wQHvaK2yrKrzZkjq9Xt4lEE8gar7rM75mx2w4d4Jy23lx0hCvpyd8677cSg8S57I9UTkbKaRHaTSpd6batcXm9ckz77+EI0PYIisXVgqO2o7v/kWPXd7dT/+zLtT8zb1yD7F5zA3wr61R7nGKD+XeREB+iVMv/jsyECr4rcsVXkc3jXzaZjX6PnaUbdzlcGybg1FfaobnLAtbAsNQAODrgHAssPHZgZdIGgfJkFoABqABirc4APjYoBBA9AANAANDIoG4FnCs8RmCmgAGoAGoIECDQSH5cqVK2nTpk0wfIHhB+VuC+2A5wANQAPDoIHgsLzooovolltuASwBS2gAGoAGoIGB0QBgCTGnxByN7aX52Lyb1GwNX6LZncUPx4/tndevaFPXtHJdne5IL9txhqZmXqGPLStuL9f7om//iv5mZommHv5H+uiHy1/H1+MIrwwa6A8NAJaAZQqWcuAqAMZxMSxNunN0/MB0Zl4y3158NlB7hz7xmeWZdQQs+2PS6oV+UCa0ERyWENXgiKoMLNWbZ/bOxxQvzdLOGr+koSpYQu+Do3f0JfoyTwOAJTzLTE+rFCxXbaOjCzGdO36ApgHLTFvmDUJ8h0kaGqi/BoYGlqNfe4NuPLhE4zetbZrQRr/+Bm2aWaINX73Cfqde3fbxu99L/XzO1J4jtHplel3KXPsarVkd0eofLNj0UzO/ofXXX2zzq2owsGfHa4XquDS701vuqm1HaUGuR547Tgem0+2R9ex3WEZXP0kbDyzZPvH9vNG//9JHrK0aYdjP05X3L9rrpnb9mD7s3AiotDI/Xxq2pVuPqZnscDC/IxYvUq//5Mn9i+Nw9FVwWI6MjNDExISdgOoipOjKn9CG/Us0ddcjtEJMfFF0g4aiBKEB5dsp2NnrHWAyaPXvyu3eQyNRpN+RqkA7NWMgWpUNosSrkyHQKFpF246eaNqU464rmnQLuWuSWbDkciWg3c918zRLh2EffpuuP7BEDFEG3fXfvYkuFLrhPo2iO+nTTy5RFiyj6Vm9AUher6950L8hiH+eS9nz1PPbajeOuN04Dgcg0M+Nfg4Oyzo/OqI8v6mDr9HllzS8qejKfRqik9u30jLPZCjFIr1IPs+wdK8356v1LnnnapYnyXVkuLnpss7zdVmw5O/VkfMIAcdP3fIk/WJujo4dO+b9m3vyVlpT0EeybvJzWViqmx4GpW5fZLzMrN2uRbAsU66sZxSN0/631Iv78RNd0i743Ji0YYve2GKoYBlN/pw+N5MOxarw7KaSHqAPgL5z3RIzgyov9KrqYsKvzbtaOYQrPVNZ927DUpYd+nMZaDXCsOJmqkNYsmeZF3oN3Vbk15vJFHYfbLsPFyyTdUgOxZoQ7GmaSsKnUuwcdpXrUjrU6qxF9hKWqr4MPBkGdT1IBT35vfsZsDSDvApY6j5y1k4BzsGeVOU8gs+D09fBYbls2TJSodi6ikTDLQnF6hDsE82hUvZAXYj6wOg716u2S3DKsGiWZ1lUz257lnUIw7ovJYg69CxdG/MaqBvuddPh/8GZZNGXg9GXwWFZd2Gwx6h2xa6+5XckN/Zw3bMA6DvvO8f59OLIwJTeYtm1Tbe+3YalW37I/3sVhvW1gYEpN/1wOtV/t8+e0pEAbPAZjEmW+xbH/u7PoYOlEqze6HPXU3TV3adTj4uwmA0Al0hu2uHHQtxHQnoJS+Uxvus83+gDY2Pna2tv2RkkWDKgsnatqr6vIgyr8pQbhlQ5eeCOxm6n2VPmdYPx0jztu76xfsr6xLG/J130X3/2X3BYLl++nMbGxmobhlVC1WHWg0t6Z6x6PtInXoYjr1lqcOoNQumwbS9hqertrkfGcTYQ3ecs1dqlm97NT65vxp7nMnmTkQz7+uxZh3MMTO5TNxRaFpa8A1bmIz9Lj5HDuPJ7N9Tr2mbs9lk6FWNHrGsX/N+fkBmUfgsOyzo/OjIonYZ2DPakwc9axqeep21tPioDjQy2RtC/3e9fwBKvu/N61hiM3R+Myua8ZqleYD+/73r0DcYnNFATDQCWNekIwKk3cKqT3cf3v2V+3gxrlQAE5qXaaSA4LPthzbJOE6SsS956YdHaocwHnwFeaAAagAbCaiA4LNFBYTsI9oQ9oQFoABrovQYAS4Q7ahfuwMTQ+4kBfYA+gAbSGggOy7q/wQcCSAsA9oA9oAFoABoo1kBwWOLRkWKjQ5iwETQADUAD/aUBwBJhWIRhoQFoABqABgo0AFgWGAh3f/1194f+Qn9BA9BAFRoIDssVK1bQ+vXrcZcCCEMD0AA0AA0MjAaCw7IKoiPPzu8U3Wc45a+SwL6d2xc2hA2hgcHWAGA5ZHd+vp/wwiAf7EGO/kX/QgOdawCwBCwHJkyCCaHzCQE2hA2hAb8GgsMSj474DV0XAcKzrHf/1EUnqAd0Ag2kNTA0sBz92ht048ElGr9pbZMnxT/2vOGrV9jvomiSPn73e5T6HcI9R2j1yvTvX5prXyP1u5jyNzDdH4kuK7ys34f0/qjz2F6aT36/0v2tyqXZnbYtsmzAMj0ApG3wGbaBBqCBLA0MDSyjK39CG/Yv0dRdj9AK8RuBUXSDhuKUAKEB5du0/vqLLXDs9SKdMiqDVkF1avceGokiYtBOzRiIZhnfd751WMbmlyrEDzOrzTzujzpzWYAlJgPWAo7QAjRQXgPBYTkyMkITExMWMnXqDOX5TR18jS6/pOEdRlfu0xCd3L6VlgmI+uotvUj+nmHpXm/O/yYFXL4m79gOLN2drT4vlMsELMsPDrYZjrAZNAANBIdlnUUVTf6cPjeTDsWq8Oymkh6gD4C+c53YoB1YZoVcffUALDHofbrAOegCGsjXwHDBMlmH5FCsCcGetuFTKRYOu8o1Sx1qnUl7i4BlvsCkTfEZtoIGoIF+1cBQwVJ1koZbEorVIdgn0vBTadgD5TVI7lwfGH3nOH07R3iWmEza0Q2ugW6ggWo1EByWq1atoptvvrmWa5ZKTOwxql2xq2/5HcmNPSy2LAD6zvvOcT7tHLNgyW/gkSHXvLXJrLIRhq12QGXZHedhd2igvzUQHJb98Jyl3uhz11N01d2nST4uwmI2AFwiuWmHHwtxHwkJDstoFW07ukCxs7v1/PnzetcrYNnfA441hiP6ERroLw0MJSx1mPXgkt4Zq56P9ImW4chrlhqceoNQOmwbGpaqLuz9MSD1btdV2+joQkztwNLNj/Pl47njB2i6YCewz0Y411+DHf2F/oIG2tdAcFiuXLmSNm3a5AUQOqr9joLtYDtoABqABnqngeCwRGf2rjNhe9geGoAGoIFqNABYDtmL1DGQqhlIsCvsCg0MtgYAS8ASIXNoABqABqCBAg0Eh+Xo6Cht3rwZhi8wPO5CB/suFP2L/oUGBksDwWHZD4+OQMSDJWL0J/oTGoAGqtYAYAkP0EYBduz4OyrzNz29gdauXYs/2AAaGHANXHbZZXZ+qBpGdc8/OCzr/gafundIL+u3uPgElfm7775v0YYNG/AHG0ADA66BdevWAZaJQxUclr2c7FF2Z6GYMqBUaQBL3CjgZmk4NABYNuZUwBJhWHvnCFgOxwQI0KGfy2oAsAQsLSDgjTbEAFgO/iQ6ftvLtLD4Ju2/aRwh1AEPoZYB4viND9KrCyfome/69QBYNubH4J4lXnfXMG4dQXz5pq/Rbw/dS0t7v0xbnPfBSliePbub7rr839CHPvQh/XfBBeto/+nH9ZpmlWHYHb9Y0C+M5/fWxidfpFvG/QO5zGRQlzTjt91DJ//wPMXxz+iXu3oDZQ3KOKbFN/fTTY5NJ762ld5VujiwnfaOj9MN22+lcz/7MS3u+Tb9wElbF5uGqMf4xq/Tfzp0L52596u1vnkYH99AP9r1I90nqq7j4xP05P330tKhe+jtO6barvuND75Kp+OY4nN+YLqwjNZN0fwBVe7f00Or/O/VruO8F6JOwWGJR0fqDcvo439D8wWwPHvs7+jyP7uAVu+4k86cNYA8dtdK+rMEmAqWCmpxfJJevCUNsvHxr9OBXy1SvDhPj29Of9fK5DY+voN+sRBTSFg+Pv8cnT//IsXxozRzXft143bc9uJB+kNJ+PUaluPjt9HLyp6/e4lu88CPocGwZHj6YDl+7RfopZ/cqyduBdR+hiq3uwws2SbcZnlkO0moye+LoMY3J3zN0qG76djWtEY5jYGlgWdRvqzVvOP45mfoRBzTuRPP0HcdbTTBMvoMvfgEYBkkNAlY9gcsT/2HSbrW41mePft92vwXaVCyx3l485/TBdNb6e57t/QdLMfHb6X53z9Pv569T3t4v56ZaPtunCeeVmDJ1/TqeNvL6ubmd/TSbekJmOvD0HBh6UKE0zEc+HoFkndq7p1xXeWR2+O2U6bhzwaW+Z4cw3JpZgc9++WGrRm0bF/Os+EhpuGob0j2GS+f0/phmb6O07Z63PzMCYrjc3Time+mxkUmLB/ZTDevgGfZETQBy5rD8qOfoRf33UtZsNQe5OppmjtjPEoGpTqePXwN/cUF6+grd/chLB/fS7/XHqWBZvzrO+g65y661QmmX2A5ftN++pdFf/iV28zeIkPQB5EsEHAe/Xj0tTOrHZ3AUuXJwGQwW3t6vEhfHdzyFTx9Hqjv2qJz4+Ob6ZkTMcWLr9IDYlw0w/JyeuzHu2kJsKz3RB8i7ow8svuYvcrp/Y96n7c04dlldP33W4Pl+I5f0EK8SPOPb6avH/gVLcaxXZc8+eItqTtZHtShw7AqBMuA1J9zQrHjGqzP65CtG7blcKo6n/Unvda8vLit8sihYs47PnU/7ZpoeCjj4zfRiyePmrYk66Cc9tQvv0UTYqLjfIu8Sk5XdLRekOM15V3HgLDhxYxrGVqcTh0ZKpw/l6+B7oSCXY+Nrykqn8tVZcm0Pgi5sOIy5NEC0NNOviHhuvL/fIMi8+nFZ+NdLtKrDzT05sKy7PwZReto9yvvURz/lp6+aTA80OBrlmWNiXTZ0OqVbdhzVBt5/Bt8TIh2zVe+2VIY1sDSAFKuZZp1TwNRd3IICUsOwTJMDMD8G20YVingKSj9qtkTbdWzzIM011HC0Z4TYGdYKkDKzUIMZVlvZVOVfv+/LGauVbp2L/qfQ4FumNF3nfF8GmFLCxLHk9LASjYWcT5cjgQmw1KBVK7VMfAkdBplNcpXeeu0YtOSufYe+td9P7Kbm+y1DvA6hiVvyknyZTjLNnL7e3HktcvFVx+wN7Btw3LqsF4HVRv1fvv0TR1FK3s1H7rlApY1e87yI1P30pG5OTp27Jj3b+6lh+grzlqj26nt/q9DsNNb6fTZx0mvTybh2MbnzmDpbtZhiPq8y6Cw1J5iA44MIYYnT0zsNbrn+Xv3GBKWJq/mjUdunRiWEpSqXtwm9p65rryxx7cDltO0emSQudCS+bDX5IIg67y8Vn1mMKYByDtA0+t0nJY9Nn19yV2uDFp5rbreB0aGm/R+XRtkgda0iTflmPq7NxMqTS//9GMkp9MbfdqGZTRFh1VYF55ltlc0MjJCExMTA3En0S50+vU6BUWzA9ZAUYVj2cNUG3tOJ5t/2vUsfVDMmhxCwlJ7dE4403cuC1hZdQwFSwtAzzqq+53932lPJixLrFdmta/ofB40DVjSUFP5+cDmK8eXznfOd606p0HkeIa+tAxLF+rZsEx7qm6efQ1Lz7plu7Ds1zkwr97BPUts8Mm+kcjriF5/F0X/Vj9XqWGpN/Isox1zjxGvYzYg2u6aZUy9gCVDxPUWfaDLC5O6k6L635eHLx2fy8qf6+h6heo6F47u/5x3Vh5lNvdwHu0eGThynU+C1PXEtDeWEXZ100qPryws84DltpHr3h1YJp5xXcOwgGWukwdYIgyrBcKwVN6kfKaSn7k0XqbyOEvCUrxMIC/c6k5e/H8oz5LX8ngTjHuUEM2CGdfJPYaDpdi042zQcSHYMiyT5ytDhmFdO6j/3ZBilmfpXmvB5jxc7wOj75ybn/rf5lk3zzLZlMQ3AAxqGWr2tadb50KGYXt9819F+YBlzWBZRSeXyTMTltLLVJ9XT9P379mS7Gpt3pzDkFucf5w2JxN/lbAc/9L99NTcHM3NvUD7PK/s8oVbzYSaAEqEMxms7iaZrMkqFCxV/lmg5jVLrlPrsEw2+FT8ijsXlgwC12NzbZkFQN953zk3P/7fF0bl7+Qxq56+633nZF7qcx6om2zEG36cDU9unt36P+gGn2Q3LDb45ABm2bJlpEKxZSZopKlPyJZh6YZh9eaeC0xIltc077l3CzEU5e5W+/Ye580+VcLyS/c/ZTdCvbAv/UC165W5k44LOwsi5608Glie3bAMMl/41C1L/Z8FRPWdzUvCO3mRQnqHbDPk9fWc1rPuGezREeUZ7Us/bK/LTjbTsMdk6sObWYrW+Jo37fAmIDdc2wosbVoHRBqOTbthm1935wOj75xqq/zzwZLPqfa4Nw8MaxnC1vbTtk6/lECWU8XnoI+OrNtNr7yX7IA/88/0wDX9//hIcM8SAKwPAFvtC4bhGfFeWAXPQ5v/3LwfNtkdy++GZTjye1zV0d3xqge+fs6yeM2SASzzk5+lt8qTRZ5nWeQpMqBkKFblayAqnrMUAONy+ch5yPAue4EqjQKk/E5+lhBUaRnuMo1bNwt0p058rQ/cIdctJch4fVE+xsF24aMBTPrVeG56N08DjgS2Ym3TAlCc41Jpc3YAABnASURBVHKyju7aqQS6uoZh5ULMB0ZfW9gGHEqVYOTv1DHvURvfNXnps9rayfmyLyVoZU5Zt/sVek+9d3ZAdsQCljlecivCGIS0eW/vkW/yYVh2MjhxbdojqdoeobzLquuJ/LurC7Z32dfdtTLPRcmzlvFvn6abKnrcrZX6dJo2OCxXrFhB69evRxi2DyEsN/NIOLqfAcveTGg8sbVzZO8yrnjtsp264Zre6onXKsu8SL0scBpv8DlD//zANQPBg+CwxKMj/RuGVVA0O2HNGiVDUj8+MtZ4Xyxg2dvJrV248E90Zf3ySLv54rr+1IPqN94B674Tlvu0necspw6f0K+zjAdkrZJvEADLPvQAufNCHxmOBpgX2N+yVL9pKd8XC1j28eR428v0mxMv0UP48efUxhyGw7Ad9e9ZZvyWpbJFO7AMPS/VJT/AErC0IZLnnruDyvxt3/5FTDTOLshhm2TR3v69YWql7wDLRqQwOCyXL19OY2NjdgKuy10B6tHo9E5tofq3lQGHtMMxsaKfB6+fAcvGvBkclp1OxLi+0Tl1tYV6/69am8YfbAANDLYGRkdH4fgk0UfAEmFYDAZoABqABqCBAg0EhyXCsPX3DOvqsaJe0A40AA3UVQPBYYlHRyD2uood9YI2oQFooF0NAJYFrne7hsV1/T0oo2gZrXlwI23a9VGEpzBGMjWw/JufoL/ZcxmtGoA31AzanKXH8AMTdGOgMQxY9stEcMMamnz2Wtq4dWXmwFVi50l++mdr6dIaDOAo+jBdcsenafqpq2ntJ8u/THnZlnX0hZ9fR71qRzRyEa1/otjegzDBRCsuovWPTwzlpB/9u7+k8SPtTagKlNNHmjXCk/T0kQmj+6vL6z6knrhfVR0nCuYNLleP19uvKVVvzr/MzYKx1Th98vPCFpOX02eVjfhPzRElbVWmnqZ+zf3DbZVHUz9Vl2xbBYclXncX3qOywCkBQD34S0BVCqWTzwpq08+O06fkIBA3ILbu/QJLfVOyUYNawVoDW7Qv72bEAHYjTe25jC6KInvjwvnwUdkrNWnom5wP0yUlJ6lO+st3rVtvX5oqzzUmKjFxtgkwWU8LrcNr6a8ybhzNeGk9gsCQzYs8GK3kT8CyvqE/c79OtzAfMADz2sX15PxZ73zed8ybJ9qZI3Lr6UJYw7h5zHE9s256+Ht9nLycgsMyVYCYNHG+fYiWBaAVXQmohuqPvEGgyrB1ahGWoepXNh9bT55YFDQ9dW4HltI7ttc7d7C2fE+ZZdvQbrpWJr12y8i7zqshZX81yeWALi9P9Z21dc54aAeWOt8HJnoW9Shqdyffa3CU1GAruvH2ccKHdrTvq6fOR91wsrefMYalfbgvC4F/wxrAUhqurp+10EoImMVb5q4wVFvzBoEqo52BEKpureTDk6YdNBkDLW8CZvtzHllpTVnp0F8v7eTWuxW7hUibpSF93rmpaKW8LPvLPLjfWxoz2nMpF96TZdX9c2lwMOT0UkUjkpLXvqw+Vte0qv2seuq+PDJhIzsXZoxhWU/WCI9Z+V3qM2DZvreXMmSFHjRPZGUGsxZkCah2WneeYDis6B5l2Cc9EMymGU7vCpTT8vfq6KaRdWfbcHpZrkxX5jO3icvTtvR4JDy4pLfI+XN9OI/MtDesoc8+mw79cdtbXdvlsvOOHLKya0MOgFL1TtbwTFr/+k1zfo3waZn1K7eumROpmuyeTd9UqGubw7bpEFv6+42NNTHP2hj3ux5fqfBdOk+uM0/Uvv7nNK0eeZJv9E9zm00a0x/p9jXXszm/5jTeOur25yypJGvbsp7TR/ywTNcx0YdYzpDlt6z9jHpyX/L403XwjOF02WZO4mtS3zntDR6GxaMjgQGsJ4xsAXPn8sTs63ROU8Uxc6Lju0+7wefT9FmxYYaFnXUTkJrAPetNfL1sr7bBj1vbSMQ2YfsZQI/R5Xd82gtqTuebLN06+9JyGheKLU8YZW/QEgAoiKl1VNVea6dkMwXXaerRT9Fnxc2W7tsj6YmWJ2KZn0qn7JbVl2zjrGOmhrT20zcVagKUuxuNjdVknK6nbeeDG3PDpUZH19JnH71Gh3zVprhUXzgbTsyNQrpOWe0qc16Xfzi9Gc/YPQ1MU88EOkl6W09P27nsTNs6+tF5qRBmFly0jtI3T1Y3rrZUiNrXpgCwzKunHW9H1Ga1MfrY7dd4xzDbRh35GjmPyO/t5yo8S8AyHCxLd6QSfh5Uk0mHPTD3mDlAnAFlhSPOFw1GO6B5LTC5ltuWVbZvIKbK120KGwrjOrF9XKCp8jmNr95unTkt58dH38C0dhKwSrVX2LzseV1+ibU1rrfbXp6gJZz03boz6fH17XiVqi1ZGvKV5Ws7A8/d8cn29/UV58NtdCd3PZ4cD1xdo9PzmlgbfcLl5h253tKepp7N4De2T4NV5p1lW5lGfc5rF0cS5A2SvsYThtV9dqT55j6vHq1oP6+euk7JI1/W+1XjybnhkW1nW/vGpEyn9ADPsiLBpwzdbhklgcAdnjcpBKmPpx15g0CVmTUQiurME3CWiO3k4UA4RDu5bIabtGtevfk6rrOblr9X+bm7M7Ps1El7iiYWzpvrxfW251VI1gkX+/o763rOp+joy/PCxCMu460aLTQDw7W/rx6so6ZyssaeqlcFmpN1s/UWm5uy6slpJVhlXl7bOuNYa493Ynse78rSkdvvNh+Pd5pXj7Lat/mXuKHkulloCltK+xidlbjprgKW6iXbExMTuc8CpirrdBy+M56pFZBHeK6NzEAq0eEV2DpvEKh62nY4AudBLkEk28VidydwXxoLtUCTmLGnuTtW7VP5cz3z6u3W2Zs2mYSbvaD2nkeV9mj6XHJid+vN+fgmaHMu/Uym8Sba15/RUGPd00xwzd6Jqpe2qfKWef2Rjw7UbdpSYVhPWDULllnnOxhbxn5um9JepK8vUm3MgEHR+NR5JGtzTTcM3KYMHbm6sX3jmbPy6pE1R6i6yT/2cDPrKdJreyUeri7b2VnNNne9ZVle6nMVsEwVICqP8+mOL7JH1uBwryslND3A088OMmAkCNy8y/yfNwjU9Vn184JE6MUdiEV14fSqPWUGU15+xvZmsrb1TGBv//dMCFwHLt+X1p5zJrcsO+XVs/C7khM719u9MfFqUE+c7qYZP9gK65f0d5GGOB+eLP3h4mbgWVt7+srm6fGe9XcZtjM2af/GgMtVR93n8lGHxB6+env7QuWhQeffZKPKKGPbrNCprWuWLZwwrK/enEdePcpqv7Cecv7Q/eoZw25I9gb1YoT0WizXOXUELFsDWMp4omOqOK/F5XhjvnJ4ouMJ2pemynN5g0CVmzUQ8gaWvs4ZiGXawLZwJ31ZDwVT3/ep/NXk4MLR/p/tAboTaWYbVf7OAM2yU6peruYUuNQds6qbOwko22sbpr1AX35ZdnMnaDu558DHl3/RuSIN8fW6Pkc8UMwAXqb9hR3dNnJZZg9AMxTL2tTmI8pyz+n6edaUffXOqqexSXM9uawi23Id8saEKbs5zG3g1QB1SsNCj/Ymx1nr5jqmrvOEgVW6MvXk/PRRjQ07Zs2OV/cmy+b7YPEYqWTNMlXhHKEgXTaosyYvn82KBoPvmpDneBBnDbasgeCbEGS9imyg2t10g5BxB6zy5fy0J50MIlmeGgzXJe+Q1DZNgGDsm56MfG3m/Dlcq8vkzQYOXEza9AP3WXZK1VGMJ51eeSXPKi8v+85Y1995G462vdo1nExoXHe3D7mdbOdUHcVkmFXHsueNjYu9U65P6kUFfMPgCcOq8k37s+3DeXIbbZ0ztGR160QG7HWij4rO2bzEblYLliPFYVib1tGXLLfQttp+aX3L69VnX79rUB6+kq55sAFLnVbduAi9mTpeS9fdcxVNdgDLUmuLk5fbMazrl9jFQN3fRu4DV/tNNhi5KPwGn1WrVtHNN9+cijW7BeP/bFBq2+iBWmLySCbjoo6u2t484SgQaRiJtcPUQBN3jSzSFFwSb5LzcY9yQuN8ZZoyr91T6bPspSYWmZ/67LsbVfZkwMj0sn46TQYs1XfuJM7taVqL02tyGZO91snGzDpyv+v+4bU9fUw/ZsFtce3C/SrbZUGfys+st2VtMuF6ZB0LJ3QJINVmWbZ6RCHRjaynLMvYWqwJCk/c10Z9bQYs7Xc5Nyiy7KLPzfZUfZNELwQEuZ6uPuROZS7LwEG091nxWbZdPdaV97iIsLsZr418zFpfxjOKqT5KtKbt2ZjTtN51CLqRZ6pt4mbEphX24La6x2Vb1Pt6nTx9N8dJ23gecrXv5qv+x25YIQifgbp9rpXOM6GihgC7XddBLI/tnzXxDmKby7ZJ20aFDX2TTzJBtgvMsnWoQzqjkXRkoOp6MSxD6lLnWfFjMCHs0mo9WxnDnBawrBkISwkn745WtIc7WXpmpfIXeSB9s4dv7vT9IZtht5eZtNJhN7YJT+ZlJh2+pq+PXb45YPuGgqX11nw3PjWaI9qpJ4d+i36hSemP59Eyug3uWa5cuZI2bdqEMGyNBNfXkxLsWJuxxOFad0ORndBE+H0YNMfhXV8oNHT7Q8MydP36OT/Tj+mlCV97gsPSVwjONXswsAls0o8aMHfizpqQWiMSHkrTmpm7hsT/q2sCbhTqhT2XbbmKrtt1ceU//gxYVjdf6Js99Zu7WpcZ+wOqWLPshWBRZnVCgm1hW2gAGoAGKtjgA6NiYEED0AA0AA0MmgaCh2FHR0dp8+bNtVlnGbQOQ3swCUED0AA00H0NBIclfnWk+52IgQObQwPQADRQrQYAS+y2RBQAGoAGoAFooEADwWGJMGy1dze4e4R9oQFoABrovgaCwxKd2P1OhM1hc2gAGoAGqtUAYFngekOA1Qqw2/aNvvgzOvGHmM6fP0/x6w/RR6II4SeMAWgAGijUAGAJkRSKpNtAq6o8BiUgOVg3QFXpBflCJ1IDwWGJ191BYFJgdfr8xZ+doD/Er9NDH4E3Wad+QV0wZ/SDBoLDEo+OQPh1FT5gCW3WVZuoV/21OTSwHP36G7RpZok2fPWKprCj77somqSP3/0eff7wOfs3tecIrV6Z9krMta/RmtURrf7BQiPtzG9o/fUXN5VVNCiiVdvo6EJMS7M7adW2o7QQJ+tr8Tk6fmC6KT9Or9bg+O/c8QM0LdbiomgVbTu6QPHSLO2MxmjvvMlTr9udO04HptNtisb20nxSLuep6sN1j5I81LmxvfNm/U/lndRdXSPT83W9PgKW9Z+Qeq0RlA+NZGlgaGAZXfkT2rB/iaZ276GRFEgMFCUIDSjfTsHOXu8Ak0GroMp5M2inZgxEs4zvOy/hFwuQKSjFDjB12nfTsGPASmAyLF3wcVkGogaYGpQaqg2AMhAZgAxLlZ8uR8P1HL377rsa6Lquou6+dvbiHGCJibAXukOZg6G74LCsszCU5+cCjCE4uX0rLRMQ9bVDepH8PcPSvd6cb927tABzYMOAkhDkOsgjgzEFQPYsXdjyeacsmZ/67JbN/8fxEs3ujIg9Ua6bAbv5zs0r7/9P3fIk/WJujo4dO+b9m3vyVlpT0Ed5+QOWgzFp5fUxvkMfV6WBoYJlNPlz+pwTivUBMMvYPgD6zmVdX+Y8w5LBw9f4IMjfyaNNJwDoOyevKfps4Zh4nE3/J2Fb9jzbhWVRPTr5PoruoX86F+NxEez+tssJnegJ1w4flIcLlsk6ZFO41AnNqoHAHqdcs9ShVmctsuuwFBBU9eSwK4dY+ShDuK3CksOunBcf2VvtJ1jax0WwCxaQwI0CNNCBBoLDcmRkhCYmJmrbKdKTNEBsDpWyB8pQ5btIHxh95zh9O8dsz9JszGFgqbwZauzRqXM+MPrO+epm0zWFa9NlVwXLKsOw8CyHzxPwaRznoIN2NRAclnV/dIQ9RrUrVq9hOht2lCGzAOg77zvXbmeo6zJhKXbJ6nQZ640WeMID9Z3z1dGFIKdxzzf93wdhWNUWrFliomRN4wgttKqBoYOlMpCG5O6n6Kq738t9lERu2uHHQqZ6EIa1cPIBUHiBnE6FTdsJw/L1vHFH2YrhrfPs4zVL1RbAEhNkqxMk0kMzrIGhhKUNs+Y82sFw5DVLDU69QSgdtq3Ks+R1Qj66G35UBzLcOA0/WqI32PjAKs6xANyjhKMGpN7xKp/TjGy5HBLm3bAcDq7jBh/VTsASE5+rd/wPTZTVQHBYLlu2jFQotmwFkC4tVoaVD46wVdpWrdoDsOzMfq3aG+lh70HSQHBYDpJxetEWwLK6CQawrM62vRgrKBP92U0NAJYdbCWuoqMAy+omAH6M5ORz36DlHbzcoIp+R57V9TtsC9uG0EBwWK5YsYLWr1+PMGybEAYsqx3Y0T3/ROf4fbv4PUuM0zbHaYjJF3lUO9ZD2zc4LOv+6EhoAyK//hI8+gv9BQ1AA+1oALDEnSW8C2gAGoAGoIECDQCWBQZq5w4E1+DOFRqABqCBwdJAcFguX76cxsbGcJcCCEMD0AA0AA0MjAaCw7If7qawCWmw7vj6QXOoIzQHDfS3BoYSltiE1N+ixaSD/oMGoIFuayA4LPshDFtnWEbRpbR3PqZ4cZZ24FlAHcIZ3XqUTsbv0/EDUwMT0un2QEd5gAs00JkGgsOyziBisdS5jvy+V37vKtd5mI/mNzvP0fED04Al1sCgAWigJxoYSljW+f21gGXz3R9g2WyTYb55Qtuhh15oYChh2QtDly0TsGyeCADLZpuU1RPSwXbQQBgNBIcldpp21jE+WEbRKG09epLiOKb4/eN0YCqyYQi7xqm+S/4WZ3eI7/naRZrd0bhODaBGvuq7JF3GWqlN63x/6d55W66vfqocs+Zoyk+n969DmvSN9ph2IQyLSa+zsQX7wX6daCA4LDupTLeurfMmJBeWFlJxTPx7kWynaHQrHT1pNgPtTDYD8W9Lvn/8AE0l54xnFpOEqMqDrzc/B5b8ZqUDY1sWbzyyPwCdbERS6acNhG3d4zSYuXwNvcVZUnWNoqQ8kda2VeSpyodniUmOdYgjtNArDQwlLPtngw97hcoDa97cor00ByxKSPrHlwX0LMQcr9B4cEs0u9PATv5otAVXcg3nwb+z6V7LAuYXwftgzddyWgPBhndp8mxuK2CJCZI1gyO00CsNBIdlnTfPsJH7A5Zz9LQOvS5amHH91ZHDry6A1HcuhNQ5DcKUF5d4homn2LjOeIXsdcbJNfy/8m4tSMW16nr1Zz1GAeaysNPwP9fwVDnPstdzehwxoUID0EBoDQSHZZ1BxMarcx3Zg+P1xzhueH5cf3VkeDXS5a/xuR5fdOlemo/T64AmhGs8Pf394iv09NEFHb6V6RnUvsdbLCyFZ1sGdhbAgKVdb5b9jc+Y/KGB3mpgKGFZ501IFpbKa1u1jY4uNG/q0bCMxvTLC3yepW9QuRDzeXEMVLW2qb5fnN1pPFLlJY4puBpw27y8nmWWx5oGs1tHmydgCVjiOUJooIYaGEpYuhN1nf5PwVJthMkApoWL8OCK2tHwHLdo0DZtGEoAvDR7P+2dN+Ffc80izT19lE4KkLlhXS6bPV6ZdxnPUl3vy9N6sY4XzOXh2Nu7bdgf9h8WDQSH5cjICE1MTODOqM07IxeWSoi8w7XpsRHt7ZV/NZ7Nmx9BSXaxstgtgMX3qWuEJ+mDuAWbs+moLCw5T94cxPktvvZaU8iY64wjJmtoABrohgaCw7Ible60jDpvQrJwEmBS7TXAUeuS6ccybHrxnCU/ouF7tyznkxW+Vd7d+fPnSX7vO6fq5CtbgW7aeadtWVjqPPkGQLfH7Iw1Nwv5YdxONYHrMeFCA9BAngaGEpZ13uCT11khvmsFXCHKQx6YgKABaGAQNABYthku7cfO57CmbxdrP7YHdcYkDA1AA93SQHBYrlq1im6++eZar1kOo2dpH83IeBSlW4JDOZjcoAFooB81EByW/QCiYdqExLtT9Tqms/GmHwWLOmOihQaggV5oYChh2QtDo0wMcGgAGoAG+lcDwWG5cuVK2rRpU63DsBBs/woWfYe+gwaggV5oIDgse9EIlInBAw1AA9AANFClBgDLIdoNW6WQkDcmKmgAGhhkDQCWgCVC5tAANAANQAMFGggOy9HRUdq8eTMMX2D4Qb4DQ9vgYUAD0MCgaSA4LPvh0ZFB60S0BxMTNAANQAPVamCoYBnd+AQdfz/W7z6N33yUrnLeYQqxVSs22Bf2hQaggX7VQHBY9kMYlqEJYGLg9uvARb2hXWiguxoIDst+6cAbnzhO78dv0qNXRVhfxfoqNAANQAPQQK4GAEvAMlcg/XLzg3p29y4b9oa9h00DgGUBLG996QzF8QK98L2LARXceUID0AA0MKQaCA7LfnndXZkwbPQ5syFIvYR84YXv0cXYEISJYkgnimHzItBeeM6uBoLDsl8eHSkFy+hGeuL4+8az3H4JQAFQQAPQADQwpBoYWljyjtiFF7bDYxxS8bt3jvgf3gQ0AA1kaSA4LPvhx5+lMYyHGVP85k/pCoRZcdeMGwdoABqABjwaCA5LCaI6f5ae5SWAJAaHZ3DUWb+oGzwgaKC7GhhaWJZZs1RiNLthscEHA7O7AxP2hr2hgXppALDMeXQkim6ll84kr8eL36SfXoEXGGAA12sAoz/QH9BAdzQQHJYjIyM0MTFR+7BeWc8y+uHLdCaO8awlwpS11zQmze5MmrDzcNo5OCwH6dERNSh4bTNeeIG2XwLPEhPFcE4U6Hf0+7BrALDMCcMqcfCa5ZuPXgXPAt4lNAANQANDqoH/D6oEgIzXyR4rAAAAAElFTkSuQmCC;" parent="1" vertex="1">
                    <mxGeometry x="60" y="270" width="237.83" height="100" as="geometry"/>
                </mxCell>
                <mxCell id="46" value="" style="ellipse;whiteSpace=wrap;html=1;aspect=fixed;fillColor=none;strokeColor=#FF3333;" parent="1" vertex="1">
                    <mxGeometry x="31.09" y="23" width="30" height="30" as="geometry"/>
                </mxCell>
                <mxCell id="50" value="" style="rounded=1;whiteSpace=wrap;html=1;strokeColor=#FF3333;fillColor=none;" parent="1" vertex="1">
                    <mxGeometry x="108.5" y="33.5" width="151.5" height="33" as="geometry"/>
                </mxCell>
                <mxCell id="51" value="" style="rounded=1;whiteSpace=wrap;html=1;strokeColor=#FF3333;fillColor=none;" parent="1" vertex="1">
                    <mxGeometry x="320" y="30" width="160" height="40" as="geometry"/>
                </mxCell>
                <mxCell id="53" style="edgeStyle=orthogonalEdgeStyle;rounded=0;orthogonalLoop=1;jettySize=auto;html=1;entryX=0.5;entryY=1;entryDx=0;entryDy=0;dashed=1;strokeColor=#FF0000;" parent="1" source="52" target="51" edge="1">
                    <mxGeometry relative="1" as="geometry"/>
                </mxCell>
                <mxCell id="77" style="edgeStyle=orthogonalEdgeStyle;rounded=0;orthogonalLoop=1;jettySize=auto;html=1;entryX=0.723;entryY=-0.012;entryDx=0;entryDy=0;entryPerimeter=0;dashed=1;dashPattern=1 2;strokeColor=#001DBC;strokeWidth=1;fillColor=#0050ef;" parent="1" source="52" target="74" edge="1">
                    <mxGeometry relative="1" as="geometry"/>
                </mxCell>
                <mxCell id="52" value="" style="shape=image;verticalLabelPosition=bottom;labelBackgroundColor=#ffffff;verticalAlign=top;aspect=fixed;imageAspect=0;image=data:image/png,iVBORw0KGgoAAAANSUhEUgAAAZwAAACRCAYAAAD3qA5TAAAgAElEQVR4Ae1965MdxZXnYLyE50+YDwV6oBaLrZUsEAJsCeP1lVqIhrHcDYGNEA9jgaVZJNBCawdGSGCMWSQBenW3YNCuHs3DtC1bxkAzuMEYTdNISN2BoCKI+bARuxuzG/tlZx2xG/pwNjKzTtapvJlVlXXr3lu3+3y4kXWrMk+ePHny/PKcPLfuX1x88cXAH5YB6wDrAOsA60CzdeAvmt0B02clZh1gHWAdYB0QOsCAwx4ee7isA6wDrAMt0QEGHFa0liga73B5h8s6wDrAgMOAw4DDOsA6wDrQEh1gwGFFa4mi8e6Wd7esA6wDDDgMOAw4rAOsA6wDLdEBBhxWtJYoGu9ueXfLOsA6wIDDgMOAwzrAOsA60BIdYMBhRWuJovHulne3rAOsAww4DDgMOKwDrAOsAy3RAQYcVrTcihYEPTD0wVl46xe13G14V8u7WtaB8nWge+conBzphyuCoKPWIgNOkwGn5+AfIQwn4Oi9naUYppEQYHPwjyGEZ9+CZ1Z29ljMsU2H70HQDbee+BcYDM/Hn08/h1uWt3+ulr/8zzAY/jPcd1v7eWn1XAcLd8OKwSno1Z+TsGx1vRyC4Ntw1XZabwpu2rTRCiZirneOTkIYhnCqCaBD6YfhGAyUuN4ZcDIARwDGl19+af1MHL3XqhBUqYsAjjbuk27jruhOwlvPrMzkgfJT9DptHLPuH4dnqKEj1/vH3oZvBQEEQResHP5fsTHUdf4vPDnolmM97fT6WePLQ6++DjHin/1X+HGfMhiuejjmLF7Keh6DTTWN+vJD/wOGZijg0Dmee9fb0DtkBxxaL1i0G1YMCcDZkLq27x+egDA8BSP9V6TWo7SzrmOwGYOB7npgzGqf9ZwBJwfgNOKhpBnqtMlJA5Q8gJRG2/dZ0HMQ/hiG4ALYOT8dh2fD/wdPDv7EqfhBcJkEnKFz/00bbMGHaCvBamoS/pqEB2KAEgAT0w2CK2Dt72Oj7zOWeTv/CQZDk57g67/Dlv9gX1xdu/4JhsI/w79/tP65bdxB1+Pw78YFQP3ZSdOH5zx1g+WHYOuZ8/D8iUOwiMgwT9tW1GHAUSG1sgEnCO6H4YkQwlMj0H9FvX4WmdugeyeMToYwNtDtXMtF6GIbBpyKAg4a+cm3noGVhhFJe4YTW1YZBFfDY8dPQ5jibdkMr9m/C3BEPdX+POz51R6t5DZwMGn6fA8u3SaB4MD7b8O3DXmm0fEFHEFLgs7EeRg0QDStn0aeBbeNwdPheXj65fQdcSN9NNKWAac5gCPmJLh/GCZCARDlRDqCVbtgdKoCgBNc/RgcPx3WhZbCiaNwb7SA0RCaO+GrHzsOp8P68I9JM0ypI2gifQxxUWOc5hGkPctaSL4eiqiP/GHp8pDMuglZ4pmJxdC7xqPkHM+RDSSUDNVcmPXNeZMKneHdiDqNAo5poINgMdw+eh6GpqZgjQc4pM1lsOB1eCw8Dy0BHPTmWuTlBLe9nwo4QfBTuO+j8/DciZdhYQROeNbz9N//VIN8mvxcz+JwXhx2lP2QeYsBxzhn+mgMlpN6rj5adX/B5j9B7+7DsKDrAVi+Mz5P+ettz0IX4RPPZcwzltk9R6Bn8BTU7rzBKtOyPRwhF+3ljA3UbUyLyK0SgIOGnhp4HdYpCDg2mmgAqeGjoEQNt1nXRk9NSHTYTfj0mYi8gGOTh+jH1l7XNZIJxJjeJ+dCNmDRbY3xmHW1Z2L0gXISYEgByWyPMlJyTk96aBhwRJhMAEx0PlIUHJBnWylDcaPKKPqcsRTxcET/ql1j5022ceA99GoQOGwlgkkQbID7TyIgxOc8i578Ap4P/zf0P1EsfIKhvMFPP4dbr4tDOssP/ZcETQk4Z/4nPHMm9sKC6w5B/5nzMFgh0Fnw4MnocP8U1NatlqAhz1MGkwf4rjOW2T3HoGfoNKyI2uJcYdkMwBG01VlOOYf7bQccl4Gz3UdjRgFDCEQZrdjD0cbQMJq2+wg41DgKmngfQVC3NTwCxVPcN05+3lIYYvRUaEnBT9BSBrveMNvum/Jw8YLyxDGKeniPyhhlQe/JupFXSu9je+pNueiK+5J/Q6biPv1gSKze6MUGNy2kpp9FHgEexu/99b5EP7TPItcUdCSvJAHARa8o4KBMaJjQ1Uej97M9HAU45sE9Gn3TI8nLT97sM+XhxGCD9AXgvVAgmSC45CZ4/D8dh+PHXZ834D/eEwMg9pdVSsAxACMIlqnsMeH5RF5O1QBn1a5RmCopeaD9gGMxWmLiGgIcB01B1zTQaEyp0XUpjmnIXSDkam+7b/Jjq6P7MQBU1DXbp9U1aWsZE4Nv0hNtXF6Ibk/4QsChIGT2i981r6R/fEbLxj2cKKEgOpxHY1024CDPCDxDmCmXAjyNAk6zxoBjEWVuwDG8CQScIskGGKbL0zYOqSVBQPFd3MOiMijjWgLOvjdhydKYz04AnDLPce47JjLfmpOhJuYoM2nAZaB8jFkdEETnAtRjoNfUe/ABHJMnbJvHuLoU1mbgzbpmv/S52T6tLm2H16q98tBcbUUdKj/zmnozrvnE/mjZOsCJzmyiDLZg4S/leYtP6Ivy7XOtAMV9wF8UcFTSQ3rmng+faXXbAjgemXHpgHMeMPSXNsZWPOt8wCkYGiW/62lWdhrOX3sAJ8XDQcawRNDI4+GINtTAu3b+SDtPSem56ruAwORHfE+ra6OPACHH7zjA9xkn0ssLwnL8zfZwogwyTBIwkwhscinrnvZ2HF5OEcDBlG5XOnVZvCOdtgBOdAbTiIez8MnP4fnwX2Drk6u8QqdNDal1oIcj3jowKUJqW5d4yRH1h5b3o4dT4o89Kf1swInAwTT4ysiFkLV71rtkkoHmY3R9AQfrTxx9RKbzmnzTwee5zgc49tRh5IV6bKLPPDSRNy2rybfgwPMi26/+nMgHRHzqCh5M7xT5omWjITXTG4jPdOIzINpfmdcacIzfB2EfhQAnJSMuCL4H+8dC9Svx4XLSmNsCOMEquPV3/wdEwkDW2wxcHo48AzqTTDhAubejbMTDCYKFILPcjDMgOo5mJQ2UGQaLz3DKSbOm4xfXmYAjKpkGEsFGhG4SgIOpvNGZAYKNrEcAR9BEGlmAgEY7qx4OLNlnvXHGenlLc+yudqYhV3xPwvtvvlsHEjgmMxFCyIRmqWFfggcMk1F543Mcsy2tHOtgafKJ911lnvpFAQc9AXGAb551aC9H/lAzfhOBTJku8MNPmYgQvfWAjlWBXX3/WMcXcDDhYdCR0h0sfhje+ESlrodTo7Drhvi8APv0LdsBOIJH7NfMNFv+siVLzUgOUN5NfSKB79jLrJ8bcIxEAg024vU1LQacILgPjokff44NQDdJ3S4qlxhwioXnsvrNBTho0LTRkyEWe7oxGlOsK4FChoLqM8XMuok2mBHi8LDSBoZG0mac09rZnlFjj/xhaYalEETFc/Rq1L164DNlKtq4QBXHI+qYfVKeaf/IowlCSCuNDqWJfJrgSOvgIX99ltp5wHOY2GvB9Nyo/Cz55gFKV1wLg5+k+2fYYvnVv9nO9l3wWfcKHksoTYNGlFSgkwvEd1LfPu7kmwxsfNT2vy83EAJwdlveq2Vrk3YPDb/rh5+YFj1UYtIA8iNpf5ScU5MP5C85j3F6NtJqd5kXcASfwfxNsHwX/a3OTuiSr6RJpkXPvest8h41AUhxm969b8KVUYIC/rZHv3ON1kv5bU9w37Hoh5/lAEQlAMemCDrUQzKgbPXacc/XqLaDx07qk+WZTANvdO6C2n54PxSvJHkFNpawK22UH25f7vy2Sp7auzk1AluXNO4pC74ZcIzffGRNZp4deRYNfp5cgFqmIizKf03Q0MGsCAk+/MYn8qWLr2wsx0iwvib1dabIQ53dlJMsgDJjwPEEHHXmUh++Q4FyWWxxao82HIcjBX5UN9PlHgMNezYzXRfKGL/KTCv/nWdBsAp2jU6V+kJQOt5cZzi0AV5rA1SBkBryQs9OkE9a0np4xuEqXecplN5Mu5bye/d9OPpw+/+ADd+3ljwXSJ4l4DM8R5pp8+UzXvwhJ8osrSz6ZgIffriue2OIfyFwamQrLGlCSFa/n02Effn/cNwTwUrKsmEdYB1gHaiuDhT2cHhSqzupPDc8N6wDrANV1AEGHM8zoipOIvPExoV1gHWgE3SAAYcBp6Gsq05QcuaRjTHrQDV0wBtwurq6YO3atWykGKhYB1gHWAdYB7x0wBtwLrvsMti8ebNXJ7y7qMbugueB54F1gHWgnTrAgMM7FN48sA6wDrAOtEQHvAGHQ2qdvUMKFu+C0VC9PFL9bmkKRrZm/+J98a5R/QJRn3bt3E2ZfX+z/wz0Dv0GrpiVPV5se9l978EPxHutnnkZLr8kfztsz2Vnrxeev3LnzxtweALKnYB2ylOASBhmA46qdw7GBvpasgsqIhMFDH+Eb31vtpNHBpzpo7tFdITbtH/+GXBmsCudB3DEL/p3jYYQTo3A1ib8qrksI9AswCmLP6bTfmPHc9D+OWDAYcBJDakF8zfC8EQI58YGoI8Bx+k9sTFrvzHjOaj+HHgDzrx582DNmjWVW3hdd78Na4amYMW6q+t4sz0T7wW7avuncMuL5/Snd+dhWDAvGadXbd+EJQsCWPDgRFx36E+wbPXX6/oqW+nRw6DvfJsa2Wrtd/7GYfnfGFg3PDcGA33J8VD+cnk4FQacYPkBWDUwpeeEziVe/9sfXaplFYfUboFrnprU7Xof/RlcYoCpqIs0RGmrg7I0+egdcof25Es8R07x26Jn8EYP9WYmlt6AU9W06OCa52DF/inofXwnzCXGA4GFgom690ECMHR7A3QQrKTRiWhrmkMKiJqlOOhd0HBWEMyHjcMf1nkl5jmLqjeRekbjAhzsF4HLVlbN48kdUnvmA1g9MAUIRAgWq//mTriY6A3OaRA8BtcfmHICTtA3IpMKaHvZ5ml7kgH+F46Q6alXNmowxP64rP4uneeo+BxNG8ARSiA8kF4DBBBIejZtgFkWg0KVh3ozeB8Bx2yv7jfXy8GMMpdHgzwiQJj1XPexnQtw8LkokUYZAPOdzQfgjePH4cSJE9bP8QMPFX77bV7AERsHBBs5vkB5O64stCzAydNvQp5BDfa/L97Cewr4/3CKGy4qU77uHDl6A878+fNh/fr1ldyZBT3H4GYjrGYDEZeC2kDEds/Vvuz7aOzFbtgEE9qXCqXVZ5thOI56SLRdqwGH9l32dR7DH4fU4jBj0CDgoIeTFkYre6xMr3MMLM9Vcq68AafKAtShLjP0ZYTZxBjQ86Fxehk2M85m2gk4ks8oS4yGtUzwEcBBn5vXDDhK6ZsBOHKOjLMkBp+kkamyzWDeWjtX0wpwhPJQj0aBSn3YCz0h87zHBi62e+1SUvRYBKDQEJfLw8nis9UeThVCauYPPxv1cEwZ45mQGboz6/H31ho6lnc15D3tAAc9F5GtJs90jCQAoXguELHdt91rp/Ii6FCvJe9Zj8l3qwHH7L/M7+0KqdnGgKBDEwmwHmapiU0DJw1Uwwji3HDZ/PnwBpy5c+dCd3d3Jc9wUGEk0Dx+CK7d/mlqmjRNBMCU594KhdSE53LS+P2LDVzijDS/twFMJ8BBI5+WvtyMkJqgSZMQhA6mgV+w+GEYOaVeLRROjcLu1fF5Euovl803fCzj9sjYG3CqmhZNFUiHzIyMNVoHAQbPcCT4yKSDZAiu3R6OeT4Thm5QMX+HI3bRZn2THj3vsf1uBxMXaAiPyrFK1wg6OKdmWCsv4GBmGqVDr6nngiE5+twM25kyWvzwCJyS/xfPmWqmbPh7e4CgVXKfloDTKuFxP9N7cTRrfvG3OOGpV2BjRqp+s3hguqy77dABBhz+xXOlw6PtWBTN7BPPcMRLU0d3r2bZ8/qbUTrgDTjNXIxMm3dd01kHavvfl+nrfHbDej6d9TxtbAw4LdxhpZ2fZJ2lpE0iP2MDxjrAOtAJOsCA00LA6QSFYB7ZcLEOsA40Swe8AWfOnDmwbNmyGRV3bJbwmS4vbNYB1oGZpAPegNMJadEzaQJ5rGywWAdYBzpFBxhwOKTG3irrAOsA60BLdIABhxWtJYrWKTsw5pO9BdaB5umAN+DMnj0bFi9ezEaKgYp1gHWAdYB1wEsHvAGH0b956M+yZdmyDrAOTGcdYMCZJjuURbtGIZTv5xL/JhlCODkC/fzaFK/d13Re6Dw2BrIq6IA34HBIrdqKa/v7giooGvNQbb3h+eH5aYUOeAMOp0VXWzEZcKo9P61Y1NwH60BVdYABZ5qE1FDBGHDY2KAucMm6UDUdmDaA03XX2/D9wSmo3bm0Lm5vexYEN8FV209D7+BU/Hn2MCyYl/xDLNX2TbjyGwEs2PxxXHdQ/G/O5XV9ZU1w0LUBhsdD+GxsAHrJGUuwaBeMhiFMjvRrmureZzA20AtdG4ZhnJzR0Hq0TwYcNjJUH/ia9aFKOuANOFV9tQ3+tXTvtmdhDjXkCCzkr6YV2HwAy1Z/PTbu1zwHK/ZNQa8BOuoP2CJQ2rYT5gYBBEFPBFYKiHwm1PWHZtZ/8lysQEgmAXw2BgN9CgzVP3UqIDL7ZsBhA2PqBH9nnaiKDngDTlUYt/Eh/1p6MAkCwTW7JZDQv5O2tRX3JLgY7RFwzPbxP4H6eTmFAGdqBLZSEI2AyOblMOCwcXHpN99n3Wi3DkwrwMG/lqZhNQyJLVmQDJXZBG8Dkfhe7A3Z2ua9VwRwpka2ak8sqx8GHDYqWTrCz1lH2qUD3oAza9YsEJlq7WI4rV8V6voUMKymz2keV6Ew2hY9n8QZjjjPGRJnMzG4MODw4qR6w9esD6wDxXXAG3CqnhYtASIKiylQSQKIUJag5wjcLMDFACIbuNjuNaJw7OEUV9ZG5M5tWe6sA+3XgWkHOJg8IMJqMquMJAugwskwm+HJiGc2cLHdQzpFShfg4JsCaPjMlkiQ1SeH1Nq/qLLmiJ/zHM1UHZh2gCMmUiYPbDsE124/DSvWXV0X/lMgMgU3btoIl0SH8Trl2QCi0gEnmA8bhycgFFlnvepcCcFG/M00Aw4bo5lqjHjc01/3vQFn7ty50N3dXWfEq6QsMnlA/r7mTXAlC6iMtvg3ODdu2gCzeo7BzU0GHCEn7YXg72omR2Dr/I0wPBEWApwgWAS7RqN3qCFNUpq/+anSXDEv09/I8BzzHKMOeAMONuSSlYh1gHWAdYB1wEcHGHCm2attfCaf67KxYB1gHWilDjDgMOBUOjzaysXAfbHxZR1org54A07V06JZYZqrMCxfli/rAOtAUR1gwGEPhz0c1gHWAdaBlugAA84MUrT+/h9Cnk9Pz3IQ2Yj8YRmwDrAOlKkD3oAzb948WLNmTUvQsKjbxu3sLv/k5D7I83nyyZ/AihUr+MMyYB1gHShVB7wBh4253Zh3glzygI2ow4DDYMsbDtaBZugAA84MCqkx4LARaYYRYZqsV3l1gAGHAacuzMYeTucakNqW1+HjyXdh37paqaGQvAaF63Wu7rRi7rwBp6urC9auXctnOBUFqiu+fxf849AOmNp1O9xD/rRNhPyoh3P27OOw7aqvwoUXfiX6LIP9n+6VdZoJOI+8MQHyH0zx1Tvjr8KmWucbx9qW7TD+xTCE4Yvwq0fbY3Qk2Ii/KX93P9xpyLT7rg3wkdCLgQdgZ60GN256CKaGdsDZneunhfxbYSy5j8b12htw+Hc41T7DCa76AYwefEICzr0OwDn7ux/CVRd9BRb2PwZnziqQObGtCy66UIGOABwFDOPw6qYkGNRqd8PAe5MQnn0H9tyefOazIGu1fnhjIoRw/DXYbBhHHzq07p53jkEYCqP/PAzdUJw3pLnl1UH4IieA1LbsgPEvXoEwfAl+3QbAqdW2wOsfhxB+/DpssciztupueEfoxcAm2FWrgQCgkwefgMmd98GDtvrdd8PbAqDI58yOtYW9ptqKW+H159MBrlZbCQeeSvYZ978dfvtTNac1C2+yXgSmOH+0tNKO6iNvCMa0nbiu1VbAo4/+LUwNxTyYdRr9rjcERN6Nbgj0uAyaUlaD/XD4h0qeRfq20c6zeWHAqainUjQJAQHn1N/1wEoL4Jw9+wDc8ZdJsEHP58W1F8GFt2yAHU/cC/3SExmH1zYnDbcGnMlR2Ls2+cxn0ZUNOLXag/DOuWH4w8iT0tN4b2hlYeOI49jymgCc9gAI8pC33PL6xxCGH8PrW+xz4gKcM0+sS8gpNq47wHx206aH4INHehP18/JXW3krvP6cG+AEnVqtGw48FYOiizaOhfKn2gqw2l7HowaoCGyRrjC0H+5YKwHlb1MARRtXoz3SKaNUG4AdCd7lOAVYpABpWt95ZC7aW/sW8/W8kicCPfaFAHXW2Kzk0Q9vwOGQWsU9nMu/B6/tfgJcgPM74cks6IPjZ5Rng2AjyrMvfhe+duEyuGNHBwLOnl1wLnwBhm54CEY/fwXC9x6BGyw7d1w0ecpOAZzauv3w7qQ9lIbjNI2PzWiLuirUVm+0kU7R0uzfRqcRwBH0NOiQ3XtesECja/PilIF9og6AbWMoeg/7p4AuwF8CIRmPD/08Mhf0bH2L+6p9EvAQvE2wycuXN+AU3Xlzu/YDFXo3fftfSJznIOicPfFDuPKrs+HGB/wAp/bIGzARnoV39twOdw+8B5N4PhOGMP7qJuuOuGwPR4bT/qBAZu/o0dSwWk2Ckwi94ScOwcVnMfisvqTeUxot2yKMw34R3U9+Bo+uiL2SWu1OeHX8mAJMfS6k6n7yqx/DCguIZnk3Nj5s9/IaZ9pWGWMSBiPGkXpLKjT2RCJEZ4bBGgUcwZfYZVMvB/mjhpzyj9donE1vQo/h4HY4sSGeJ9EOz8HU2JKGGenKOlImGJZDWSXDczajrwFnqB+OROHrtA2B+QzH5AqbIo+2vsWzuP+YV9mHRRZIK6tkwJlmIbU0YBcezF9e+G3Yf3ovWJMGTj8Aa7/2Fbjqjh97hdRq/QJwov/jORuH2lRYTgGRqYhlAg6G0079+ifQXatBbe8u+Nxx9oIG/w9D3RoI5fmLxSPy9XAU0AkvK2mY1OJVIb/wk6fg0W71vFZ7CEbPCTAhgFe7E14bR5B7UZ8HiTGdC4eBgp2iuw72vzvpPLsx5Z72Xe1e8+/k6wwc7sgtZx15jF8ZgIPGU3gqaWBhysFmXKV8o7MnarQ13aEYhGzelWivAFCBDHoFtrrINwVGcU8keiRCh/Isrv4sTJ9RkbBfHpkLHm19o3wk/weVx6v7IACI9fKWDDgtBpy5vTvgPx8/Dsddn9eehjuMs5c0EPF5JsNpfRvg9Nm98OIdF8GFC1Vo7cW1/woukGE2ATgXwJKigGMkACAQ2bycUgFHeizxWYs05J8Pg+kRoPeCwJS1SMoEHJWAUA9GKtkg5lV4OApw4vEIPtWY6kOFmCxgy0zLGp/5XBq4g/kAB70hagwln/KsZgeYoak8xk8Dju2Qm5xjuMKBsv8oOUIdYGMSQuwhmGOm39HwUt7R6FMgUMBcH3ZUZy7J+8Jgn3vpZwnQEH2iJ4bnI9i39pYiGSBIIZ8aGIknKZ5hqCvBZ3RuZtIU3+kBP/ZN22J/+EwCuATf7DM2bGsrvQGHX23T/tCYD8jQugJkFsjMNJU4IEJr6OlcIIGoMcAZf22z9hpsykbvlQk40ms5FXsOoh/pbRjhKpfRp3zR67IAR4fJopAf7UMDTORh6e/GeDTgGDTynN/Q/tKulXGJASfeycdhIDRKou5HZIePdDVoEIAQz7wAh+zSkS4t8wCO8kiiJIScO3LkEcNq8fiTgKU8u+S9eIxJY44eghmOo+MR12jYUb6SngBPATwGuMi6JDnCxSeOh3pnZr+uvrEe1Qmkh5mOWMen9AYcTovuTMAJgr+Sv7uRgCNDa7Og//gewHMdBKK1X5sFq33PcKKQWjsAxwynofIrsEj+JkaF0+q9DGxjluUBThROM8BC9KcBJgJH/T0v4Ny5H/4hI2HAHJfrOzUuZh3TIKpYPgKRWdbvgtFYpRm/GKxU6rbJA35PAxzB50eRl6a9AUuID2nR0qyPXhzlOTbu5pjxezITrxHAEbxJuRNwEfd0SM5I67Z7m0l+6Hjx2pxbvC9KnGcBhHp+DACk9bOuGXBmSEhNAs6VF4LwamRo7YLoLEf+JucCeV+AT27AIeEzHTprg4ejDu3F71/w3CNZ0rBa2hmLbaGUBzhRmMwKOEkw8gac2hb45UR6hpptbLZ7CAq4w6d1TKOkvsdnGLSu7RppU+Nt1tMGrQEPhxpIQR8NPvUczH7pdxynCCGJa3GGYrZV4bB6D4fSwWvsv4iHI2gocK0PUSoe1GG+4rN+LvLIXPSBYzbHqcE1ShIwARnH6FN6A878+fNh/fr1/KaBFgMVDY0VuaaAc2LbPPgqAg71dsT1gj54YMe9UbZZ/YF/rfaI/MHm5OheWBtlTDUTcGo/egoOyfOuYdi9sf4w3hZOkwsVz0JIWE0lE9QfvLsWTFmAI+i7MufUudIrgEkM/oBzJ+z/h0kIS3idTZpBMY2SyxC6ZJnH+DUKOOiR0JAP8mkDURuvyKeov0dmvNUDi5SF4XXYaIl7jQKOBJOD9aCn+BRAtE7+KNU86xF941jSQF7UM+cWx4LnQrQ91qVnQFg/T+kNOEWMHbdpfxgOAWfh1r+DM+L3NhfMhq2/iZIHLlDhNTzjET/81Gcs5I0C+kefYfIHoc0EnB89dUgnWAzv3pg4I8JwWmjxHITym2E1bcyNDDZp9C1Zanign/c3PWkelKZFATD6sWpIwmeaR3JPjMV1hiPH+UvxuiD3jz7zGAKsg4bM/FU9GhrcBVNwwntIw1bS+nhQbtZrBHDQOIrzDkwhRvrKG6hPWxZjEj/8xHqijPlUITJqbLGe4lM8j9OF8ZlZNgI4CKBWMNEZgYoPmwVWV6IAABNvSURBVAfVCOAI2ahXISXDm1Q+JugI7zJLFxhwOsxTaQS8RTaaOqt5HLZdqd6jJl5vc1C8YUC8Uy3KWsN3qcUAE6U8i9RnEkrDxZUXcNA7SrxLDdOpwxDOvrMHbjd+ZxJ7OK/C7r9JejgYTkPvAPnBEo08DauJZwqISOhNgECUqoxtsUQaNGRHU5MxzZo+19cEXAQ9CRoyDTru+5MolVv3h56ZB+DU9DnOPlhnyA/p+pbaSCcyxuqNuTZMiXrJTC3smxornTlFkgs04CRo4dlIbNzxDEfTiOqbZxjYryhjIEV64nDf/lofBa5PwJTFs6A07TKK+RR1fQEnOSa7HJEHLQdHCBIBJ0kzGj85h1HjjeWi6ufo25gn4W0hb66SAWcGAY4IpV208Bb4TfT+NPzBp1ki4LiUhu83/hLDsmW4pUQvp2zemF5z9AUBJw1oqyZ7b8ARfzfa3d3NZzgdCFTyTQIXfQVu2b/H+qYBBB4GnOYYiGYufvRyyjjLaSafTLsc3RLeonqhaL3XWWUZewMOp0W3/zymaFhNAIr0ci5U5zcIMDI1+orY82HAKccotHrh17b8Ur3xwfHG6Fbzw/01T49kNl7OxIUqzQMDTgd6Ko0ATgw6+D84qryFvF+NAad5hqLZi1+Azp8+fB2e5j9gyzxPaPZclE0/frWMOG+pT4Muu7+i9BQYmmdC6jsDzgwCnKNHH4E8n02bbpt2i7Xo4uF2nQu+PHfVmztvwCm6u+Z2nROKW7x4MQPOiuotVjagPCedrgMMODPIw8kL+pdffjksXbqUPywD1gHWgVJ1gAGHAYczDlkHWAdYB1qiA96AM2fOHFi2bFlLmMu7I+d6nROu47niuWIdmLk64A04nBY9c5WFDQXPPesA60AjOsCAw670jPRWg2AWLPl5N3z/0ctn5PgbMRozqe3sH38LfrDzmzC/SX+KOJNkKcbKgFMVwOm5Em48vBK6N8xLNYBoKPteXAoLK7AIguAS+MYj10PfoeWw9LoglXe6uGbd+2249dgN0PfSUljUhnEEcy+DZftWwqoMeVOeO/VajXUV9O78JlzWBlm3U27Bv/43UDuyCtYU2FgIHe07Uq8jcg0+vUrpr6felykLnFcbj65+fNYr0s+jN0pWNfjOLcQG3LQEeo4oOcm1fmi5P+DMmjULRFjNNSC+7+9ySyV4+Lu5jK9cQIfrF0Gz5C52eH2Ha3AdVSQC0j4KTHlsG+AYi0AuhCPxQkFjYgNCcwFiXUGDfvoIPRxzUTlh+0ZKk+9GaBVpi3NNZSSui4AA7R/lb5srrFcUcPK00/1bQAn7b2aJ8+oFOHKjlQ+AkX5hwInsBNV9bw+nmQKcqbTzgogPMJUlS+vOpQTAKYu/vHS00qNxEMBj2Z1qI2LxvMwFaKur72E/lkXn4wnmHV9aPZPvtLrNeGbVoQj408Aiixcta8tcYds8wIF1scxDF+t2WinnwqL3tnH46I11ji26z4BDjKdN6K24J72IHEoQzLkMlu3tbnhn6DOmNEUSdLQhz8G/T79l10XDo3drTQIcKRNLGKedcvIxHGXLXdBz6ZC6X9xbzwMMOO9e3pQEw+J8NUOGZdBEeek1kGH7fPTGNceCb6r73oAze/ZsEL9EL0MATONi8AGRvMDUqFyVx9UNfYejz5H4WoRCqAtPlWnpdbNgSRTbFvVMxca6NLRi1qG8o8JjfdovrZfnGg0P9icXiGVnjIvStvNGfpCGs260e6dGDsfue9aVa2xRmMQlpwTfERiKui55Yn2kR0scex6+sI7TGFnkJNqI+rRPM0RpPqd1xTWVMc67nIuoP1nHEvYUfTvnNMM441htJfJA+aS6IfuV86JAjo7PHHtcl5yNOMZSx4scfxw+Np+75t0255RHHJeNV8kvOef1BhxOi/Y/ozEnNvFdJgu4lQDryoXw8+46I47Pm1UKxXIpkugzNqTXw43kEB4XmbmwkE9UbpsyS7qRYaTPpQx+5pecoPsTWWkRGPbuXAxXPnK9VZZpBsfk2VYX61Cjl5RTMf5xHHVlZETT5IQ89b5wfSKMaJtbnDdKD42Lay7reDKMs60f2cYCOKIu7UfL2GJU9TPLxgF5UuNZCTe+cL0+I411tn4uUFaUB6RVpJT9G/zZ5Ilyl2AY1dd8WsaOvDhla8yBpmXwgnQulnOR9OpQFlQXXDJP40P3XSRpgAGnPMCRk/fzbpl2mZk9lAZM8lnshWjPBD2UBjLa0hRJKKtWprozC2XgbZ6CbBftyqkya+UXi8WyABLPjQWV5xkuFr0js4QBsY6Nb3MBYl2kh6VtTFpOlj7z8G6rg/3beKX1ke86ELSE/mzzje1t46L9uK5tNEVd132TDoKGmVGYZ/xoyOtk5NAvV18mT418R76pPF18ouxdANioDMU4sA/Kj+u+qz/XfUmHPZzyQKMRxbs4SoU2F5JJUyroz7v1Ds183szvaYok+nUZUlxUdQs9AgqXkuNY9AI0gAyfN1Ji3wgQlMc0vrEdLkyzLj6n9JBPl5zweZEyr3FEvpBv7AtlTI2Zbb5d7ZFOVmmjqTYUObOlLMAo+jTlb+PDNkZZzwE4zdjomHzZ+HbxiXXNuUOaVtkam7Es3XPpkTnvmo7FS0rjQ7cr4uHwq23KASs5CRVNhUZlFmWaIonnVJlo9hUuFJvxle2yPByy89LAUBL4qAWmwphifII+8pnGd/0CtHhxDkPmkhOVtfe1oy+Tjsk3PrcZObxHDZzSgWS4BWnkKVHGOI9S3o4wEcqf1sVrCoyiX6yLc2fjBcdjtnUCS06Z2vpy3bONX8qAGG4Xn1ljVHOTHpLH+a+TAQKTY8zYDnUhjZc0Pqjue5/huITK9/2ASCrY4eyMMw1MaaGYKoTUDP7SlFPoiqnMWfqD9cVCdS4cXEAZpVrcapFqPiP+9XdiDJA35AH7t9W13ZPjJWEFCsxIu1DpMBQmLeQbDQc+txo5STM+kJaG0QEOSCerTDNGtC3ymSf0J9q5ZJ2g6fCOXICjZFIcXBN945wbGyUb39a5yLFO8sg2s45Dj3A+UG9sfON40/pgwMkwSCjEZpZ5M858stiawW+aIon+qDJRQ5qmnLJdDg/HHI+5AOhz5EMYSFwg9HniWiwwE2D0d/ebE0xj5ByjZQEjf6YxTfBl6mVk/F1t0uRB6brqmUZO82gBW0rP9zpLh5CeyU/m/SgRpEwPxyUr5MWndOmH7X762N0AmCVb7CttTbj6FrTpetL6YW4uo7XsSi6i7bw9HH7TgJ8nY1NQBJE0JcB2+Ev/xCsjTMPUxO9KGVVig+19UlSZygQcoezoSaAsXLtS8RwNhdyRGwtCtr9pCdwQvd5ELtLIqKoFm1zQuADp/CB9atxwMdN7lBd63yUnPTZjDrG+8jCS/NE2aBSorCRfJJsPeafjkXwau3/s0wVwtF+fayXj9LAP5YfKTc258rjoGLF/2/zhM0qzrq1lUyDr5wAxSj/tWusH8RBxLuS8EmBHnaN8Yt2EPAw9yZStY5yUb9u8S7ovXQPffTr5SiSTT8XjSrhhx7XQQ8bpou8NOJyl1jjgqGSBHAswesGkaSjoZLbiWipZlPFmGkCbsgqe9GKjiyraCQkatk9isUXhCFrPtYNS/SnPRNR3yUssIkpPXLuMKy52Wp/y5xojzodpCFFOlB5eu34Pg8bWxSP2hUYgppfULRyLKRdsR8eFdZEWLc322H9WmWkUqRGNvDrsVxrbSG8on7RPc16pvGxjlG3TDHHaM8prjmtTnkqHIy+aro0I/HHcWNrGbI4X64oyMXYM6ZF+qNzoNa5XpKXmWp1R1s07mSO9JuW9WO9c+s6Ak0Np6MQ0ei0ntoxU6Bbz3ei4q9IeF5ZtIVeFx3bxgbKhRkvzEhmZOuMzDfVQyyGHodbyaVAOTmBsgK6i6faOy+Ldhw4DTgMT6iNoXbcDUqE1r62WTQv6UzvOai3CqsgbjZ4NVNKeVYX/UvloMcCifMvaCKGHYd08tGCduebCG3Dmzp0L3d3d/GqbNk6aazL5fgnhzhk8rxj+MY2UNl5GttV01zcMXZUFAmnyKhtw0vpq5zNvwGkns9w3G1TWgebqAIaTMJaPJQUhNMT4zFXSNp06b7PuvRZuePTrTf8fIQacGbzT69TFwXw31xizfFm+rAON6QB7OAysHB5lHWAdYB1oiQ54Aw6nRTeG8LxDYvmxDrAOzFQdYMDhnU1LdjYzdYHxuBlcWAdiHWDAYcBhwGEdYB1gHWiJDngDzrx582DNmjUtYY53BvHOgGXBsmAdYB3odB3wBpxOHzDzz4uWdYB1gHWgPTrAgMOu9LTyVoPbXoIPvwjhyy+/hPCtX8ClQTCtxteJhjIIboOXPvxCzUn4FvziUp6TTpzHMnhmwGHAmTYGGcGmUaChBlIAF/2E4TgcvWe2lFmw47dwLlTglqiTAnRBsAN+ey7ZphF+bbyG40fhntmxUbfVofyOH70HZgcBuOrRMTdidJB+yKAzbdacrz54A878+fNh/fr1M1ZgvgLm+q1z3W976UP4ogRjpg2jYbjNuUTAeesXl+r1gIBiM9JY3wQYwffvCQ2zH9d33ZfBpwTe39u9O93GAoqucSu5hqV4jLgpoDJzjY/vt27ttErW3oDDv8OZfkrQKmVrdj9VABwxRm3UCRCgoTXBphGZqPHGHlceWpo3D8ARdBF0GgUKlEOjdPKMletUz1ZNG8Dpuutt+P7gFNTuXKp3m6hwtmdBcBNctf009A5OxZ9nD8OCeXEoQrRXbd+EK78RwILNH8d1B/8Ey1ZfXtcX9ukqg64NMDwewuRIP3RtGIbxMIRQfj6DsYHeOnpYX9VRdT8bG4BecjYRBF2wYXgcwskR6A8Wwa5RpBlC+NkYDPQmxxQs2gWjul9VV/CDPAcRDXFv0a5RxZ+gLXifUOGgqZGtuj62a3dZFcARctjx23NAvZwi4JAlT7OPrPrieVHAQaBoFDCRThbgoDeI4b48Y+M61QMYc068AaerqwvWrl1bOWMTXPMcrNg/Bb3bnoU5CWMcAcvOGEwU2HwAy1Z/XY9Dtt83Bb0G6HTd/TasGYpAadtOmCtj3T0RWCkgMoWa9j2Yv1EabQkgAgz6FBgsloY9CToSbE7GdQTd+RuHYSIMgYJOEMyHjcMTEXAJMFNgoPuSQKT6kWAzOQJbiYxU3woERR9BsFiDluinb7EAqM/g5MmTMDbQB7L+uSRfaWNu1bMqAQ71CHSoqoRwH5UlGmUKbPS57bow4ERnT+b5kK2PtHt5AAflJc6ZGu0vjRd+1nqA8gacKk/SggcnoHcwCQLBNbthxb4p6Nm0AWYRI2sbhwQXoz0Cjtle3ff3cjQIGAYbjTwFEhuPGlwoiGjAOScBAdvpuhYvB+uI0uwbv4fhFIxsDSCQgKNAri8IFOBEzyidrOvvbD4Abxw/DidOnLB+jh94CJZkzFFaH2UDDj1Yx2tqANHg23br+Ezt0FWiAG2bNg6fZ9gP8pflERQHHJVp1uiBfx7AEeNHwM4aj4+suG7rAcaU+bQCnKDnGNw8lAyrYUhsyYJkWMkUhPhuA5H4XuwN2drmvYeAc054DsS4anAgQGKjqesRENH3DBCztbfd0wAT9a2/TylPCAEHw2jKI1JgZKPXjntphtSXH9xhZwEEGvt2Ag6ODXnJAp40OaWNWz9r0EvTdMj5Fo6By/YDQrPnYHoBTiBCXZ/qsJo+p3lchcKoMNHzSZzhiPOcIeG1xODScsAhQCL4TZ7zkLMZAi6+gKPPZYxznBABBkNq+D3ycKoIOLhjbnTnndCN6HcjjQAO7tAFGGkj26Cxpjy6rhFQBPBYgRBDY55JA0g3SyYuvsz7zZg3sw/+Xj0A8wacqp7hoHJJgIjCYgpUkgAi6gU9R+BmAS4GENnAxXYP+ypSuj2c6LA/MvKCNgIDnslI3jF8VgBwdHJBKM6K+uLzKxNgzO8lAU4zQ2raIFoMqe88aYDI2IWjV2Ez7OaBvvndlyef+siXLRyVJqe0cWuAaFC+aX34jJHrVg9M8syJN+BUPS0akwdEtprMKiPJAigQGWYzPBnxzAYutntIp0jpBJwoew29CA0OBFhEfzZvxnbPxhtmn6Eng3XqQmhNAhzsr1ll2Wc4Wbt5NOwm4NiMM9ZtNMsrj+ywrzIBpyzARNmYMjPHhWPImgOzHX+vNhBNO8ARCieTB7Ydgmu3n4YV667WO3lURgUiU3Djpo1wSXSOolOeDSBqBeBoICBZaxpEpDei0qV1PREKI0Ck65J7OFZaamAJJ2GkP8pai4BOZs1hCI0BR76KJcvYoVGkxhPv2doKoy1CXSboCKD0/eGn8hRO6rce4DxrD8YRvtPPLZ6KzfvAe64QHfabt8wLOCirsvrNyx/Xay5geQNOJ7xpQCYPyN/XvAmuZAGV0Rb/BudGkcUmkw6SIbhmAQ79XY24lunHJIlAKH4MEHh2o0JhZlpyXsCRNGlatjzDmYSRrVFaNQOO3JxQIysMHv3QFGQEF/o8y0CiwaVtbJ5IHsPn4tOk56qHPGB9Vz0beObhz1YHx09B2lqPvAII+bPV43vNBYiy5esNOGUzMNPouUJqM00OzRhvWSG1ZvDGNJVhzA84mIbt9yYFlnO1Aej/A8VAvZB8+zzTAAAAAElFTkSuQmCC;" parent="1" vertex="1">
                    <mxGeometry x="315" y="270" width="197.86" height="69.64" as="geometry"/>
                </mxCell>
                <mxCell id="64" style="edgeStyle=orthogonalEdgeStyle;rounded=0;orthogonalLoop=1;jettySize=auto;html=1;entryX=0;entryY=0.5;entryDx=0;entryDy=0;dashed=1;strokeColor=#FF3333;exitX=0.5;exitY=1;exitDx=0;exitDy=0;" parent="1" source="55" target="62" edge="1">
                    <mxGeometry relative="1" as="geometry">
                        <Array as="points">
                            <mxPoint x="-37" y="498"/>
                            <mxPoint x="-90" y="498"/>
                            <mxPoint x="-90" y="545"/>
                        </Array>
                    </mxGeometry>
                </mxCell>
                <mxCell id="55" value="工作站" style="text;whiteSpace=wrap;html=1;strokeColor=#f0f0f0;" parent="1" vertex="1">
                    <mxGeometry x="-67.13999999999999" y="435" width="60" height="30" as="geometry"/>
                </mxCell>
                <mxCell id="56" value="料號流程工作站" style="text;whiteSpace=wrap;html=1;strokeColor=#f0f0f0;" parent="1" vertex="1">
                    <mxGeometry x="2.86" y="435" width="97.14" height="30" as="geometry"/>
                </mxCell>
                <mxCell id="58" value="Controll" style="text;whiteSpace=wrap;html=1;" parent="1" vertex="1">
                    <mxGeometry x="-160" y="445" width="70" height="30" as="geometry"/>
                </mxCell>
                <mxCell id="61" value="DynFuncModuleServices" style="text;whiteSpace=wrap;html=1;" parent="1" vertex="1">
                    <mxGeometry x="-250" y="530" width="150" height="30" as="geometry"/>
                </mxCell>
                <mxCell id="62" value="LoadEDC_&lt;font color=&quot;#ff0000&quot;&gt;Operation&lt;/font&gt;" style="text;whiteSpace=wrap;html=1;strokeColor=#f0f0f0;" parent="1" vertex="1">
                    <mxGeometry x="-40" y="530" width="140" height="30" as="geometry"/>
                </mxCell>
                <mxCell id="63" value="LoadEDC_&lt;font color=&quot;#ff0000&quot;&gt;PartRouteOper&lt;/font&gt;" style="text;whiteSpace=wrap;html=1;strokeColor=#f0f0f0;" parent="1" vertex="1">
                    <mxGeometry x="-40" y="570" width="160" height="30" as="geometry"/>
                </mxCell>
                <mxCell id="65" style="edgeStyle=orthogonalEdgeStyle;rounded=0;orthogonalLoop=1;jettySize=auto;html=1;entryX=0;entryY=0.5;entryDx=0;entryDy=0;dashed=1;strokeColor=#FF3333;" parent="1" source="56" target="63" edge="1">
                    <mxGeometry relative="1" as="geometry">
                        <mxPoint x="-27.139999999999873" y="475" as="sourcePoint"/>
                        <mxPoint x="108.50000000000023" y="565" as="targetPoint"/>
                    </mxGeometry>
                </mxCell>
                <mxCell id="67" value="個別" style="text;whiteSpace=wrap;html=1;fillColor=#a20025;strokeColor=#6F0000;fontColor=#ffffff;align=center;" parent="1" vertex="1">
                    <mxGeometry x="-7.14" y="625" width="37.14" height="30" as="geometry"/>
                </mxCell>
                <mxCell id="69" value="共用" style="text;whiteSpace=wrap;html=1;fillColor=#a20025;strokeColor=#6F0000;fontColor=#ffffff;align=center;" parent="1" vertex="1">
                    <mxGeometry x="241.04999999999998" y="625" width="36.33" height="30" as="geometry"/>
                </mxCell>
                <mxCell id="70" value="SearchEDC" style="text;whiteSpace=wrap;html=1;strokeColor=#f0f0f0;" parent="1" vertex="1">
                    <mxGeometry x="170" y="527" width="90" height="30" as="geometry"/>
                </mxCell>
                <mxCell id="71" value="GetEDCVerByEDC_SID" style="text;whiteSpace=wrap;html=1;strokeColor=#f0f0f0;" parent="1" vertex="1">
                    <mxGeometry x="170" y="567" width="150" height="30" as="geometry"/>
                </mxCell>
                <mxCell id="75" value="" style="endArrow=none;html=1;dashed=1;strokeColor=#3700CC;dashPattern=1 2;fillColor=#6a00ff;strokeWidth=7;" parent="1" edge="1">
                    <mxGeometry width="50" height="50" relative="1" as="geometry">
                        <mxPoint x="-220" y="500" as="sourcePoint"/>
                        <mxPoint x="460" y="500" as="targetPoint"/>
                    </mxGeometry>
                </mxCell>
                <mxCell id="81" value="AbsDynFuncModuleController" style="text;whiteSpace=wrap;html=1;strokeColor=#f0f0f0;" vertex="1" parent="1">
                    <mxGeometry x="190" y="435" width="180" height="30" as="geometry"/>
                </mxCell>
            </root>
        </mxGraphModel>
    </diagram>
</mxfile>